<svg width="1440" height="1355" viewBox="0 0 1440 1355" fill="none" xmlns="http://www.w3.org/2000/svg">
<path d="M-889.048 584.983L-275.755 434.726C-266.442 432.249 -257.557 428.143 -249.613 422.704C-217.284 401.313 -131.19 310.006 -116.78 320.786L299.403 657.594C327.673 678.791 360.094 694.18 394.406 702.509C401.925 704.308 409.228 706.913 416.368 710.124L682.611 830.976C720.775 848.337 760.985 852.409 797.612 837.575C813.375 831.204 830.009 827.229 846.949 826.146L1430.13 794.737C1450.12 792.743 1470.54 795.62 1489.21 803.432L2067.64 1042.31" stroke="#F30EF6" stroke-opacity="0.2" stroke-miterlimit="10"/>
<path d="M-889.177 580.624L-280.903 430.536C-271.536 427.857 -262.705 423.953 -254.559 418.568C-221.571 397.138 -135.964 307.646 -121.204 318.736C-121.056 318.992 -87.2635 346.208 -87.1158 346.464L46.4658 456.418C46.6135 456.673 78.7526 482.798 78.9543 482.852C79.855 483.526 186.287 568.908 187.311 568.317C187.311 568.317 193.01 572.872 193.064 572.67L295.696 652.061C323.414 672.893 357.129 686.683 390.836 694.85C398.153 696.595 406.021 698.703 412.96 701.86L419.549 704.706L436.601 712.086C437.059 711.992 503.085 741.576 503.489 741.684C503.69 741.738 527.573 752.678 527.774 752.732L531.446 754.364L678.637 823.209C716.249 840.206 756.834 846.107 793.097 831.825C794.322 831.288 795.749 830.805 796.92 830.471C811.497 825.296 826.852 822.059 842.366 821.459C842.769 821.567 918.428 817.624 919.289 817.639C920.406 817.505 1084.64 806.595 1085.71 806.663C1086.57 806.678 1228.29 799.897 1228.22 800.959C1228.3 802.278 1420.72 793.514 1420.8 794.833C1437.8 793.549 1454.68 795.91 1470.7 801.499C1473.47 802.458 1475.98 803.564 1478.7 804.724C1478.74 805.384 1574.78 845.605 1575.54 846.023C1576.09 846.387 1657.55 879.675 1658.21 879.636C1658.42 879.69 1686.29 891.051 1686.55 890.904L1687.5 891.376L2058.7 1041" stroke="#F30EF6" stroke-opacity="0.2" stroke-miterlimit="10"/>
<path d="M-889.159 576.521L-285.958 426.803C-276.591 424.124 -267.76 420.22 -259.614 414.835C-225.912 393.164 -140.845 305.689 -125.534 317.143C-124.983 317.507 -91.7956 344.561 -91.5002 345.073L41.2995 456.33C41.5949 456.842 73.1828 482.603 73.734 482.967C75.3335 484.26 180.88 568.108 182.67 567.074C182.67 567.074 188.222 571.372 188.478 571.225L291.517 647.482C318.684 667.95 353.692 680.141 386.794 688.146C394.111 689.89 402.343 691.447 409.081 694.55C409.081 694.55 415.67 697.397 415.724 697.195C415.98 697.047 432.628 704.319 432.83 704.373C433.799 703.984 499.072 733.149 500.081 733.42C500.485 733.528 523.963 744.359 524.367 744.467C524.367 744.467 528.038 746.1 527.984 746.301L674.084 816.799C710.889 833.58 752.105 841.164 787.748 827.58C788.973 827.044 790.345 826.763 791.57 826.226C806.295 821.307 821.542 818.474 837.056 817.874C837.809 818.292 912.553 814.536 914.073 814.511C916.454 814.501 1078.19 801.623 1080.17 801.504C1082.15 801.386 1221.82 795.786 1222.09 798.019C1222.3 800.455 1410.94 793.704 1411.1 796.341C1427.73 795.608 1444.36 798.117 1460.07 804.056C1462.84 805.014 1465.35 806.121 1468.07 807.281C1468.29 808.855 1562.87 848.9 1564.23 849.48C1565.39 850.006 1645.9 882.822 1647.27 882.542C1647.73 882.448 1675.26 893.5 1675.66 893.608L1676.62 894.08L2049.28 1040.64" stroke="#F30EF6" stroke-opacity="0.2" stroke-miterlimit="10"/>
<path d="M-889.087 572.216L-291.106 422.613C-281.739 419.934 -272.854 415.828 -264.762 410.645C-230.199 388.988 -145.767 303.073 -129.958 315.093C-129.259 315.712 -96.6234 342.403 -95.9785 343.224L36.0935 455.584C36.5366 456.352 67.7209 482.004 68.4739 482.422C70.9741 484.39 175.432 566.648 178.246 565.024C178.502 564.876 183.852 569.12 184.054 569.175L287.5 642.297C314.116 662.402 350.417 672.994 382.712 680.782C389.828 682.472 398.572 683.734 405.107 686.783C405.363 686.635 411.75 689.428 411.75 689.428C412.006 689.28 428.507 696.296 428.964 696.202C430.391 695.72 494.966 724.265 496.58 724.698C497.185 724.86 520.462 735.638 520.811 735.947C520.811 735.947 524.483 737.58 524.429 737.781L669.692 809.785C705.745 826.148 747.536 835.616 782.56 822.731C783.785 822.194 785.158 821.914 786.329 821.579C800.945 817.063 816.138 814.431 831.8 814.087C832.956 814.613 906.529 811.193 908.964 810.98C912.463 810.837 1071.65 796.193 1074.69 796.143C1077.53 796.039 1215.61 791.527 1215.81 794.823C1216.1 798.577 1401.01 793.638 1401.25 797.594C1417.57 797.21 1433.89 800.069 1449.29 806.357C1451.8 807.463 1454.52 808.623 1457.03 809.729C1457.3 811.963 1550.41 851.831 1552.52 852.829C1554.23 853.719 1633.84 885.862 1635.67 885.487C1636.33 885.448 1663.51 896.189 1664.11 896.352L1665.07 896.824L2039.41 1040.37" stroke="#F30EF6" stroke-opacity="0.2" stroke-miterlimit="10"/>
<path d="M-889.015 567.911L-296.107 418.678C-286.739 415.999 -277.855 411.894 -269.561 406.765C-234.285 384.866 -150.393 300.969 -134.033 313.352C-132.931 314.08 -100.9 340.608 -100.107 341.685L31.1829 455.349C31.7737 456.373 62.6086 481.715 63.5092 482.389C66.7084 484.976 170.28 565.7 174.063 563.687C174.319 563.539 179.669 567.783 179.925 567.636L283.779 637.624C309.898 657.163 347.492 666.156 379.128 673.984C386.042 675.62 395.15 676.331 401.685 679.379C401.941 679.232 408.126 681.97 408.382 681.822C408.894 681.527 424.991 688.435 425.65 688.395C427.79 687.671 491.464 715.543 493.428 716.286C494.235 716.502 517.162 726.97 517.861 727.589C518.063 727.643 521.532 729.222 521.478 729.423L665.852 803.135C701.152 819.079 743.722 830.486 777.923 818.245C779.148 817.709 780.521 817.428 781.692 817.093C796.456 812.833 811.541 810.605 827.001 810.207C828.507 811.043 901.219 807.607 904.259 807.557C908.82 807.482 1065.45 791.073 1069.61 790.89C1073.31 790.801 1209.66 787.12 1209.99 791.533C1210.41 796.404 1391.54 793.478 1391.86 798.752C1407.81 798.92 1423.82 802.128 1439.02 808.362C1441.53 809.468 1444.05 810.574 1446.71 811.936C1447.16 815.085 1538.81 854.776 1541.67 856.192C1543.99 857.244 1622.59 889.117 1625.13 888.501C1626.05 888.314 1652.82 898.948 1653.68 898.962L1654.64 899.434L2030.45 1039.91" stroke="#F30EF6" stroke-opacity="0.2" stroke-miterlimit="10"/>
<path d="M-889.144 563.552L-301.255 414.488C-291.887 411.809 -283.003 407.704 -274.709 402.575C-238.773 380.637 -155.368 298.555 -138.457 311.302C-137.207 312.286 -105.471 338.302 -104.585 339.837L25.7212 454.751C26.4597 456.03 56.7433 481.009 57.9934 481.992C62.0932 485.253 164.631 564.187 169.384 561.784C169.639 561.637 175.043 565.679 175.097 565.477L279.412 632.13C304.98 651.305 344.07 658.752 374.899 666.364C381.611 667.947 391.23 668.362 397.617 671.155C397.873 671.007 404.113 673.544 404.369 673.396C404.881 673.101 421.032 679.807 421.543 679.511C424.141 678.694 487.116 705.946 489.685 706.851C490.693 707.121 513.419 717.535 514.118 718.154C514.32 718.208 517.735 719.988 517.735 719.988L661.219 795.407C695.711 811.135 738.912 824.224 772.696 812.737C773.867 812.402 775.239 812.121 776.41 811.786C791.067 807.93 806.152 805.701 821.705 805.761C823.614 806.705 895.155 803.604 899.057 803.569C904.735 803.361 1058.81 785.186 1064.08 784.87C1068.9 784.647 1203.41 782.203 1203.87 787.732C1204.17 793.867 1381.72 793.009 1382.11 799.601C1397.76 800.118 1413.66 803.73 1428.35 810.259C1430.86 811.365 1433.32 812.673 1435.78 813.981C1436.27 817.789 1526.6 857.559 1530.07 859.138C1532.94 860.554 1610.64 891.752 1613.9 890.895C1615.01 890.762 1641.44 901.086 1642.5 901.155C1642.5 901.155 1643.46 901.627 1643.51 901.425L2020.79 1038.84" stroke="#F30EF6" stroke-opacity="0.2" stroke-miterlimit="10"/>
<path d="M-889.072 559.247L-306.403 410.298C-297.035 407.619 -288.151 403.513 -279.655 398.439C-242.804 376.313 -160.289 295.939 -142.881 309.252C-141.281 310.545 -110.097 336.198 -109.063 337.989L20.5154 454.005C21.4016 455.539 51.2817 480.41 52.7336 481.448C57.5323 485.328 159.184 562.727 164.96 559.734C165.216 559.586 170.472 563.373 170.728 563.225L275.45 626.744C300.467 645.555 340.85 651.403 371.073 658.853C377.785 660.435 387.768 660.299 393.9 663.24C394.156 663.092 400.396 665.629 400.652 665.481C401.419 665.038 417.167 671.636 417.88 671.395C420.989 670.282 483.211 697.116 486.184 698.129C487.34 698.655 509.717 708.759 510.617 709.432C510.819 709.487 514.234 711.267 514.234 711.267L656.828 788.393C690.568 803.703 734.344 818.676 767.563 807.686C768.733 807.351 770.106 807.07 771.277 806.735C785.879 803.08 801.058 801.31 816.557 801.571C819.018 802.879 889.496 799.71 894.057 799.635C900.999 799.549 1052.37 779.353 1058.51 779.052C1064.19 778.843 1197.1 777.486 1197.5 784.079C1197.93 791.33 1371.7 792.485 1372.17 800.396C1387.45 801.465 1403.04 805.425 1417.47 812.102C1419.99 813.209 1422.45 814.517 1424.85 816.026C1425.54 820.749 1514.45 860.141 1518.62 862.339C1522.03 864.119 1598.84 894.644 1602.75 893.747C1604.12 893.466 1630.15 903.682 1631.61 903.859L1632.62 904.129L2011.37 1038.48" stroke="#F30EF6" stroke-opacity="0.2" stroke-miterlimit="10"/>
<path d="M-889.054 555.144L-311.457 406.565C-302.036 403.685 -292.95 399.633 -284.71 394.706C-247.2 372.541 -165.171 293.982 -147.212 307.659C-145.41 309.007 -114.63 334.551 -113.448 336.597L15.3487 453.918C16.3286 455.91 45.9133 480.269 47.5128 481.563C53.2122 486.117 153.776 561.927 160.319 558.491C160.575 558.343 165.831 562.13 166.141 561.78L271.472 622.219C295.938 640.666 337.615 644.915 367.233 652.202C373.743 653.731 384.238 653.299 390.424 656.038C390.679 655.89 396.772 658.171 397.229 658.078C397.997 657.635 413.596 663.977 414.565 663.588C418.132 662.382 479.656 688.596 483.233 689.771C484.591 690.351 506.564 700.347 507.613 701.276C507.814 701.33 511.028 703.056 511.23 703.11L652.934 781.944C685.92 796.836 730.273 813.694 762.872 803.402C764.042 803.067 765.415 802.786 766.586 802.451C781.282 799.254 796.205 797.631 811.906 797.946C814.77 799.362 884.077 796.528 889.499 796.467C897.558 796.249 1046.38 774.288 1053.57 774.054C1060.11 773.861 1191.24 773.537 1191.77 781.247C1192.28 789.817 1362.32 792.783 1363.07 802.067C1378.05 803.484 1393.33 807.795 1407.45 814.821C1409.91 816.129 1412.17 817.383 1414.63 818.691C1415.35 824.073 1502.74 863.49 1507.72 865.904C1511.74 867.846 1587.58 897.899 1592.01 896.707C1593.59 896.48 1619.31 906.185 1620.98 906.415L1621.99 906.686L2002.21 1037.97" stroke="#F30EF6" stroke-opacity="0.2" stroke-miterlimit="10"/>
<path d="M-889.183 550.785L-316.605 402.375C-307.184 399.494 -298.097 395.443 -289.858 390.516C-251.634 368.109 -170.146 291.568 -151.636 305.609C-149.687 307.212 -119.255 332.447 -117.926 334.749L10.0889 453.373C11.2165 455.621 40.25 479.616 42.199 481.22C48.5973 486.393 148.275 560.669 155.841 556.642C156.299 556.548 161.407 560.079 161.717 559.73L267.51 616.833C291.478 634.715 334.394 637.566 363.407 644.691C369.716 646.165 380.776 645.237 386.76 647.921C387.07 647.572 393.108 650.055 393.418 649.705C394.441 649.115 409.894 655.201 410.863 654.812C414.941 653.31 475.766 678.905 479.693 680.39C481.051 680.97 503.024 690.966 504.274 691.949C504.475 692.003 507.689 693.729 507.837 693.985L648.503 774.27C680.682 788.946 725.666 807.486 757.645 797.893C758.816 797.558 760.134 797.479 761.305 797.144C775.947 794.149 790.963 792.983 806.409 793.446C809.622 795.172 878.014 792.525 884.096 792.425C893.218 792.275 1039.54 768.347 1047.85 767.98C1055.3 767.599 1184.79 768.565 1185.45 777.391C1186.1 787.078 1352.35 792.058 1353.18 802.66C1368 804.683 1382.82 809.087 1396.63 816.462C1399.09 817.77 1401.35 819.024 1403.75 820.534C1404.71 826.629 1490.59 866.071 1496.32 868.903C1500.89 871.209 1575.63 900.534 1580.92 899.357C1582.75 898.983 1608.28 908.633 1609.95 908.864L1610.95 909.134L1992.84 1037.41" stroke="#F30EF6" stroke-opacity="0.2" stroke-miterlimit="10"/>
<path d="M-889.111 546.48L-321.754 398.185C-312.332 395.304 -303.246 391.253 -294.804 386.38C-255.72 363.988 -174.866 289.006 -155.858 303.613C-153.506 305.324 -123.68 330.397 -122.203 332.954L5.08448 452.681C6.35973 455.185 34.9897 479.072 37.1405 480.729C44.4394 486.577 143.029 559.263 151.565 554.848C152.076 554.552 157.185 558.083 157.441 557.935L263.64 611.905C287.058 629.422 331.267 630.674 359.675 637.637C365.782 639.057 377.408 637.632 383.19 640.262C383.702 639.967 389.592 642.194 389.848 642.046C390.871 641.456 406.176 647.286 407.346 646.951C411.882 645.356 472.008 670.331 476.54 671.978C478.1 672.612 499.67 682.5 501.121 683.537C501.323 683.591 504.537 685.317 504.684 685.573L644.461 767.566C675.887 781.824 721.649 802.302 753.008 793.408C754.179 793.073 755.497 792.994 756.668 792.659C771.404 790.121 786.366 789.157 801.757 789.822C805.374 791.656 872.851 789.196 879.592 789.056C890.033 788.827 1033.8 763.133 1042.97 762.781C1051.49 762.469 1179.04 764.213 1179.83 774.156C1180.56 785.161 1343.08 791.953 1343.94 804.075C1358.44 806.447 1372.9 811.402 1386.45 818.925C1388.71 820.179 1391.12 821.689 1393.32 823.144C1394.27 830.101 1478.88 869.42 1485.21 872.414C1490.39 874.883 1564.18 903.736 1570.13 902.519C1572.16 902.198 1597.34 911.539 1599.21 911.824L1600.21 912.094L1983.57 1037.3" stroke="#F30EF6" stroke-opacity="0.2" stroke-miterlimit="10"/>
<path d="M-889.038 542.176L-326.754 394.251C-317.333 391.37 -308.246 387.318 -299.805 382.445C-260.007 359.812 -179.693 286.848 -160.282 301.562C-157.782 303.529 -128.305 328.292 -126.681 331.106L-0.377304 452.082C1.04564 454.842 29.3262 478.419 31.6247 480.332C39.6225 486.8 137.326 557.951 146.885 552.945C147.396 552.65 152.303 556.127 152.815 555.831L259.422 606.666C282.086 623.766 327.791 623.472 355.392 630.219C361.498 631.639 373.434 629.865 379.015 632.441C379.527 632.146 385.215 634.319 385.727 634.023C387.006 633.285 401.907 639.007 403.334 638.525C408.583 636.688 467.754 661.191 472.689 662.946C474.451 663.635 495.617 673.414 497.271 674.506C497.418 674.761 500.686 676.286 500.834 676.541L639.72 760.241C670.595 774.136 716.731 796.444 747.471 788.248C748.641 787.913 749.96 787.834 751.077 787.701C765.759 785.365 780.613 784.805 796.206 785.523C800.226 787.466 866.532 785.341 874.336 785.27C885.839 785.109 1027.1 757.448 1037.34 757.165C1046.72 756.867 1172.68 759.698 1173.4 770.704C1174.26 782.826 1333 791.631 1333.94 805.071C1348.08 807.995 1362.48 813.151 1375.58 820.768C1377.84 822.022 1380.04 823.478 1382.39 825.189C1383.58 832.859 1466.52 871.948 1473.61 875.36C1479.34 878.192 1552.23 906.371 1558.89 904.913C1560.98 904.391 1585.95 913.677 1588.08 913.814L1589.09 914.085L1973.86 1036.43" stroke="#F30EF6" stroke-opacity="0.2" stroke-miterlimit="10"/>
<path d="M-888.966 537.87L-331.701 390.114C-322.279 387.234 -313.193 383.182 -304.549 378.363C-264.092 355.691 -184.265 284.542 -164.303 299.62C-161.399 301.695 -132.474 326.094 -130.755 329.365L-5.23377 451.646C-3.66312 454.661 24.0663 477.874 26.7142 480.097C35.6127 487.238 132.228 556.801 142.608 551.15C143.12 550.855 148.081 554.13 148.592 553.835L255.661 601.334C277.774 618.07 324.974 616.231 351.768 622.762C357.673 624.128 370.174 621.856 375.553 624.378C376.065 624.083 381.808 626.054 382.319 625.759C383.598 625.021 398.351 630.487 399.778 630.005C405.485 628.074 463.957 651.958 469.498 653.875C471.461 654.617 492.426 664.343 494.025 665.636C494.173 665.892 497.44 667.416 497.588 667.672L635.585 753.079C665.653 766.758 712.419 790.748 742.593 783.049C743.764 782.715 745.028 782.837 746.401 782.556C761.176 780.678 776.03 780.117 791.515 781.239C795.885 783.491 861.276 781.554 869.793 781.241C882.414 780.947 1021.12 751.521 1032.48 751.105C1042.72 750.821 1167.09 754.741 1167.74 766.809C1168.68 780.25 1323.64 791.068 1324.71 805.625C1338.54 808.898 1352.58 814.606 1365.42 822.37C1367.62 823.826 1369.83 825.281 1372.03 826.737C1373.21 835.268 1454.88 874.234 1462.72 878.064C1469.06 881.058 1540.99 908.765 1548.31 907.268C1550.6 906.8 1575.23 915.776 1577.75 916.021L1578.76 916.292L1965.01 1035.57" stroke="#F30EF6" stroke-opacity="0.2" stroke-miterlimit="10"/>
<path d="M-889.15 533.713L-337.104 386.072C-327.427 383.043 -318.542 378.938 -309.953 374.32C-268.635 351.663 -189.644 282.019 -168.983 297.717C-165.931 300.049 -137.355 324.138 -135.489 327.665L-10.6954 451.047C-8.97701 454.318 18.3488 477.424 21.1985 479.701C30.7959 487.461 126.58 555.288 137.875 549.45C138.386 549.154 143.401 552.228 143.913 551.932L251.389 596.298C273.004 612.468 321.444 609.231 347.632 615.6C353.336 616.912 366.147 614.291 371.58 616.611C372.092 616.316 377.834 618.287 378.346 617.992C379.827 617.307 394.432 622.518 395.913 621.834C402.132 619.608 459.85 643.074 465.795 645.099C467.96 645.896 488.521 655.513 490.524 656.914C490.873 657.224 493.939 658.694 494.087 658.95L631.247 745.863C660.563 759.123 708.107 785.052 737.459 777.998C738.63 777.663 739.895 777.786 741.214 777.707C755.935 776.03 770.681 775.873 786.166 776.995C790.939 779.355 855.213 777.551 864.537 777.455C878.22 777.229 1014.43 745.836 1026.65 745.434C1038 745.017 1160.32 750.118 1161.32 763.357C1162.34 778.116 1313.76 790.8 1314.71 806.622C1328.18 810.446 1341.96 816.301 1354.49 824.415C1356.7 825.871 1358.85 827.528 1361.05 828.984C1362.47 838.228 1442.62 877.219 1451.07 881.211C1457.95 884.569 1528.99 911.603 1536.77 910.012C1539.31 909.396 1563.59 918.062 1566.32 918.362L1567.33 918.632L1955.04 1034.84" stroke="#F30EF6" stroke-opacity="0.2" stroke-miterlimit="10"/>
<path d="M-889.077 529.408L-342.105 382.138C-332.428 379.109 -323.543 375.003 -314.954 370.386C-272.922 347.487 -194.471 279.861 -173.259 295.923C-169.858 298.564 -141.833 322.289 -139.82 326.072L-15.8079 450.758C-13.9418 454.285 13.0346 477.081 16.032 479.614C26.5301 488.048 121.226 554.286 133.544 547.857C134.056 547.561 139.07 550.635 139.636 550.138L247.519 591.369C268.584 607.175 318.371 602.138 343.9 608.546C349.603 609.858 362.779 606.685 367.956 609.154C368.467 608.858 374.062 610.574 374.776 610.332C376.311 609.446 390.714 614.603 392.397 613.973C399.073 611.654 456.147 634.298 462.643 636.687C465.01 637.538 485.369 647.101 487.372 648.502C487.721 648.812 490.787 650.282 490.935 650.538L627.205 739.159C655.767 752.001 704.09 779.868 732.823 773.513C733.993 773.178 735.258 773.3 736.577 773.221C751.391 772.002 766.084 772.047 781.514 773.371C786.637 776.041 849.996 774.423 859.979 774.288C874.981 773.983 1008.43 740.77 1021.71 740.437C1033.93 740.035 1154.66 746.223 1155.59 760.525C1156.74 776.401 1304.39 791.098 1305.42 808.238C1318.51 812.613 1332.04 818.616 1344.26 827.08C1346.47 828.535 1348.42 830.139 1350.57 831.796C1351.97 841.901 1430.91 880.567 1440.06 885.18C1447.49 888.902 1517.63 915.261 1526.12 913.429C1528.86 912.867 1552.79 921.224 1555.72 921.577C1555.93 921.631 1556.73 921.848 1556.73 921.848L1946.12 1035.05" stroke="#F30EF6" stroke-opacity="0.2" stroke-miterlimit="10"/>
<path d="M-889.005 525.104L-347.253 377.947C-337.576 374.919 -328.489 370.867 -319.9 366.25C-277.008 343.365 -199.245 277.501 -177.482 293.927C-173.879 296.622 -146.258 320.239 -144.096 324.277L-20.8664 450.268C-18.8526 454.05 7.51858 476.684 10.9195 479.325C22.1705 488.177 115.926 553.082 129.213 546.264C129.927 546.023 134.592 548.786 135.359 548.343L243.65 586.441C264.163 601.883 315.244 595.246 340.168 601.492C345.669 602.75 359.356 599.282 364.588 601.549C365.153 601.052 370.694 602.969 371.462 602.526C373.198 601.694 387.252 606.541 389.191 605.763C396.378 603.148 452.699 625.374 459.599 627.872C462.167 628.776 482.123 638.231 484.328 639.687C484.677 639.997 487.743 641.467 487.837 641.924L623.015 732.198C650.771 744.824 701.157 779.514 727.836 768.717C728.953 768.584 730.218 768.707 731.537 768.628C746.297 767.61 761.083 768.112 776.46 769.638C781.986 772.416 844.228 770.932 855.072 770.811C871.137 770.575 1002.04 735.596 1016.49 734.928C1029.56 734.541 1148.56 741.561 1149.62 756.98C1150.85 774.174 1294.77 790.683 1296.02 809.397C1308.81 814.121 1321.98 820.676 1333.94 829.287C1336.15 830.743 1338.04 832.548 1340.19 834.205C1341.83 845.023 1419.06 883.661 1429.01 888.489C1437.05 892.373 1506.23 918.261 1515.38 916.389C1518.38 915.68 1541.9 923.928 1545.04 924.336C1545.24 924.39 1546.05 924.606 1546.05 924.606L1936.9 1034.74" stroke="#F30EF6" stroke-opacity="0.2" stroke-miterlimit="10"/>
<path d="M-889.134 520.745L-352.401 373.757C-342.724 370.729 -333.637 366.677 -325.048 362.06C-281.442 338.934 -204.22 275.087 -182.107 291.822C-178.155 294.827 -151.085 318.08 -148.776 322.375L-26.4755 449.413C-24.3141 453.452 1.7076 475.775 5.25619 478.672C17.4079 488.198 110.075 551.514 124.184 544.052C124.952 543.609 129.563 546.574 130.33 546.131L239.082 580.892C259.045 595.971 311.419 587.734 335.737 593.818C341.037 595.022 355.29 591.057 360.319 593.27C361.087 592.827 366.48 594.488 367.193 594.247C368.984 593.213 382.89 597.804 384.976 597.282C392.622 594.574 448.042 616.127 455.748 618.84C458.519 619.799 478.071 629.146 480.423 630.857C480.773 631.167 483.637 632.583 483.932 633.094L618.221 725.076C645.223 737.284 696.536 774.168 722.246 763.76C723.309 763.828 724.627 763.749 725.946 763.67C740.8 763.11 755.33 763.76 770.707 765.286C776.583 768.374 837.909 767.077 849.413 766.916C866.595 766.547 994.939 729.803 1010.45 729.203C1024.65 728.683 1141.8 736.938 1142.99 753.474C1144.15 771.731 1284.49 790.307 1285.82 810.34C1298.45 815.669 1311.36 822.371 1322.81 831.278C1324.76 832.881 1326.91 834.538 1328.81 836.343C1330.49 847.821 1406.39 886.537 1417.15 891.582C1425.74 895.83 1493.97 921.246 1503.89 918.931C1507.09 918.276 1530.46 926.269 1533.65 926.474C1533.85 926.528 1534.66 926.745 1534.66 926.745L1926.99 1033.81" stroke="#F30EF6" stroke-opacity="0.2" stroke-miterlimit="10"/>
<path d="M-889.062 516.44L-357.402 369.823C-347.724 366.794 -338.638 362.743 -329.847 358.179C-285.582 335.014 -208.792 272.781 -186.182 290.082C-182.028 293.141 -155.362 316.286 -152.905 320.836L-31.3862 449.179C-29.0771 453.473 -3.60652 475.432 0.291516 478.639C13.1421 488.785 104.923 550.566 120.055 542.513C120.823 542.07 125.488 544.833 126.256 544.39L235.617 576.072C255.082 590.585 308.695 580.951 332.408 586.872C337.506 588.022 352.325 583.56 357.098 585.921C357.866 585.478 363.057 587.085 363.825 586.642C365.817 585.662 379.576 589.998 381.514 589.22C389.873 586.27 444.339 607.351 452.65 610.226C455.622 611.239 475.027 620.33 477.527 622.297C477.876 622.607 480.74 624.023 481.036 624.535L614.489 718.022C640.684 730.014 692.72 769.037 717.717 758.871C718.78 758.939 720.098 758.86 721.363 758.983C736.163 758.624 750.787 759.732 766.11 761.459C772.591 764.709 832.746 763.747 844.909 763.547C863.154 763.247 988.998 724.536 1005.57 724.004C1020.63 723.498 1136.19 732.842 1137.32 750.44C1138.56 770.015 1275.11 790.605 1276.58 811.754C1288.9 817.433 1301.44 824.686 1312.69 833.539C1314.64 835.142 1316.54 836.947 1318.69 838.604C1320.56 850.997 1395.05 889.335 1406.3 894.945C1415.5 899.356 1482.77 924.299 1493.35 921.945C1496.81 921.142 1519.78 929.027 1523.37 929.34C1523.57 929.394 1524.38 929.611 1524.38 929.611L1918.18 1033.61" stroke="#F30EF6" stroke-opacity="0.2" stroke-miterlimit="10"/>
<path d="M-889.044 512.337L-362.402 365.888C-352.725 362.86 -343.584 358.606 -334.847 354.245C-289.721 331.094 -213.62 270.622 -190.458 288.287C-186.157 291.602 -159.786 314.236 -157.235 319.243L-36.4986 448.89C-34.0417 453.44 -8.97474 475.291 -4.87495 478.552C8.87629 489.372 99.7713 549.618 115.671 541.122C116.438 540.679 121.158 543.241 121.723 542.744L231.492 571.291C250.405 585.44 305.514 574.261 328.219 579.912C333.317 581.062 348.445 576.251 353.071 578.355C353.838 577.912 359.084 579.318 359.851 578.875C361.898 577.693 375.455 581.975 377.595 581.251C386.411 578.208 440.232 598.467 448.893 601.652C452.067 602.719 471.068 611.702 473.77 613.723C474.119 614.033 476.983 615.449 477.279 615.961L609.841 711.155C635.284 722.729 687.99 764.094 712.529 754.021C713.592 754.09 714.857 754.213 716.175 754.133C731.069 754.232 748.5 748.092 760.961 757.269C767.064 761.931 826.885 759.799 839.909 759.613C859.472 759.233 982.762 718.757 1000.25 718.038C1016.17 717.546 1129.94 727.924 1131.2 746.638C1132.57 767.331 1265.34 789.933 1266.89 812.402C1278.84 818.632 1291.13 826.032 1302.07 835.234C1304.02 836.838 1305.92 838.643 1307.81 840.448C1309.72 853.499 1382.9 891.917 1394.76 897.689C1404.5 902.463 1470.87 926.733 1481.91 924.285C1485.57 923.536 1508.25 930.909 1511.99 931.479C1512.19 931.533 1512.99 931.749 1512.99 931.749L1908.26 1032.69" stroke="#F30EF6" stroke-opacity="0.2" stroke-miterlimit="10"/>
<path d="M-889.173 507.978L-367.752 361.644C-358.021 358.414 -348.934 354.362 -340.197 350.001C-294.358 326.608 -218.999 268.1 -195.084 286.183C-190.433 289.808 -164.613 312.077 -161.915 317.34L-41.6504 447.942C-39.0459 452.747 -14.3283 474.289 -10.0809 477.806C4.36929 489.245 94.3781 547.957 111.301 538.87C112.068 538.427 116.586 540.934 117.408 540.29L227.637 565.501C246 579.286 302.402 566.508 324.501 571.997C329.343 573.294 345.091 567.785 349.515 569.835C350.283 569.392 355.528 570.797 356.296 570.354C358.544 569.227 371.752 573.199 374.148 572.327C383.421 569.19 436.543 588.83 445.81 592.177C449.131 593.5 467.782 602.173 470.632 604.45C470.981 604.76 473.846 606.176 474.141 606.688L605.814 703.59C630.503 714.745 683.934 758.251 707.705 748.621C708.768 748.689 710.033 748.812 711.352 748.733C726.191 749.034 743.662 743.553 756.123 752.729C762.63 757.5 821.481 755.756 835.164 755.531C855.79 755.22 976.58 712.776 994.932 712.072C1011.97 711.447 1123.95 722.858 1125.28 742.891C1126.74 764.902 1255.78 789.316 1257.35 813.305C1268.99 819.884 1280.92 827.836 1291.6 837.185C1293.55 838.789 1295.39 840.795 1297.29 842.601C1299.39 856.567 1370.89 894.754 1383.71 900.998C1394.01 906.137 1459.47 929.733 1471.22 927.043C1475.14 926.147 1497.41 933.412 1501.41 933.834C1501.61 933.888 1502.42 934.104 1502.42 934.104L1899.35 1032.03" stroke="#F30EF6" stroke-opacity="0.2" stroke-miterlimit="10"/>
<path d="M-889.101 503.673L-372.752 357.71C-363.021 354.48 -353.733 350.482 -344.996 346.12C-298.295 322.743 -223.57 265.794 -199.361 284.389C-194.508 288.067 -169.091 310.229 -166.191 315.546L-46.9645 447.599C-44.2122 452.661 -20.0459 473.838 -15.449 477.665C-0.0981532 489.778 88.8768 546.699 106.715 537.425C107.684 537.036 112.054 539.288 112.875 538.643L223.512 560.721C241.323 574.142 299.019 559.764 320.567 564.889C325.208 566.133 341.266 560.273 345.69 562.324C346.511 561.679 351.555 563.03 352.524 562.641C354.826 561.312 368.034 565.284 370.43 564.412C380.215 560.98 432.584 580.202 442.254 583.657C445.777 585.034 464.227 593.653 467.077 595.93C467.628 596.294 470.236 597.858 470.586 598.168L601.368 696.777C625.453 707.771 679.405 753.362 702.464 743.973C703.526 744.042 704.791 744.164 706.056 744.287C720.989 745.045 738.15 739.914 750.611 749.091C757.467 754.171 815.202 752.56 829.8 752.147C851.543 751.703 969.778 707.494 989.193 706.859C1007.09 706.248 1117.28 718.693 1118.8 739.641C1120.39 762.769 1245.65 789.196 1247.3 814.503C1258.58 821.634 1270.25 829.733 1280.62 839.432C1282.52 841.237 1284.21 842.988 1286.05 844.995C1288.19 859.621 1358.43 897.685 1371.79 904.293C1382.9 909.648 1447.21 932.718 1459.62 929.989C1463.74 929.146 1485.66 936.101 1489.86 936.577C1490.06 936.631 1490.87 936.848 1490.87 936.848L1889.28 1031.71" stroke="#F30EF6" stroke-opacity="0.2" stroke-miterlimit="10"/>
<path d="M-889.029 499.368L-377.901 353.52C-368.169 350.289 -358.881 346.292 -350.144 341.93C-302.784 318.513 -228.546 263.38 -203.785 282.338C-198.583 286.327 -173.717 308.124 -170.67 313.698L-52.3725 446.798C-49.4725 452.116 -25.7097 473.186 -20.911 477.066C-4.65951 489.853 83.2274 545.185 101.887 535.266C102.91 534.676 107.28 536.928 108.102 536.283L219.146 555.226C236.46 568.082 295.395 552.307 316.338 557.269C320.776 558.459 337.4 552.103 341.824 554.153C342.646 553.508 347.689 554.86 348.713 554.269C351.217 552.994 364.075 556.655 366.727 555.636C376.969 552.111 428.64 570.712 438.915 574.33C442.64 575.761 460.686 584.272 463.939 586.657C464.49 587.021 467.098 588.585 467.448 588.895L597.193 688.956C620.524 699.531 675.403 747.317 697.492 738.317C698.555 738.385 699.765 738.71 701.084 738.631C715.963 739.59 733.163 735.118 745.679 744.093C752.938 749.282 809.758 747.858 825.163 747.662C848.171 747.34 963.704 701.11 984.236 700.341C1002.99 699.745 1111.59 713.278 1113.05 735.289C1114.71 759.735 1236.24 787.974 1238.18 814.653C1249.15 822.133 1260.65 830.838 1270.57 840.631C1272.47 842.436 1274.1 844.388 1276 846.193C1278.32 861.734 1347.1 899.622 1361.27 906.446C1372.93 912.165 1436.34 934.561 1449.41 931.792C1453.78 930.802 1475.3 937.649 1479.75 937.977C1479.96 938.032 1480.76 938.248 1480.76 938.248L1880.64 1030.04" stroke="#F30EF6" stroke-opacity="0.2" stroke-miterlimit="10"/>
<path d="M-888.957 495.063L-382.847 349.383C-373.116 346.153 -363.827 342.156 -354.889 337.848C-306.614 314.244 -233.117 261.074 -207.751 280.195C-202.347 284.237 -177.886 305.926 -174.69 311.755L-57.1747 446.16C-54.1811 451.935 -30.7137 472.493 -25.7133 476.428C-8.7629 489.834 78.2379 543.632 97.9205 533.122C98.9437 532.532 103.112 534.73 104.135 534.139L215.587 549.949C232.35 562.44 292.632 544.864 312.916 549.866C317.354 551.056 334.288 544.35 338.564 546.144C339.588 545.554 344.484 546.649 345.453 546.26C347.957 544.986 360.721 548.19 363.319 547.372C374.073 543.551 424.991 561.735 435.615 565.663C439.542 567.147 457.386 575.604 460.639 577.989C461.191 578.353 463.799 579.917 464.094 580.429L592.95 682.197C615.528 692.355 671.076 742.482 692.654 733.777C693.663 734.048 694.927 734.17 696.192 734.293C711.165 735.71 728.055 731.587 740.772 740.617C748.381 746.115 804.084 744.824 820.351 744.643C844.475 744.188 957.454 696.192 979.049 695.492C998.72 694.709 1105.48 709.477 1107.06 732.604C1108.81 758.369 1226.56 788.621 1228.62 816.418C1239.43 824.503 1250.48 833.301 1260.09 843.443C1261.78 845.194 1263.62 847.201 1265.26 849.153C1267.62 865.354 1334.88 903.266 1349.8 910.509C1362.07 916.389 1424.52 938.313 1438.3 935.303C1442.88 934.367 1464.05 940.904 1468.91 941.341C1469.11 941.395 1469.91 941.611 1469.91 941.611L1871.26 1030.34" stroke="#F30EF6" stroke-opacity="0.2" stroke-miterlimit="10"/>
<path d="M-889.14 490.906L-388.103 345.597C-378.372 342.367 -369.03 338.167 -360.145 334.062C-311.211 310.417 -238.201 259.063 -212.283 278.548C-206.53 282.9 -182.62 304.226 -179.277 310.31L-62.5428 446.019C-59.1998 452.104 -36.4853 472.244 -31.1354 476.489C-13.2844 490.569 72.6284 542.778 93.2802 531.879C94.3034 531.288 98.5258 533.285 99.549 532.694L211.462 545.168C227.472 557.241 289.25 538.12 308.928 542.96C313.165 544.095 330.664 536.893 334.684 538.835C335.708 538.244 340.402 539.286 341.627 538.749C344.387 537.326 356.748 540.422 359.601 539.457C370.813 535.543 421.086 552.905 432.261 557.197C436.188 558.681 453.831 567.084 457.232 569.725C457.783 570.089 460.391 571.653 460.687 572.164L588.652 675.64C610.423 685.582 666.75 737.647 687.614 729.184C688.623 729.454 689.887 729.577 691.152 729.699C706.071 731.318 723.001 727.855 735.718 736.884C743.73 742.49 798.464 741.589 815.444 741.166C840.631 740.78 951.109 690.816 973.767 690.185C994.501 689.471 1099.47 705.272 1101.19 729.517C1103.07 756.398 1217.03 788.663 1219.18 817.778C1229.67 826.213 1240.36 835.562 1249.71 845.852C1251.35 847.805 1252.99 849.757 1254.83 851.764C1257.43 868.678 1323.17 906.615 1338.9 914.074C1351.72 920.318 1413.27 941.569 1427.51 938.465C1432.34 937.381 1453.36 943.663 1458.17 944.301C1458.37 944.355 1459.17 944.571 1459.17 944.571L1861.99 1030.24" stroke="#F30EF6" stroke-opacity="0.2" stroke-miterlimit="10"/>
<path d="M-889.068 486.601L-393.05 341.461C-383.318 338.23 -373.976 334.031 -365.091 329.925C-315.296 306.296 -242.921 256.501 -216.506 276.551C-210.605 281.16 -186.99 301.973 -183.553 308.516L-67.5472 445.327C-64.0565 451.668 -41.7455 471.7 -36.1939 475.998C-17.6439 490.698 67.3826 541.372 89.0576 529.883C90.0809 529.292 94.3573 531.087 95.3805 530.496L207.7 539.836C223.159 551.545 286.433 530.878 305.304 535.503C309.339 536.584 327.404 528.884 331.222 530.772C332.246 530.181 336.994 531.021 338.017 530.431C340.777 529.008 353.192 531.902 356.046 530.937C367.971 526.781 417.289 543.671 428.868 548.071C432.996 549.61 450.235 557.905 453.838 560.6C454.389 560.964 456.998 562.527 457.293 563.039L584.368 668.222C605.386 677.746 662.383 732.153 682.534 723.931C683.543 724.201 684.753 724.525 686.018 724.648C701.03 726.725 717.704 723.409 730.422 732.438C738.783 738.354 792.454 737.384 810.241 737.177C836.545 736.658 944.469 684.929 968.244 684.165C989.839 683.465 1093.27 700.152 1094.87 725.661C1096.83 753.861 1207.26 787.992 1209.23 818.573C1219.37 827.559 1229.79 837.056 1238.89 847.493C1240.53 849.446 1242.17 851.398 1243.75 853.553C1246.34 871.327 1310.87 908.94 1327.1 916.965C1340.52 923.372 1401.12 944.15 1416.07 940.805C1421.1 939.775 1441.78 945.747 1446.83 946.238C1447.04 946.292 1447.84 946.508 1448.05 946.562L1852.48 1029.42" stroke="#F30EF6" stroke-opacity="0.2" stroke-miterlimit="10"/>
<path d="M-888.995 482.296L-398.252 337.472C-388.467 334.04 -378.977 330.097 -370.092 325.991C-319.583 302.12 -247.748 254.343 -220.984 274.703C-214.881 279.365 -191.67 300.071 -188.085 306.869L-72.8613 444.984C-69.2228 451.581 -47.2613 471.303 -41.562 475.857C-22.1114 491.231 61.8273 540.316 84.3238 528.182C85.5487 527.645 89.6234 529.386 90.7007 528.593L203.63 534.853C218.591 545.997 283.104 523.933 301.168 528.341C305.203 529.422 323.578 521.373 327.249 523.005C328.326 522.212 333.021 523.254 334.044 522.663C337.06 521.093 349.071 523.879 352.18 522.766C364.563 518.517 413.182 534.788 425.366 539.35C429.697 540.942 446.734 549.183 450.538 551.932C451.09 552.296 453.496 553.806 453.993 554.371L580.179 661.262C600.444 670.368 658.111 727.116 677.548 719.135C678.557 719.406 679.767 719.73 681.032 719.853C695.991 722.131 712.704 719.474 725.421 728.504C734.187 734.528 786.888 733.947 805.334 733.7C832.903 733.304 938.273 679.809 962.963 678.858C985.473 677.971 1087.06 695.894 1088.85 722.317C1090.94 751.634 1197.59 787.778 1199.64 819.678C1209.46 829.013 1219.53 839.061 1228.37 849.646C1230.01 851.599 1231.59 853.753 1233.18 855.908C1236.01 874.396 1299.01 912.034 1315.85 920.22C1329.82 926.991 1389.32 947.041 1405.13 943.711C1410.42 942.534 1430.69 948.397 1435.95 948.942C1436.15 948.996 1436.96 949.212 1437.16 949.266L1843.06 1029.06" stroke="#F30EF6" stroke-opacity="0.2" stroke-miterlimit="10"/>
<path d="M-889.125 477.937L-403.4 333.282C-393.615 329.85 -384.125 325.906 -375.24 321.8C-323.87 297.944 -252.925 251.874 -225.408 272.652C-218.956 277.624 -196.296 297.966 -192.564 305.02L-78.3233 444.385C-74.5371 451.237 -53.1809 470.797 -47.0781 475.46C-26.9285 491.453 56.1239 539.004 79.5895 526.481C80.8145 525.944 84.7414 527.429 86.0205 526.691L199.411 529.614C213.821 540.395 279.628 516.731 297.087 520.977C300.92 522.004 319.86 513.457 323.329 515.036C324.407 514.243 328.953 515.029 330.178 514.492C333.194 512.922 345.058 515.452 348.369 514.394C361.263 509.849 409.129 525.702 421.717 530.372C426.249 532.019 442.883 540.151 446.889 542.954C447.44 543.318 449.847 544.828 450.344 545.393L575.693 653.79C595.152 662.679 653.798 721.42 672.468 713.882C673.477 714.152 674.688 714.477 675.898 714.801C690.95 717.537 707.354 715.23 720.327 724.111C729.644 730.499 781.282 729.85 800.388 729.564C829.073 729.034 931.889 673.774 957.44 672.837C981.013 672.019 1080.81 690.975 1082.73 718.516C1084.7 749.097 1187.82 787.107 1189.95 820.325C1199.41 830.211 1209.22 840.407 1217.75 851.341C1219.39 853.294 1220.77 855.394 1222.36 857.549C1225.17 876.898 1286.71 914.359 1304.5 923.018C1319.02 930.152 1377.62 949.529 1394.09 946.159C1399.58 945.036 1419.5 950.589 1424.97 951.188C1425.17 951.242 1425.97 951.458 1426.18 951.512L1833.55 1028.24" stroke="#F30EF6" stroke-opacity="0.2" stroke-miterlimit="10"/>
<path d="M-889.053 473.632L-408.347 329.146C-398.359 325.768 -389.071 321.77 -379.931 317.517C-327.902 293.621 -257.389 249.165 -229.375 270.509C-222.721 275.535 -200.666 295.714 -196.584 303.078L-83.0716 443.546C-79.1378 450.654 -58.1309 469.904 -51.8804 474.822C-30.8302 491.489 51.1883 537.249 75.6231 524.337C76.9021 523.599 80.8291 525.083 82.1081 524.345L195.906 524.135C209.765 534.551 276.865 509.288 293.718 513.372C297.35 514.345 316.802 505.503 320.069 507.027C321.348 506.289 325.693 507.021 326.973 506.282C330.244 504.564 341.704 506.987 345.271 505.78C358.623 501.142 405.844 516.173 418.983 521.207C423.717 522.908 439.947 530.932 444.101 533.991C444.854 534.409 447.059 535.865 447.556 536.431L571.814 646.48C590.519 654.952 649.836 716.034 667.792 708.738C668.747 709.21 669.957 709.534 671.222 709.657C686.22 712.594 702.663 710.946 715.637 719.828C725.357 726.324 775.824 726.009 795.791 725.738C825.539 725.277 925.855 668.05 952.523 666.979C976.957 666.175 1074.96 686.166 1077.01 714.823C1079.12 746.521 1178.4 786.746 1180.66 821.081C1189.81 831.316 1199.46 842.117 1207.54 853.145C1209.12 855.3 1210.5 857.4 1212.09 859.554C1215.15 879.617 1275.22 916.901 1293.56 925.924C1308.69 933.22 1366.33 952.125 1383.31 948.46C1389.06 947.189 1408.58 952.635 1414.29 953.085C1414.5 953.14 1415.3 953.356 1415.5 953.41L1824.35 1027.07" stroke="#F30EF6" stroke-opacity="0.2" stroke-miterlimit="10"/>
<path d="M-889.034 469.529L-413.603 325.359C-403.616 321.981 -394.327 317.984 -385.187 313.73C-332.297 289.849 -262.472 247.154 -233.907 268.862C-226.903 274.198 -205.399 294.014 -201.17 301.633L-88.4396 443.404C-84.3581 450.768 -63.7007 469.709 -57.3024 474.882C-35.5534 492.169 45.5789 536.395 70.9829 523.094C72.2619 522.356 76.1889 523.84 77.4679 523.102L191.673 519.758C204.981 529.81 273.374 502.948 289.623 506.869C293.052 507.788 312.868 498.395 316.338 499.973C317.617 499.235 322.016 499.765 323.241 499.229C326.512 497.511 338.026 499.731 341.392 498.471C355.255 493.537 401.723 508.15 415.468 513.346C420.403 515.101 436.486 522.87 440.585 526.131C441.338 526.549 443.543 528.004 443.986 528.771L567.354 640.529C585.306 648.582 645.347 711.804 662.59 704.749C663.545 705.221 664.755 705.546 665.966 705.87C681.058 709.265 697.191 707.967 710.164 716.848C720.234 723.654 769.787 723.527 790.467 723.014C821.533 722.474 919.093 663.427 946.824 662.425C972.119 661.636 1068.54 682.714 1070.52 712.434C1072.7 745.45 1168.26 787.487 1170.75 823.396C1179.53 834.183 1188.87 845.333 1196.69 856.509C1198.07 858.609 1199.6 860.965 1201.19 863.12C1204.28 883.841 1263.04 921.205 1282.18 930.444C1297.86 938.104 1354.55 956.537 1372.25 952.63C1378.2 951.414 1397.36 956.549 1403.49 957.108C1403.69 957.162 1404.49 957.379 1404.7 957.433L1815.01 1028.03" stroke="#F30EF6" stroke-opacity="0.2" stroke-miterlimit="10"/>
<path d="M-888.962 465.224L-418.549 321.223C-408.562 317.845 -399.22 313.646 -390.133 309.594C-336.328 285.525 -267.246 244.794 -238.331 266.811C-231.18 272.403 -210.025 291.909 -205.649 299.784L-93.6998 442.86C-89.4706 450.479 -69.4185 469.257 -62.6167 474.539C-39.967 492.5 40.0774 535.136 66.5046 521.245C67.7836 520.507 71.7646 521.79 73.0437 521.051L187.656 514.573C200.413 524.262 270.301 495.854 285.743 499.559C289.172 500.478 309.298 490.736 312.62 492.058C313.899 491.32 318.096 491.796 319.577 491.112C323.104 489.246 334.269 491.157 337.836 489.95C352.157 484.923 397.926 498.916 412.074 504.221C417.211 506.03 432.89 513.69 437.394 517.059C438.093 517.679 440.351 518.933 440.795 519.7L563.272 633.165C580.619 641.056 641.182 706.364 657.712 699.55C658.667 700.022 659.877 700.347 661.088 700.671C676.072 704.47 692.299 703.628 705.326 712.308C715.799 719.222 764.235 719.228 785.722 718.932C817.851 718.46 912.91 657.446 941.704 656.513C968.116 655.59 1062.74 677.702 1064.8 708.741C1067.12 742.874 1158.89 786.924 1161.46 824.151C1170.14 835.341 1178.97 846.787 1186.47 858.312C1187.86 860.412 1189.19 862.714 1190.72 865.071C1193.8 886.653 1251.29 923.894 1270.99 933.497C1287.27 941.32 1343.01 959.28 1361.42 955.133C1367.62 953.768 1386.44 958.594 1392.76 959.207C1392.96 959.261 1393.77 959.477 1393.97 959.531L1805.96 1027.11" stroke="#F30EF6" stroke-opacity="0.2" stroke-miterlimit="10"/>
<path d="M-889.092 460.865L-423.697 317.032C-413.71 313.655 -404.166 309.509 -395.08 305.458C-340.615 281.35 -271.966 242.232 -242.554 264.815C-234.999 270.515 -214.45 289.859 -209.925 297.99L-98.7042 442.167C-94.3272 450.043 -74.6246 468.511 -67.6751 474.049C-44.3265 492.629 34.8316 533.731 62.0803 519.195C63.5611 518.51 67.1386 519.685 68.6734 518.799L183.747 508.985C196.007 518.108 267.189 488.101 281.971 491.846C285.199 492.711 305.89 482.471 308.956 483.942C310.289 483.001 314.486 483.478 315.967 482.793C319.494 480.928 330.512 482.582 334.28 481.43C349.315 476.161 394.129 489.683 408.882 495.149C414.222 497.013 429.699 504.619 434.202 507.988C434.901 508.608 437.16 509.861 437.603 510.629L559.245 625.599C575.839 633.073 637.327 700.574 653.09 694.204C654.045 694.676 655.255 695 656.412 695.526C671.435 699.984 687.406 699.291 700.635 708.024C711.457 715.248 758.978 715.441 781.124 715.105C814.371 714.5 906.876 651.721 936.786 650.655C964.06 649.746 1056.89 672.892 1059.14 704.846C1061.54 740.297 1149.58 786.159 1152.23 824.705C1160.55 836.446 1169.06 848.241 1176.37 859.712C1177.75 861.812 1179.03 864.316 1180.61 866.471C1183.94 888.766 1239.75 925.777 1260.21 935.797C1277.04 943.984 1331.88 961.271 1350.95 957.084C1357.35 955.773 1375.82 960.289 1382.34 960.956C1382.55 961.011 1383.15 961.173 1383.55 961.281L1797.01 1025.8" stroke="#F30EF6" stroke-opacity="0.2" stroke-miterlimit="10"/>
<path d="M-889.019 456.561L-428.899 313.044C-418.858 309.465 -409.368 305.521 -400.282 301.469C-344.956 277.376 -276.995 240.02 -247.031 262.967C-239.329 268.922 -219.075 287.755 -214.457 296.343L-104.22 441.771C-99.6951 449.902 -80.5436 468.006 -73.2447 473.854C-48.9954 493.108 29.0748 532.621 57.2927 517.696C58.7734 517.011 62.405 517.985 63.7381 517.044L179.219 504.096C190.928 512.855 263.403 481.249 277.58 484.832C280.606 485.642 301.809 475.108 304.727 476.322C306.06 475.382 310.257 475.858 311.537 475.12C315.32 473.107 325.933 474.653 329.958 473.353C345.45 467.991 389.565 480.893 404.722 486.467C410.209 488.586 425.337 495.883 429.988 499.507C430.686 500.127 432.945 501.381 433.389 502.148L554.14 618.826C569.927 626.083 632.14 695.725 647.189 689.596C648.144 690.068 649.3 690.594 650.713 690.972C665.736 695.43 680.277 698.461 694.774 704.076C707.308 708.947 752.35 711.936 775.613 711.466C809.922 710.93 899.927 646.184 930.9 645.186C959.034 644.292 1050.28 668.525 1052.46 701.542C1054.99 738.11 1139.25 785.985 1141.98 825.849C1149.98 837.94 1158.19 850.085 1165.18 861.905C1166.51 864.207 1167.84 866.509 1169.17 868.811C1172.48 891.968 1227.04 928.856 1248.24 939.294C1265.63 947.845 1319.56 964.458 1339.29 960.231C1345.75 958.719 1364.22 963.235 1370.74 963.902C1370.95 963.956 1371.55 964.118 1372.01 964.025L1786.94 1025.48" stroke="#F30EF6" stroke-opacity="0.2" stroke-miterlimit="10"/>
<path d="M-888.947 452.256L-434.048 308.854C-424.006 305.274 -414.517 301.331 -405.228 297.333C-349.243 273.2 -281.97 237.605 -251.2 260.769C-243.094 266.833 -223.446 285.502 -218.68 294.347L-109.224 441.078C-104.552 449.465 -85.8039 467.461 -78.3032 473.363C-53.355 493.237 23.829 531.215 53.0701 515.699C54.5508 515.015 58.2364 515.786 59.5695 514.846L175.458 498.764C186.615 507.159 260.384 473.954 273.754 477.32C276.78 478.131 298.347 467.045 301.063 468.205C302.396 467.265 306.446 467.486 307.927 466.801C311.71 464.788 322.377 466.133 326.456 464.631C342.46 458.974 385.876 471.256 401.584 477.194C407.273 479.367 421.997 486.556 426.85 490.234C427.549 490.854 429.807 492.108 430.251 492.875L550.112 611.261C565.146 618.1 628.029 690.083 642.365 684.195C643.32 684.667 644.476 685.193 645.888 685.571C661.059 690.285 675.236 693.868 689.935 699.536C702.873 704.516 746.999 707.691 770.868 707.384C806.496 706.769 893.745 640.203 925.579 639.219C954.83 638.193 1044.03 663.607 1046.34 697.74C1048.95 735.627 1129.48 785.313 1132.29 826.496C1139.93 839.138 1147.83 851.632 1154.57 863.6C1155.9 865.902 1156.97 868.352 1158.5 870.708C1162.05 894.578 1215.09 931.491 1236.9 942.092C1254.89 950.805 1307.87 966.946 1328.11 962.424C1334.77 960.965 1352.89 965.171 1359.67 965.691C1359.87 965.745 1360.47 965.907 1360.93 965.814L1777.33 1024.2" stroke="#F30EF6" stroke-opacity="0.2" stroke-miterlimit="10"/>
<path d="M-889.13 448.099L-439.048 304.92C-429.007 301.34 -419.517 297.396 -410.229 293.399C-353.382 269.28 -286.743 235.245 -255.678 258.92C-247.424 265.24 -228.125 283.6 -223.01 292.754L-114.282 440.588C-109.462 449.231 -91.0637 466.917 -83.4153 473.074C-57.5665 493.622 18.5296 530.011 48.7399 514.107C50.2747 513.221 53.9062 514.194 55.2934 513.052L171.643 493.634C182.249 501.665 257.312 466.86 270.076 470.064C272.901 470.821 295.033 459.238 297.494 460.546C299.029 459.66 302.876 459.827 304.411 458.941C308.396 456.981 318.714 458.016 322.793 456.515C339.254 450.764 381.972 462.426 398.083 468.473C403.974 470.7 418.496 477.834 423.55 481.567C424.249 482.186 426.306 483.386 426.951 484.208L545.721 604.246C560.002 610.668 623.609 684.791 637.178 679.346C638.078 680.019 639.235 680.545 640.647 680.924C655.71 686.041 670.034 689.879 684.679 695.749C697.966 701.039 741.178 704.402 765.706 704.055C802.396 703.508 887.347 635.029 920.096 633.859C950.208 632.846 1037.82 659.349 1040.27 694.598C1042.95 733.804 1119.7 785.503 1122.59 828.005C1129.92 840.996 1137.65 854.095 1143.94 866.157C1145.26 868.459 1146.8 870.815 1147.61 873.412C1155.52 897.153 1202.72 934.879 1225.54 945.751C1244.08 954.827 1296.16 970.295 1317.06 965.733C1323.98 964.127 1341.69 968.225 1348.87 968.853C1349.08 968.907 1349.68 969.069 1350.14 968.975L1768.21 1024.35" stroke="#F30EF6" stroke-opacity="0.2" stroke-miterlimit="10"/>
<path d="M-889.058 443.794L-444.251 300.931C-434.209 297.351 -424.719 293.408 -415.431 289.41C-357.724 265.306 -291.773 233.033 -260.157 257.072C-251.701 263.445 -232.806 281.697 -227.542 291.107L-119.597 440.245C-114.629 449.143 -96.7817 466.466 -88.7839 472.933C-62.2361 494.1 13.0278 528.753 44.0055 512.406C45.5403 511.52 49.0241 512.237 50.559 511.351L167.517 488.853C177.626 496.319 253.928 460.116 266.088 463.158C268.71 463.861 291.355 451.983 293.869 453.089C295.404 452.203 299.252 452.369 300.787 451.483C304.825 449.322 314.942 450.303 319.276 448.654C336.249 442.607 378.214 453.852 394.931 460.061C401.023 462.342 415.142 469.368 420.398 473.155C421.097 473.774 423.154 474.974 423.745 475.997L541.679 597.542C555.153 603.747 619.484 680.01 632.595 674.658C633.495 675.332 634.652 675.858 636.064 676.236C651.275 681.609 665.491 685.851 680.136 691.721C693.772 697.321 735.867 700.816 761.31 700.283C799.118 699.603 881.514 629.358 915.326 628.256C946.299 627.258 1032.17 654.593 1034.7 691.161C1037.52 731.483 1110.49 785.196 1113.65 829.07C1120.62 842.612 1128.1 855.859 1134.07 868.27C1135.14 870.72 1136.73 872.874 1137.69 875.728C1145.59 900.329 1191.57 937.731 1214.89 949.168C1234.04 958.407 1285.16 973.402 1306.72 968.801C1313.84 967.249 1331.26 970.836 1338.59 971.719C1338.79 971.773 1339.4 971.935 1339.86 971.842L1759.4 1024.15" stroke="#F30EF6" stroke-opacity="0.2" stroke-miterlimit="10"/>
<path d="M-888.986 439.489L-449.197 296.795C-439.156 293.215 -429.41 289.124 -420.176 285.328C-361.755 260.983 -296.345 230.727 -264.177 255.129C-255.372 261.813 -237.028 279.701 -231.617 289.367L-124.453 439.809C-119.338 448.963 -101.894 466.177 -93.6942 472.698C-66.2458 494.539 7.93014 527.604 39.931 510.665C41.4659 509.779 45.0038 510.295 46.5386 509.409L163.904 483.777C173.26 490.824 251.259 453.131 262.612 455.956C265.033 456.605 288.041 444.176 290.555 445.282C292.09 444.396 295.992 444.361 297.527 443.475C301.767 441.368 311.736 442.093 316.071 440.443C333.501 434.303 374.767 444.928 391.887 451.245C398.181 453.58 412.098 460.553 417.3 464.541C418.201 465.215 420.002 466.562 420.647 467.384L537.691 590.635C550.412 596.422 615.669 674.88 627.811 669.917C628.711 670.591 629.868 671.117 631.226 671.697C646.329 677.473 660.491 681.917 675.082 687.988C689.122 693.696 730.301 697.379 756.349 697.008C795.22 696.396 875.062 624.386 909.991 623.151C941.879 621.966 1026.11 650.59 1028.62 688.019C1031.52 729.659 1100.76 785.184 1104 830.377C1110.61 844.47 1117.78 858.066 1123.49 870.625C1124.57 873.075 1126.1 875.431 1126.91 878.028C1134.65 903.235 1179.52 940.77 1203.64 952.423C1223.34 962.026 1273.56 976.348 1295.83 971.505C1303.21 969.806 1320.22 973.284 1327.81 974.02C1328.01 974.074 1328.62 974.236 1329.08 974.142L1750.09 1023.39" stroke="#F30EF6" stroke-opacity="0.2" stroke-miterlimit="10"/>
<path d="M-889.115 435.13L-454.399 292.806C-444.358 289.227 -434.612 285.136 -425.378 281.34C-366.096 257.009 -301.32 228.313 -268.655 253.281C-259.702 260.22 -241.707 277.798 -236.149 287.72L-129.915 439.21C-124.706 448.822 -107.557 465.525 -99.21 472.302C-71.0627 494.762 2.22711 526.292 35.1972 508.965C36.9338 508.133 40.2699 508.594 41.8588 507.506L159.632 478.741C168.437 485.424 247.729 446.131 258.476 448.794C260.897 449.443 284.215 436.665 286.528 437.717C288.117 436.629 291.763 436.741 293.553 435.707C297.848 433.399 307.669 433.868 312.205 432.273C330.349 425.892 370.714 435.842 388.386 442.523C394.881 444.913 408.395 451.777 413.799 455.819C414.7 456.493 416.501 457.84 417.146 458.662L533.3 583.621C545.268 588.99 611.195 669.789 622.623 665.068C623.524 665.741 624.68 666.267 626.038 666.848C641.235 673.081 655.343 677.727 669.934 683.798C684.323 689.816 724.386 693.632 751.349 693.073C791.538 692.383 868.624 618.553 904.67 617.185C937.621 616.068 1020.06 645.726 1022.71 684.272C1025.54 726.975 1083.27 785.903 1094.52 831.078C1098.42 846.392 1107.67 859.467 1113.13 872.173C1114.2 874.623 1115.68 877.181 1116.5 879.778C1124.22 905.846 1167.82 943.258 1192.5 955.275C1212.75 965.242 1262.07 978.89 1285 974.008C1292.58 972.362 1309.24 975.531 1317.03 976.321C1317.23 976.375 1317.84 976.537 1318.3 976.443L1740.78 1022.62" stroke="#F30EF6" stroke-opacity="0.2" stroke-miterlimit="10"/>
<path d="M-889.043 430.825L-459.547 288.616C-449.452 284.835 -439.76 280.945 -430.324 277.204C-370.383 252.833 -306.094 225.952 -272.877 251.285C-263.521 258.332 -246.078 275.546 -240.425 285.926L-134.973 438.719C-129.616 448.587 -113.019 464.926 -104.322 472.013C-75.2743 495.147 -3.07251 525.088 30.9208 507.17C32.6574 506.338 36.0475 506.598 37.6364 505.51L155.871 473.408C164.125 479.728 244.71 438.836 254.852 441.337C257.071 441.932 280.955 428.656 283.066 429.654C284.655 428.566 288.355 428.477 290.092 427.645C294.386 425.336 304.06 425.55 308.797 424.009C327.399 417.534 367.065 426.865 385.14 433.654C391.837 436.097 404.948 442.853 410.755 447.004C411.656 447.678 413.457 449.025 414.102 449.846L529.366 576.513C540.527 581.666 607.232 664.403 617.893 660.124C618.793 660.798 619.896 661.526 621.254 662.106C636.396 668.542 650.342 673.792 665.135 679.918C680.075 686.3 719.075 690.047 746.644 689.65C787.896 689.028 862.481 613.232 899.59 611.932C933.402 610.83 1014.05 641.521 1016.83 681.184C1019.74 725.206 1074.2 785.851 1085.02 832.64C1088.6 848.304 1097.5 861.929 1102.7 874.783C1103.77 877.233 1105.05 879.737 1105.81 882.536C1113.52 909.465 1155.71 946.499 1181.14 958.934C1201.99 969.063 1250.36 982.239 1273.8 977.061C1281.63 975.268 1297.9 978.328 1305.89 979.172C1306.09 979.226 1306.7 979.389 1307.15 979.295L1731.11 1022.41" stroke="#F30EF6" stroke-opacity="0.2" stroke-miterlimit="10"/>
<path d="M-889.025 426.722L-464.547 284.682C-454.452 280.9 -444.761 277.011 -435.325 273.269C-374.523 248.913 -311.123 223.74 -277.356 249.436C-267.852 256.739 -250.757 273.644 -244.958 284.279L-140.233 438.175C-134.729 448.298 -118.535 464.529 -109.636 471.67C-79.8895 495.424 -8.57394 523.83 26.3885 505.523C28.1792 504.489 31.3676 504.695 33.1582 503.661L151.8 468.426C159.556 474.18 241.382 431.89 250.918 434.229C252.936 434.77 277.331 421.199 279.294 421.941C280.883 420.853 284.583 420.764 286.374 419.73C290.924 417.274 300.194 417.379 304.986 415.636C324.045 409.067 363.013 417.779 381.693 424.73C388.39 427.173 401.5 433.93 407.308 438.08C408.208 438.754 410.01 440.101 410.654 440.923L525.029 569.297C535.437 574.032 602.812 659.11 612.961 655.127C613.861 655.801 615.166 656.583 616.322 657.109C631.558 664.002 645.45 669.454 660.189 675.782C675.532 682.271 713.361 686.354 741.791 685.972C784.16 685.217 856.191 607.654 894.363 606.423C929.09 605.134 1008.1 637.115 1010.81 677.84C1013.85 722.978 1064.98 785.544 1075.42 833.745C1078.9 849.812 1087.23 863.935 1092.18 876.936C1093.2 879.588 1094.47 882.092 1095.24 884.891C1102.93 912.681 1143.85 949.592 1170.09 962.243C1191.49 972.736 1238.96 985.238 1263.06 980.021C1271.1 978.282 1287.21 981.086 1295.46 981.783C1295.66 981.837 1296.27 981.999 1296.72 981.905L1722.29 1022.21" stroke="#F30EF6" stroke-opacity="0.2" stroke-miterlimit="10"/>
<path d="M-888.953 422.417L-469.696 280.492C-459.601 276.71 -449.707 272.875 -440.473 269.079C-378.81 244.738 -316.044 221.124 -281.78 247.386C-271.873 254.797 -255.384 271.539 -249.436 282.43L-145.493 437.63C-139.841 448.009 -123.997 463.93 -114.951 471.327C-84.3032 495.755 -14.0755 522.572 21.7084 503.621C23.499 502.587 26.6874 502.793 28.5321 501.557L147.581 463.187C154.786 468.577 237.959 424.487 246.635 426.811C248.45 427.298 273.411 413.23 275.119 414.12C276.909 413.086 280.26 412.686 282.051 411.653C286.601 409.196 295.925 409.1 300.717 407.357C320.288 400.493 358.502 408.787 377.586 415.846C384.485 418.344 397.191 424.991 403.147 429.398C404.047 430.072 405.849 431.419 406.493 432.241L519.83 562.066C529.687 566.437 597.53 653.803 607.02 649.86C607.866 650.735 609.225 651.315 610.327 652.043C625.509 659.138 639.494 665.048 654.031 671.321C669.725 678.121 706.639 682.39 735.782 681.767C779.415 681.134 848.744 601.551 887.831 600.133C923.621 598.912 1000.69 631.67 1003.68 673.768C1006.8 720.225 1054.67 784.509 1064.73 834.122C1068.1 850.593 1075.91 865.01 1080.55 878.361C1081.57 881.013 1082.59 883.664 1083.41 886.262C1091.08 914.913 1130.74 951.701 1157.53 964.716C1179.54 975.371 1226 987.603 1250.82 982.145C1259.11 980.258 1274.87 982.753 1283.27 983.705C1283.67 983.813 1284.07 983.921 1284.53 983.828L1711.57 1021.06" stroke="#F30EF6" stroke-opacity="0.2" stroke-miterlimit="10"/>
<path d="M-889.082 418.058L-474.898 276.503C-464.802 272.722 -454.909 268.887 -445.473 265.145C-383.151 240.764 -320.872 218.966 -286.056 245.591C-276.001 253.259 -259.861 269.691 -253.766 280.838L-150.605 437.342C-144.805 447.977 -129.566 463.735 -120.117 471.24C-88.5685 496.342 -19.4288 521.57 17.3784 502.028C19.169 500.994 22.4115 500.998 24.2021 499.965L143.767 458.057C150.421 463.083 234.887 417.393 243.011 419.354C244.827 419.84 270.152 405.221 271.658 406.057C273.448 405.023 276.799 404.624 278.589 403.59C283.396 400.986 292.316 400.782 297.364 398.891C317.392 391.934 354.908 399.608 374.596 406.829C381.697 409.381 394.055 415.719 400.157 420.381C401.058 421.055 402.859 422.402 403.45 423.425L515.897 554.959C524.947 559.113 593.769 648.472 602.29 644.917C603.137 645.792 604.441 646.574 605.597 647.1C620.873 654.653 634.603 660.71 649.287 667.239C665.33 674.349 701.383 678.604 731.131 678.143C775.882 677.377 842.656 596.028 882.806 594.678C919.457 593.472 994.937 627.318 997.914 670.277C1001.17 717.851 1045.71 784.054 1055.39 835.079C1058.65 851.954 1065.9 866.868 1070.28 880.367C1071.1 882.964 1072.32 885.67 1073.09 888.469C1080.55 917.927 1119.2 954.445 1146.74 967.878C1169.3 978.897 1214.86 990.455 1240.39 984.756C1248.88 982.923 1264.29 985.108 1272.94 985.912C1273.35 986.02 1273.75 986.128 1274.21 986.035L1702.72 1020.21" stroke="#F30EF6" stroke-opacity="0.2" stroke-miterlimit="10"/>
<path d="M-889.01 413.753L-479.844 272.367C-469.749 268.586 -459.855 264.75 -450.42 261.008C-387.236 236.642 -325.645 216.605 -290.278 243.595C-280.076 251.518 -264.286 267.641 -258.043 279.043L-155.811 436.595C-149.864 447.486 -134.974 462.935 -125.377 470.695C-93.1298 496.417 -24.8222 519.909 12.9 500.179C14.8924 499.2 17.9872 498.948 19.7778 497.914L139.695 453.075C145.798 457.737 231.76 410.501 239.077 412.246C240.691 412.678 266.527 397.764 268.087 398.398C269.932 397.162 273.283 396.763 275.073 395.729C279.88 393.125 288.652 392.665 293.902 390.829C314.442 383.576 351.258 390.63 371.498 398.215C378.801 400.821 390.956 407.105 397.261 411.821C398.162 412.495 399.963 413.842 400.554 414.865L512.11 548.106C520.407 551.843 589.9 643.543 597.707 640.23C598.554 641.105 599.858 641.887 600.96 642.615C616.128 650.571 630.005 656.884 644.636 663.615C661.082 670.832 695.964 675.422 726.775 675.029C772.588 674.332 837.065 591.07 878.075 589.735C915.642 588.342 989.479 623.477 992.388 667.499C995.721 716.391 1037.19 784.366 1046.49 836.804C1049.45 854.027 1056.38 869.291 1060.46 883.139C1061.22 885.939 1062.24 888.59 1063 891.389C1070.45 921.708 1107.64 958.05 1135.93 971.901C1159.1 983.082 1203.5 994.114 1229.89 988.429C1238.63 986.448 1253.65 988.525 1262.5 989.383C1262.9 989.492 1263.31 989.6 1263.76 989.506L1693.74 1020.61" stroke="#F30EF6" stroke-opacity="0.2" stroke-miterlimit="10"/>
<path d="M-888.937 409.448L-485.046 268.379C-474.75 264.651 -465.004 260.56 -455.42 257.074C-391.376 232.722 -330.419 214.245 -294.555 241.801C-283.949 249.832 -268.764 265.792 -262.373 277.45L-160.924 436.306C-154.828 447.453 -140.288 462.592 -130.489 470.407C-97.3415 496.802 -29.9202 518.759 8.62355 498.385C10.6159 497.405 13.509 497.099 15.5554 495.918L135.733 447.689C141.338 451.785 228.539 403.152 235.251 404.734C236.663 405.113 263.066 389.701 264.424 390.281C266.268 389.046 269.417 388.592 271.464 387.411C276.526 384.659 284.949 383.889 290.4 382.107C311.398 374.76 347.515 381.195 368.159 388.888C375.663 391.548 387.415 397.724 393.868 402.696C394.97 403.424 396.368 404.663 397.16 405.74L507.827 540.688C515.371 544.007 585.588 637.847 592.829 635.031C593.676 635.906 594.98 636.688 596.083 637.416C611.398 645.628 624.911 652.492 639.798 659.075C656.593 666.602 690.56 671.38 722.085 670.746C769.015 669.915 830.937 584.888 873.064 583.419C911.693 582.095 983.538 618.21 986.58 663.348C989.993 713.559 1028.14 783.454 1037.06 837.303C1039.91 854.93 1046.28 870.692 1050.15 884.486C1050.91 887.285 1051.93 889.936 1052.64 892.937C1059.87 924.063 1095.99 960.336 1125.09 974.403C1148.81 985.948 1192.31 996.306 1219.22 990.326C1228.17 988.4 1242.83 990.167 1251.88 991.079C1252.29 991.187 1252.69 991.295 1253.15 991.202L1684.6 1019.24" stroke="#F30EF6" stroke-opacity="0.2" stroke-miterlimit="10"/>
<path d="M-889.067 405.089L-490.195 264.188C-479.844 260.259 -470.152 256.37 -460.568 252.884C-395.864 228.492 -335.394 211.831 -299.127 239.495C-288.373 247.781 -273.483 263.23 -266.999 275.346L-166.331 435.506C-160.088 446.908 -146.154 461.885 -135.951 469.808C-102.05 496.621 -35.5692 517.245 3.74198 496.428C5.73437 495.448 8.68147 494.941 10.7279 493.759L131.662 442.706C136.716 446.439 225.211 396.206 231.317 397.626C232.73 398.005 259.24 382.19 260.598 382.77C262.443 381.534 265.646 380.879 267.638 379.9C272.7 377.148 281.178 376.176 286.629 374.394C308.34 366.806 343.502 372.768 364.751 380.624C372.403 383.539 384.008 389.459 390.46 394.432C391.562 395.159 392.96 396.399 393.753 397.476L503.583 533.93C510.32 537.032 581.261 633.012 587.79 630.437C588.838 631.367 589.886 632.296 591.043 632.822C606.25 641.437 619.911 648.557 634.542 655.288C651.687 663.126 684.591 667.834 716.922 667.416C765.117 666.709 824.337 579.66 867.527 578.26C907.018 576.95 977.328 613.951 980.449 660.408C983.995 711.736 1018.81 783.55 1027.36 838.812C1030.09 856.842 1035.9 873.1 1039.52 887.042C1040.28 889.841 1041.25 892.694 1041.76 895.641C1048.97 927.628 1083.88 963.577 1113.48 978.21C1137.75 990.118 1180.35 999.803 1207.91 993.783C1217.12 991.709 1231.38 993.368 1240.89 994.187C1241.29 994.295 1241.75 994.201 1242.15 994.309L1675.27 1019.34" stroke="#F30EF6" stroke-opacity="0.2" stroke-miterlimit="10"/>
<path d="M-889.049 400.987L-495.195 260.254C-484.844 256.325 -474.951 252.49 -465.569 248.95C-400.004 224.573 -340.222 209.673 -303.403 237.7C-292.246 246.095 -277.961 261.382 -271.329 273.753L-171.39 435.016C-164.999 446.674 -151.414 461.341 -141.063 469.519C-106.262 497.006 -40.869 516.042 -0.534592 494.634C1.51186 493.452 4.459 492.945 6.30369 491.709L127.699 437.32C132.202 440.689 221.99 388.857 227.492 390.115C228.702 390.439 255.778 374.127 256.934 374.653C258.981 373.472 261.982 372.763 264.028 371.581C269.292 368.884 277.42 367.602 282.925 365.618C305.094 357.937 339.558 363.279 361.21 371.243C369.064 374.212 380.265 380.024 386.919 385.051C388.021 385.778 389.419 387.018 390.212 388.095L498.95 526.202C504.935 528.887 576.801 627.061 582.414 624.673C583.463 625.602 584.511 626.532 585.613 627.26C600.968 636.131 614.32 643.6 629.152 650.385C646.647 658.532 678.635 663.428 711.68 662.769C760.992 661.928 817.658 573.114 861.911 571.783C902.316 570.285 970.781 608.522 974.036 656.095C977.661 708.741 1009.41 782.328 1017.37 838.948C1020 857.381 1025.3 873.935 1028.6 888.226C1029.31 891.227 1030.08 894.026 1030.84 896.825C1037.84 929.619 1071.69 965.499 1101.89 980.294C1126.77 992.365 1168.41 1001.58 1196.63 995.518C1206.04 993.498 1220 994.646 1229.66 995.72C1230.07 995.828 1230.52 995.735 1230.93 995.843L1665.52 1017.81" stroke="#F30EF6" stroke-opacity="0.2" stroke-miterlimit="10"/>
<path d="M-888.976 396.681L-500.343 256.064C-489.992 252.135 -480.099 248.299 -470.515 244.813C-404.089 220.451 -345.197 207.258 -307.625 235.704C-296.32 244.354 -282.385 259.331 -275.606 271.959L-176.448 434.525C-169.91 446.439 -156.674 460.796 -146.176 469.23C-110.675 497.337 -46.1684 514.838 -4.81084 492.839C-2.76439 491.658 0.182691 491.15 2.08144 489.713L123.884 432.19C127.836 435.194 218.918 381.763 223.814 382.859C224.822 383.129 252.41 366.522 253.419 366.792C255.465 365.611 258.319 364.646 260.567 363.518C265.885 360.619 273.811 359.284 279.518 357.353C302.198 349.377 335.963 354.1 358.166 362.428C366.222 365.451 377.019 371.155 384.077 376.289C385.179 377.017 386.577 378.256 387.37 379.333L494.909 519.497C500.086 521.966 572.676 622.279 577.576 620.133C578.571 621.264 579.673 621.992 580.775 622.72C596.022 631.994 609.521 639.719 624.299 646.706C642.143 655.163 673.015 660.192 706.921 659.548C757.296 658.775 811.407 568.196 856.629 566.475C898.097 565.046 964.772 604.317 968.012 652.751C971.77 706.514 1000.19 782.02 1007.78 840.052C1010.3 858.889 1015.03 875.94 1018.08 890.379C1018.59 893.326 1019.55 896.179 1020.06 899.126C1027.05 932.78 1059.43 968.484 1090.64 983.549C1116.07 995.984 1156.81 1004.52 1185.75 998.222C1195.41 996.055 1209.17 997.148 1218.83 998.222C1219.23 998.33 1219.69 998.237 1220.09 998.345L1656.16 1017.24" stroke="#F30EF6" stroke-opacity="0.2" stroke-miterlimit="10"/>
<path d="M-888.904 392.377L-505.344 252.129C-494.993 248.2 -485.099 244.365 -475.516 240.879C-408.229 216.531 -349.971 204.898 -311.902 233.909C-300.247 242.87 -286.864 257.483 -279.882 270.164L-181.708 433.98C-175.022 446.15 -162.391 460.345 -151.49 468.888C-115.089 497.668 -51.6699 513.58 -9.34309 491.192C-7.09489 490.065 -4.4972 489.247 -2.45075 488.066L119.759 427.409C123.214 429.848 215.791 374.872 219.88 375.751C220.687 375.967 248.84 358.863 249.593 359.281C251.693 357.898 254.493 357.134 256.539 355.953C262.059 353.108 269.837 351.516 275.598 349.384C298.736 341.314 331.802 345.418 354.409 353.853C362.667 356.931 373.262 362.581 380.266 367.917C381.368 368.644 382.766 369.884 383.504 371.163L490.463 512.685C494.887 514.735 568.148 617.391 572.536 615.539C573.53 616.671 574.579 617.6 575.681 618.328C591.021 628.06 604.467 635.987 618.989 643.121C637.183 651.888 667.193 656.902 701.705 656.42C753.397 655.569 804.753 563.17 851.038 561.518C893.367 560.103 958.251 600.407 961.826 650.013C965.462 705.04 990.814 782.318 997.97 841.964C1000.38 861.205 1004.8 878.605 1007.34 893.339C1007.85 896.286 1008.56 899.287 1009.27 902.288C1016.04 936.749 1047.36 972.384 1079.12 987.813C1105.15 1000.41 1144.94 1008.48 1174.33 1002.08C1184.2 999.969 1197.61 1000.75 1207.52 1001.68C1207.93 1001.79 1208.39 1001.69 1208.79 1001.8L1646.32 1017.64" stroke="#F30EF6" stroke-opacity="0.2" stroke-miterlimit="10"/>
<path d="M-889.033 388.018L-510.546 248.141C-500.195 244.212 -490.301 240.377 -480.516 236.945C-412.57 212.557 -354.798 202.74 -316.38 232.061C-304.523 241.075 -291.543 255.58 -284.414 268.517L-186.968 433.436C-180.134 445.861 -167.853 459.746 -156.804 468.545C-119.704 497.945 -57.1711 512.322 -13.8211 489.344C-11.5729 488.216 -8.97523 487.399 -6.87473 486.016L115.797 422.023C118.499 424.044 212.57 367.522 215.798 368.387C216.605 368.604 245.123 350.948 245.674 351.312C247.774 349.929 250.628 348.964 252.674 347.782C258.248 344.735 265.825 343.09 271.787 341.012C295.436 332.647 327.75 336.332 350.962 344.93C359.421 348.061 369.613 353.603 376.818 358.993C377.921 359.721 379.319 360.96 380.057 362.239L486.18 505.267C489.851 506.899 563.836 611.695 567.457 610.287C568.451 611.418 569.499 612.347 570.602 613.075C585.888 623.009 599.171 631.541 613.949 638.528C632.546 647.403 661.588 652.806 696.813 652.082C749.568 651.3 798.424 556.933 845.772 555.35C888.962 553.95 952.257 595.342 955.763 646.01C959.532 702.154 981.707 781.608 988.538 842.464C990.842 862.108 994.697 880.005 996.98 894.887C997.488 897.834 998.197 900.835 998.651 903.983C1005.2 939.251 1035.51 974.616 1068.03 990.463C1094.61 1003.42 1133.5 1010.82 1163.55 1004.38C1173.67 1002.12 1186.68 1002.8 1196.8 1003.78C1197.2 1003.89 1197.66 1003.79 1198.06 1003.9L1637.07 1016.67" stroke="#F30EF6" stroke-opacity="0.2" stroke-miterlimit="10"/>
<path d="M-888.961 383.713L-515.694 243.951C-505.343 240.022 -495.45 236.186 -485.664 232.754C-416.857 208.381 -359.774 200.326 -320.804 230.011C-308.8 239.281 -296.17 253.476 -288.893 266.669L-192.228 432.891C-185.247 445.572 -173.517 459.094 -162.118 468.202C-124.118 498.276 -62.6189 510.862 -18.5555 487.643C-16.3073 486.515 -13.6556 485.496 -11.5551 484.113L111.523 416.986C113.674 418.643 209.039 360.523 211.662 361.225C212.268 361.387 241.296 343.436 241.901 343.599C244.002 342.216 246.654 341.196 248.956 339.867C254.731 336.874 261.959 334.919 268.177 332.694C292.284 324.234 323.898 327.3 347.514 336.006C356.175 339.192 365.963 344.625 373.37 350.069C374.419 350.999 375.871 352.037 376.609 353.316L481.842 498.051C484.908 499.521 559.415 606.402 562.322 605.235C563.317 606.367 564.365 607.296 565.413 608.226C580.793 618.617 594.022 627.351 608.746 634.539C627.693 643.724 655.672 649.059 691.703 648.551C745.576 647.635 792.079 551.557 840.342 549.787C884.447 548.2 946.153 590.68 949.537 642.612C953.385 700.075 972.288 781.246 978.741 843.514C980.736 863.508 984.28 881.754 986.253 896.986C986.707 900.134 987.215 903.081 987.925 906.082C994.462 942.211 1023.31 977.399 1056.57 993.664C1083.71 1006.99 1121.7 1013.71 1152.46 1007.03C1162.78 1004.83 1175.44 1005.19 1186.02 1006.08C1186.42 1006.19 1186.88 1006.09 1187.28 1006.2L1627.96 1015.96" stroke="#F30EF6" stroke-opacity="0.2" stroke-miterlimit="10"/>
<path d="M-888.943 379.61L-520.694 240.016C-510.289 235.886 -500.194 232.104 -490.664 228.82C-420.996 204.461 -364.547 197.966 -325.08 228.216C-312.673 237.595 -300.593 251.426 -293.223 265.076L-197.34 432.602C-190.265 445.741 -178.885 458.953 -167.284 468.115C-128.585 498.808 -67.9722 509.86 -22.8856 486.05C-20.6374 484.923 -17.9316 483.702 -15.8311 482.319L107.655 412.058C109.254 413.351 205.913 353.631 207.931 354.171C208.334 354.28 237.928 335.832 238.278 336.141C240.378 334.758 243.084 333.537 245.332 332.41C251.162 329.215 258.241 327.004 264.406 324.981C289.226 316.28 319.886 318.874 344.107 327.742C352.969 330.982 362.556 336.361 370.165 341.859C371.213 342.789 372.611 344.028 373.404 345.106L477.747 491.548C480.059 492.6 555.492 601.675 557.485 600.696C558.479 601.827 559.473 602.958 560.777 603.74C576.103 614.333 589.224 623.47 604.15 630.713C623.446 640.207 650.51 645.73 687.201 645.183C742.136 644.335 786.138 546.29 835.464 544.588C880.633 543.07 940.346 586.529 944.065 639.632C948.047 698.212 963.826 781.357 969.699 844.983C971.531 865.582 974.564 884.124 976.335 899.301C976.789 902.45 977.243 905.598 977.751 908.545C984.072 945.481 1011.85 980.601 1045.93 997.082C1073.67 1010.57 1110.7 1016.82 1142.13 1010.1C1152.7 1007.75 1165.01 1007.8 1175.74 1008.95C1176.14 1009.05 1176.6 1008.96 1177 1009.07L1619.15 1015.76" stroke="#F30EF6" stroke-opacity="0.2" stroke-miterlimit="10"/>
<path d="M-889.073 375.251L-525.843 235.826C-515.438 231.695 -505.342 227.914 -495.611 224.684C-425.283 200.286 -369.321 195.605 -329.303 226.22C-316.748 235.854 -305.22 249.321 -297.5 263.281L-202.345 431.91C-195.122 445.305 -184.091 458.206 -172.343 467.624C-132.743 498.991 -73.2178 508.455 -27.108 484.054C-24.8058 482.725 -22.3558 481.652 -19.9995 480.121L103.894 406.725C104.996 407.453 202.894 346.336 204.307 346.714C204.508 346.768 234.413 327.971 234.816 328.079C237.118 326.75 239.622 325.475 241.925 324.146C247.956 321.005 254.888 318.538 261.106 316.313C286.384 307.519 316.399 309.291 340.969 318.469C350.034 321.763 359.217 327.034 366.973 332.788C368.223 333.772 369.218 334.903 370.212 336.034L473.463 484.13C475.023 484.764 551.126 596.181 552.607 595.497C553.547 596.83 554.595 597.759 555.846 598.743C571.265 609.793 584.332 619.132 599.002 626.523C618.647 636.327 644.594 641.982 682.2 641.248C738.454 640.322 779.701 540.457 830.089 538.824C876.119 537.32 934.244 581.867 937.948 635.831C942.009 695.729 954.462 780.794 960.011 845.63C961.735 866.633 964.202 885.672 965.718 900.996C965.97 904.091 966.626 907.294 967.079 910.442C973.184 948.185 999.958 983.034 1034.58 999.88C1062.88 1013.73 1098.95 1019.51 1131.14 1012.35C1141.92 1010.05 1153.89 1009.79 1164.81 1010.99C1165.21 1011.1 1165.67 1011 1166.07 1011.11L1609.69 1014.74" stroke="#F30EF6" stroke-opacity="0.2" stroke-miterlimit="10"/>
<path d="M-889 370.946L-531.045 231.838C-520.64 227.707 -510.544 223.926 -500.813 220.696C-429.624 196.312 -374.552 193.339 -333.781 224.371C-320.876 234.316 -309.899 247.419 -302.032 261.635L-207.86 431.513C-200.49 445.164 -190.064 457.903 -177.912 467.429C-137.613 499.416 -78.975 507.345 -31.896 482.555C-29.392 481.28 -27.0897 479.951 -24.7334 478.42L99.8769 401.541C100.428 401.905 199.62 339.188 200.427 339.404C200.629 339.458 230.897 320.11 231.098 320.164C233.455 318.633 235.757 317.304 238.261 316.029C244.346 312.687 251.077 310.166 257.497 307.995C283.286 298.905 312.548 300.259 337.724 309.6C346.99 312.947 356.025 317.963 363.728 323.919C364.978 324.902 365.972 326.034 366.966 327.165L469.328 476.968C470.081 477.386 546.962 590.741 547.675 590.5C548.615 591.833 549.663 592.763 550.914 593.746C566.225 605.2 579.238 614.741 594.055 622.387C614.05 632.501 639.136 638.142 677.549 637.624C734.92 636.564 773.612 534.934 824.916 533.114C871.861 531.422 928.141 577.205 931.978 632.286C936.172 693.3 945.502 780.339 950.416 846.736C952.033 868.141 953.786 887.421 955.194 903.15C955.392 906.446 955.846 909.594 956.3 912.743C962.188 951.293 987.899 986.074 1023.08 1003.28C1051.97 1017.3 1087.1 1022.6 1119.75 1015.35C1130.58 1012.85 1142.34 1012.54 1153.52 1013.59C1153.92 1013.69 1154.38 1013.6 1154.78 1013.71L1599.81 1014.47" stroke="#F30EF6" stroke-opacity="0.2" stroke-miterlimit="10"/>
<path d="M-888.928 366.641L-535.991 227.702C-448.618 192.952 -384.621 186.533 -337.949 222.173C-324.843 232.172 -314.269 245.167 -306.254 259.638L-212.865 430.821C-205.347 444.727 -195.27 457.157 -182.971 466.939C-141.771 499.599 -84.2207 505.939 -36.3202 480.504C-33.8162 479.229 -31.46 477.699 -29.1577 476.37L227.327 312.451C229.683 310.92 231.985 309.591 234.489 308.316C240.776 305.028 247.157 302.197 253.833 299.878C280.08 290.695 308.643 291.429 334.424 300.932C343.892 304.334 352.524 309.241 360.428 315.251C361.678 316.234 362.672 317.366 363.612 318.699L542.689 585.704C543.629 587.037 544.623 588.169 545.873 589.152C582.289 617.072 604.884 635.234 672.44 634.093C730.874 633.102 767.066 529.504 819.433 527.752C867.44 526.13 921.929 572.946 925.698 629.09C931.307 711.456 940.037 840.278 944.616 905.504C947.539 948.665 972.976 987.696 1011.97 1006.79C1041.42 1021.17 1075.64 1025.8 1108.95 1018.51C1119.99 1016.06 1131.6 1015.5 1142.78 1016.55C1143.18 1016.65 1143.64 1016.56 1144.04 1016.67L1590.54 1014.36" stroke="#F30EF6" stroke-opacity="0.2" stroke-miterlimit="10"/>
</svg>
