<svg width="23" height="24" viewBox="0 0 23 24" fill="none" xmlns="http://www.w3.org/2000/svg">
<path d="M0.171319 14.906C0.852807 15.8672 1.5343 16.8334 2.21077 17.7946C3.35327 19.4082 4.49075 21.0218 5.63325 22.6354C5.89382 23.0089 6.1594 23.3775 6.41997 23.751L6.42498 23.756C6.54524 23.9402 6.77575 24.0598 6.98119 23.9801C7.01126 23.9701 7.03631 23.9602 7.06638 23.9452C7.54242 23.756 8.01846 23.5667 8.49951 23.3775C9.70715 22.8994 10.9098 22.4213 12.1174 21.9481C13.5806 21.3704 15.0488 20.7877 16.512 20.21C17.7798 19.707 19.0476 19.209 20.3153 18.706C20.9267 18.4669 21.538 18.2279 22.1493 17.9838C22.2896 17.9639 22.4099 17.8593 22.4851 17.7348C22.4851 17.7348 22.4851 17.7298 22.4901 17.7298C22.5001 17.7099 22.5101 17.69 22.5201 17.6651C22.5302 17.6452 22.5352 17.6252 22.5402 17.6053C22.5402 17.5954 22.5452 17.5904 22.5452 17.5804C22.5502 17.5605 22.5502 17.5406 22.5502 17.5207C22.5502 17.5107 22.5552 17.5057 22.5552 17.4958C22.5552 17.4908 22.5552 17.4858 22.5552 17.4858C22.5552 17.4659 22.5502 17.4509 22.5502 17.431C22.5502 17.4111 22.5452 17.3912 22.5402 17.3762C22.5402 17.3712 22.5402 17.3712 22.5402 17.3663C22.5402 17.3613 22.5352 17.3513 22.5302 17.3463C22.5302 17.3414 22.5251 17.3364 22.5251 17.3314C22.5201 17.3165 22.5101 17.2965 22.5051 17.2816C22.5051 17.2816 22.5051 17.2766 22.5001 17.2766C22.4951 17.2667 22.4901 17.2617 22.4851 17.2517C22.48 17.2467 22.475 17.2368 22.47 17.2318C22.465 17.2218 22.455 17.2119 22.45 17.2069C22.45 17.2069 22.45 17.2019 22.445 17.2019C22.4299 17.187 22.4199 17.167 22.4049 17.1521C21.523 16.2308 20.636 15.3044 19.7541 14.3831C18.346 12.9139 16.9379 11.4447 15.5299 9.97552C15.2442 9.6767 14.9586 9.37788 14.673 9.07906C14.6129 8.79021 14.5477 8.50633 14.4826 8.22245C14.1519 6.72837 13.8211 5.23926 13.4854 3.74518C13.2399 2.63955 13.0294 1.54389 12.7588 0.463167C12.7538 0.408384 12.7388 0.358581 12.7187 0.308778C12.6987 0.249014 12.6636 0.199211 12.6185 0.154389C12.6135 0.149409 12.6135 0.149409 12.6085 0.144428C12.6035 0.139448 12.6035 0.139448 12.5985 0.139448C12.5834 0.124507 12.5684 0.114547 12.5534 0.104586C12.5433 0.0946255 12.5283 0.0846649 12.5183 0.0747043C12.5083 0.069724 12.5033 0.0647437 12.4932 0.0597634C12.4582 0.0398423 12.4281 0.0249014 12.393 0.0149409C12.3279 0 12.2728 0 12.2226 0H12.2176C12.2026 0 12.1876 0 12.1775 0.00498029C12.0723 0.0199211 11.9771 0.0597634 11.907 0.144428C11.9019 0.154389 11.8919 0.159369 11.8869 0.16933L11.8819 0.17431C11.5011 0.627516 11.1202 1.08072 10.7394 1.53891C9.80236 2.65449 8.86531 3.77008 7.92826 4.89064C6.8008 6.23532 5.67334 7.58 4.54086 8.92467C3.55872 10.095 2.58158 11.2604 1.59944 12.4308C1.1234 12.9985 0.642348 13.5613 0.171319 14.1341C0.166308 14.144 0.156286 14.149 0.151275 14.159C0.141253 14.1689 0.136242 14.1839 0.12622 14.1938C0.121209 14.1988 0.116198 14.2038 0.111187 14.2088C0.0109685 14.3432 -0.03413 14.5524 0.0460451 14.7118C0.0660889 14.7865 0.111187 14.8562 0.171319 14.906ZM5.13717 20.215C3.99467 18.6014 2.85719 16.9878 1.71469 15.3741C1.66458 15.3044 1.61447 15.2297 1.56436 15.16C2.79204 15.3343 4.02474 15.5136 5.25242 15.6879C5.37769 15.7078 5.49795 15.7228 5.62323 15.7427C5.69839 16.5196 5.76855 17.2965 5.84371 18.0735C5.95896 19.2837 6.0692 20.4889 6.18445 21.6991C5.83369 21.2011 5.48793 20.708 5.13717 20.215ZM12.388 20.7778C11.1202 21.2808 9.85247 21.7788 8.5847 22.2818C8.29907 22.3964 8.01345 22.5059 7.72783 22.6205C7.91824 22.1374 8.11367 21.6493 8.30408 21.1662C8.82522 19.8564 9.34636 18.5416 9.8675 17.2318C9.93264 17.0625 10.0028 16.8931 10.0679 16.7238C11.3507 16.8583 12.6386 16.9977 13.9214 17.1322C15.9458 17.3463 17.9702 17.5605 19.9946 17.7746C18.9223 18.198 17.8499 18.6213 16.7776 19.0496C15.3194 19.6174 13.8562 20.2 12.388 20.7778ZM13.4904 8.34696C13.5556 8.63582 13.6157 8.91969 13.6808 9.20855C13.2148 9.93069 12.7488 10.6479 12.2828 11.37C11.481 12.6101 10.6793 13.8452 9.87752 15.0853C9.76227 15.2646 9.64702 15.4439 9.53177 15.6232C8.60975 15.404 7.68774 15.1799 6.76572 14.9608C6.90603 14.6271 7.04133 14.2934 7.18163 13.9597C7.6727 12.7844 8.16378 11.609 8.65485 10.4287C9.25115 8.99938 9.84746 7.57004 10.4438 6.14069C10.9549 4.91056 11.471 3.68043 11.9821 2.4503C12.0272 2.34073 12.0723 2.23615 12.1174 2.12658C12.2277 2.61963 12.3379 3.1077 12.4431 3.60075C12.7889 5.18448 13.1396 6.76821 13.4904 8.34696Z" fill="white"/>
</svg>
