<svg width="24" height="20" viewBox="0 0 24 20" fill="none" xmlns="http://www.w3.org/2000/svg">
<path d="M22.9425 16.4466C22.9528 16.4409 22.9684 16.4409 22.9788 16.4353C23.0566 16.3957 23.124 16.339 23.1811 16.2711C23.2226 16.2202 23.2589 16.1636 23.2848 16.1069C23.2848 16.1069 23.2848 16.1013 23.29 16.1013C23.2952 16.0843 23.3056 16.073 23.3108 16.056C23.3159 16.039 23.3159 16.0277 23.3211 16.0107C23.3263 15.9937 23.3315 15.9767 23.3315 15.9598C23.3367 15.9484 23.3367 15.9315 23.3419 15.9201C23.3419 15.9145 23.3419 15.9088 23.3419 15.9032C23.3419 15.8862 23.3419 15.8748 23.3471 15.8579V15.8522C23.3523 15.7503 23.3419 15.6427 23.2952 15.5465C22.4652 13.8426 21.6404 12.1386 20.8104 10.4347C19.4928 7.71747 18.1701 5.00024 16.8525 2.27734C16.5412 1.64898 16.2352 1.02062 15.9291 0.397917C15.9239 0.386595 15.9136 0.369612 15.9084 0.35829C15.8669 0.267716 15.8046 0.188463 15.7216 0.120532C15.6697 0.0809058 15.6023 0.0469404 15.5349 0.0299576C15.5193 0.0242967 15.5089 0.0242967 15.4934 0.0186358C15.3066 -0.0266515 15.0991 0.007314 14.9746 0.154498C14.9746 0.154498 14.9746 0.154498 14.9694 0.160159C14.9176 0.199785 14.8761 0.250733 14.845 0.307342C14.155 1.11685 13.4599 1.9207 12.77 2.73021C11.5925 4.10581 10.4149 5.48141 9.2322 6.85702C9.05064 7.07213 8.8639 7.28725 8.68234 7.4967C7.261 6.72682 5.83447 5.96259 4.41313 5.19271C4.19526 5.07949 3.97739 4.96061 3.75433 4.84173C3.58314 4.75116 3.39121 4.79078 3.23559 4.89834C3.11109 4.97193 3.00734 5.08515 2.96585 5.23234C2.93991 5.30593 2.91916 5.37952 2.91397 5.45311C2.59754 6.78342 2.2863 8.1194 1.96987 9.44971C1.44594 11.6745 0.91683 13.8992 0.392905 16.1239C0.273595 16.6391 0.149098 17.1486 0.0297881 17.6637C0.0246008 17.6807 0.0246008 17.6977 0.0194134 17.7146C0.00385123 17.7882 -0.00652354 17.8675 -0.00133616 17.9467C-0.00133616 17.9581 -0.00133616 17.9694 -0.00133616 17.975C-0.00133616 17.9807 -0.00133616 17.9864 0.00385123 17.992C0.014226 18.1052 0.055725 18.2185 0.133536 18.3204C0.143911 18.3317 0.154285 18.343 0.16466 18.3543C0.180222 18.3713 0.195784 18.3883 0.211346 18.4053L0.216534 18.4109C0.268408 18.4562 0.325469 18.4959 0.392905 18.5242C0.408467 18.5298 0.424029 18.5298 0.439591 18.5355C0.455153 18.5411 0.470716 18.5468 0.486278 18.5468C0.496652 18.5468 0.50184 18.5525 0.512215 18.5525C0.522589 18.5525 0.532964 18.5581 0.543339 18.5581C1.75719 18.7166 2.97103 18.8808 4.18488 19.0393C6.1094 19.294 8.03392 19.5488 9.95844 19.8035C10.3734 19.8601 10.7884 19.9111 11.2034 19.9677C11.2708 19.9847 11.3383 19.9903 11.4005 19.9847C11.4887 19.979 11.5717 19.9564 11.6391 19.9167C12.8634 19.5375 14.0824 19.1638 15.3066 18.7846C17.3401 18.1562 19.3683 17.5335 21.4018 16.9051C21.8635 16.7636 22.3252 16.6221 22.7868 16.4806C22.8491 16.4806 22.8958 16.4692 22.9425 16.4466ZM2.18774 13.9218C2.71166 11.6971 3.24078 9.47236 3.7647 7.24762C3.76989 7.21932 3.77508 7.19667 3.78545 7.16837C4.41313 8.27791 5.03561 9.38744 5.66328 10.497C5.72553 10.6045 5.78259 10.7121 5.84484 10.8197C4.50131 12.3877 3.15778 13.9558 1.81425 15.5239C1.93356 14.9917 2.05805 14.454 2.18774 13.9218ZM10.3112 16.1919C9.46045 14.6861 8.60972 13.1803 7.75899 11.6688C7.6293 11.4367 7.49962 11.2103 7.36993 10.9782C7.89905 10.3611 8.42297 9.74974 8.95208 9.1327C10.1192 9.76106 11.2864 10.3951 12.4536 11.0234C12.4691 11.0348 12.4847 11.0404 12.5003 11.0518C12.0334 13.2312 11.5613 15.4107 11.0945 17.5901C10.8351 17.1259 10.5757 16.6617 10.3112 16.1919ZM19.7211 13.452C18.0144 12.5292 16.3078 11.6122 14.6011 10.6895C14.3781 10.5706 14.1498 10.446 13.9268 10.3272C14.1239 9.40443 14.3262 8.47604 14.5233 7.55331C14.8813 5.89466 15.2392 4.23035 15.5971 2.57171C16.1625 3.73785 16.728 4.904 17.2934 6.07015C18.611 8.78739 19.9338 11.5046 21.2514 14.2275C21.2617 14.2558 21.2773 14.2785 21.2877 14.3068C20.7638 14.0181 20.2398 13.735 19.7211 13.452Z" fill="white"/>
</svg>
