<svg width="23" height="20" viewBox="0 0 23 20" fill="none" xmlns="http://www.w3.org/2000/svg">
<path d="M18.4442 17.7157C18.8419 16.1964 19.2397 14.6771 19.6375 13.1578C20.1168 11.3274 20.5962 9.49693 21.0755 7.66649C21.4886 6.08495 21.9068 4.49822 22.3198 2.91668C22.5187 2.15962 22.7584 1.40255 22.9165 0.635117C22.9369 0.588449 22.9471 0.54178 22.9471 0.495112C22.9573 0.386219 22.9165 0.277326 22.8451 0.189174C22.84 0.183989 22.84 0.183989 22.8349 0.178804C22.8247 0.163248 22.8094 0.147691 22.7941 0.137321C22.7074 0.0439839 22.5901 -0.0130553 22.4677 0.00250086H22.4626C22.4575 0.00250086 22.4524 0.00250086 22.4422 0.00250086C22.4371 0.00250086 22.4269 0.00768623 22.4218 0.00768623H22.4167C22.3912 0.00768623 22.3657 0.0128716 22.3351 0.0232424C21.6365 0.158062 20.9378 0.292882 20.2392 0.427702C18.4901 0.764751 16.7409 1.1018 14.9918 1.43885C12.8704 1.8485 10.749 2.25814 8.62761 2.66778C6.80199 3.01521 4.96616 3.373 3.13544 3.7256C2.24812 3.89672 1.35571 4.06784 0.468391 4.23895C0.453093 4.23895 0.442894 4.24414 0.427595 4.24414H0.422496C0.305207 4.25451 0.208316 4.31155 0.136923 4.38933C0.0553306 4.46193 0.00433542 4.56563 -0.000764095 4.69008C-0.0109631 4.87676 0.0910272 5.05824 0.249112 5.14121C0.254212 5.14121 0.254212 5.1464 0.259311 5.1464C0.672372 5.37455 1.08543 5.60789 1.50359 5.83605C2.4929 6.3857 3.48221 6.93535 4.46641 7.485C5.6597 8.14873 6.85808 8.81246 8.05137 9.47619C9.09167 10.0518 10.1269 10.6325 11.1672 11.2081C11.6312 11.4674 12.0953 11.7526 12.5695 11.9911C13.0693 12.8467 13.5639 13.7075 14.0637 14.563C14.8847 15.9786 15.7108 17.3943 16.5319 18.8099C16.7205 19.1314 16.9092 19.458 17.0928 19.7795C17.0979 19.7847 17.0979 19.7899 17.103 19.7951C17.1081 19.8003 17.1081 19.8055 17.1132 19.8106C17.3427 20.1425 17.873 19.9766 17.9393 19.6032C18.1127 18.981 18.2759 18.3484 18.4442 17.7157ZM7.94428 3.75671C10.0657 3.34707 12.1871 2.93742 14.3085 2.52778C16.1392 2.17517 17.975 1.82257 19.8058 1.46478C20.28 1.37144 20.7594 1.28329 21.2336 1.18995C20.6727 1.83812 20.1117 2.4863 19.5508 3.13965C19.3825 3.3367 19.2142 3.52856 19.0459 3.7256C18.2861 4.60712 17.5263 5.48344 16.7664 6.36496C16.5778 6.58275 16.3942 6.79535 16.2055 7.01313C16.1953 7.0235 16.1851 7.03387 16.1749 7.04424C15.7363 6.96646 15.2978 6.88868 14.8592 6.8109C13.5945 6.58275 12.3248 6.35977 11.0601 6.13162C9.53533 5.85679 8.01057 5.58715 6.48072 5.31233C5.33843 5.1101 4.19614 4.90268 3.04875 4.70045C4.68569 4.38414 6.31244 4.07302 7.94428 3.75671ZM13.8597 12.3437C13.7322 12.1259 13.6047 11.9081 13.4824 11.6903C14.3238 10.6999 15.1601 9.70434 16.0015 8.71393C16.027 8.99913 16.0525 9.28433 16.0831 9.56434C16.1596 10.394 16.2412 11.2237 16.3177 12.0585C16.4248 13.1993 16.5319 14.3401 16.639 15.4757C16.7001 16.129 16.7562 16.7824 16.8174 17.4306C16.6543 17.1505 16.4911 16.8705 16.3279 16.5905C15.5069 15.1749 14.6807 13.7593 13.8597 12.3437Z" fill="white"/>
</svg>
