<svg width="24" height="24" viewBox="0 0 24 24" fill="none" xmlns="http://www.w3.org/2000/svg">
<path d="M21.6834 13.7651C21.8478 13.7125 22.0036 13.8726 21.933 14.0301C21.5211 14.9481 20.9445 15.7844 20.2305 16.4967C18.5416 18.115 16.2797 18.9971 13.9411 18.9494C11.6026 18.9017 9.37853 17.928 7.75712 16.2422C6.07127 14.6208 5.09762 12.3967 5.0499 10.0581C5.00217 7.7196 5.88426 5.45766 7.50256 3.76881C8.21494 3.05477 9.05117 2.47815 9.96916 2.06633C10.1267 1.99568 10.2868 2.15149 10.2342 2.31588C9.74908 3.83104 9.67352 5.45055 10.0192 7.00889C10.3971 8.71251 11.2621 10.2695 12.5089 11.4904C13.7298 12.7372 15.2868 13.6022 16.9904 13.9801C18.5487 14.3258 20.1683 14.2502 21.6834 13.7651Z" fill="white"/>
</svg>
