<svg width="24" height="22" viewBox="0 0 24 22" fill="none" xmlns="http://www.w3.org/2000/svg">
<path d="M23.2102 15.1348C23.2102 15.1296 23.2154 15.1296 23.2154 15.1244C23.2154 15.1192 23.2206 15.1192 23.2206 15.1139C23.2517 15.0774 23.2776 15.0409 23.2932 14.9991C23.2932 14.9991 23.2932 14.9991 23.2932 14.9939C23.3036 14.9731 23.3087 14.9522 23.3139 14.9313C23.3139 14.9209 23.3191 14.9104 23.3191 14.9C23.3399 14.8165 23.3347 14.733 23.3036 14.6547C23.1221 14.1799 22.9354 13.705 22.7539 13.2302C22.3131 12.0874 21.8724 10.9498 21.4316 9.80702C20.8975 8.41897 20.3634 7.03093 19.8241 5.6481C19.3626 4.45313 18.9011 3.25815 18.4396 2.0684C18.2166 1.48918 18.0092 0.899521 17.7655 0.325517C17.7603 0.31508 17.7603 0.309862 17.7551 0.299426C17.7551 0.294208 17.7499 0.294208 17.7499 0.288989C17.7447 0.273335 17.7396 0.262898 17.7292 0.252462C17.7292 0.247244 17.724 0.242025 17.724 0.242025C17.7136 0.226371 17.7033 0.205498 17.6929 0.189843C17.6825 0.174189 17.6721 0.158534 17.6566 0.148097C17.6514 0.142879 17.6462 0.137661 17.641 0.132443C17.6359 0.127225 17.6307 0.116788 17.6203 0.11157C17.584 0.0802606 17.5425 0.0593877 17.501 0.0385149C17.4958 0.0332966 17.4855 0.0332966 17.4803 0.0280784C17.4647 0.0228602 17.4492 0.017642 17.4336 0.0124238C17.4232 0.00720557 17.4129 0.00720557 17.4025 0.00198735C17.3921 0.00198735 17.3869 0.00198735 17.3766 0.00198735C17.3714 0.00198735 17.3662 0.00198735 17.361 0.00198735C17.2418 -0.00844909 17.1329 0.0228602 17.0447 0.0959153C17.0188 0.116788 16.9929 0.137661 16.9721 0.158534C16.0439 1.11347 15.1157 2.07362 14.1875 3.02855C12.7097 4.55227 11.237 6.07077 9.75914 7.59449C9.46357 7.90237 9.16281 8.21024 8.86724 8.51812C8.79465 8.53377 8.71686 8.55464 8.64427 8.5703C8.18795 8.67466 7.73163 8.77381 7.27531 8.87817C5.88042 9.19127 4.48035 9.50958 3.08546 9.82267C2.48913 9.95834 1.88762 10.094 1.29129 10.2297C1.00609 10.2923 0.710518 10.3497 0.430504 10.4228C0.373464 10.4228 0.316424 10.4436 0.259384 10.4697C0.150489 10.5115 0.0778925 10.6002 0.0312234 10.7098C0.0156671 10.7411 0.00529615 10.7724 0.000110692 10.8089C0.000110692 10.8141 0.000110692 10.8141 0.000110692 10.8194C-0.031002 10.9498 -0.00507477 11.0855 0.114191 11.2055C0.119376 11.2107 0.124562 11.2159 0.134933 11.2212C0.145303 11.2264 0.150489 11.2368 0.155674 11.242C0.596438 11.5969 1.0372 11.9517 1.47797 12.3065C2.53061 13.1519 3.58326 13.9972 4.63591 14.8478C5.91153 15.8758 7.19234 16.9038 8.46796 17.9318C9.56728 18.8189 10.6666 19.7008 11.7711 20.5879C12.3104 21.021 12.8341 21.4645 13.3838 21.8872C13.389 21.8924 13.3993 21.8976 13.4045 21.9028C13.4253 21.9185 13.4512 21.9342 13.4771 21.9498C13.6067 22.0229 13.7779 22.0385 13.9127 21.9655C13.9749 21.9394 14.0268 21.9028 14.0683 21.8559C15.069 21.1201 16.0698 20.3843 17.0706 19.6538C18.7092 18.4484 20.353 17.2482 21.9916 16.0428C22.3494 15.7767 22.7124 15.5157 23.0702 15.2496C23.1117 15.2235 23.1532 15.1922 23.1895 15.1557C23.1947 15.1505 23.1947 15.1505 23.1998 15.1453C23.205 15.1348 23.2102 15.1348 23.2102 15.1348ZM18.7766 5.46546C19.3108 6.85351 19.8449 8.24155 20.3841 9.62438C20.8456 10.8194 21.3072 12.0143 21.7687 13.2041C21.8827 13.5015 21.9968 13.799 22.1109 14.0912C21.4731 13.8929 20.8301 13.6946 20.1923 13.4911C18.7092 13.0267 17.2262 12.5675 15.7432 12.103C15.5565 12.0456 15.3698 11.9882 15.1831 11.9308C15.458 10.7306 15.7328 9.53567 16.0076 8.33548C16.4899 6.23254 16.9721 4.12438 17.4544 2.02144C17.4544 2.02666 17.4595 2.03187 17.4595 2.03709C17.8951 3.1851 18.3359 4.32267 18.7766 5.46546ZM3.55215 10.6628C5.1026 10.3132 6.65305 9.96356 8.2035 9.61394C8.48352 9.55132 8.75835 9.4887 9.03836 9.42609C10.6147 10.3706 12.1911 11.3151 13.7623 12.2596C13.8816 12.3326 14.0008 12.4057 14.1201 12.4735C13.9801 13.1728 13.8349 13.8668 13.6949 14.566C13.389 14.4721 13.083 14.373 12.7771 14.279C11.6933 13.9398 10.6147 13.6007 9.53098 13.2563C8.22943 12.844 6.92788 12.437 5.62115 12.0248C4.49072 11.6699 3.36029 11.3151 2.22467 10.9602C2.67062 10.8611 3.11138 10.762 3.55215 10.6628ZM14.5868 20.3269C14.4623 20.4157 14.3379 20.5096 14.2134 20.5983C14.2912 19.0798 14.3742 17.5561 14.452 16.0376C14.4572 15.8915 14.4675 15.7453 14.4727 15.6045C15.3387 15.5731 16.2047 15.5366 17.0706 15.5053C18.5122 15.4479 19.9486 15.3957 21.3901 15.3383C20.7627 15.7975 20.1352 16.2567 19.5078 16.7212C17.8692 17.9213 16.2254 19.1268 14.5868 20.3269Z" fill="white"/>
</svg>
