<svg width="12" height="10" viewBox="0 0 12 10" fill="none" xmlns="http://www.w3.org/2000/svg">
<path d="M11.1891 0.00511427C10.702 0.348658 10.1628 0.611414 9.59208 0.783263C9.28577 0.431067 8.87869 0.18144 8.42589 0.0681423C7.97309 -0.045155 7.49642 -0.0166558 7.06034 0.149785C6.62426 0.316227 6.24982 0.612579 5.98767 0.998762C5.72551 1.38495 5.58827 1.84233 5.59453 2.30904V2.81764C4.70075 2.84081 3.8151 2.64259 3.01647 2.24061C2.21785 1.83864 1.53103 1.24539 1.01719 0.513708C1.01719 0.513708 -1.01719 5.09105 3.56016 7.12543C2.51272 7.83642 1.26495 8.19293 0 8.14261C4.57734 10.6856 10.1719 8.14261 10.1719 2.29379C10.1714 2.15212 10.1578 2.0108 10.1312 1.87165C10.6503 1.35975 11.0166 0.713439 11.1891 0.00511427V0.00511427Z" fill="white"/>
</svg>
