<svg width="23" height="23" viewBox="0 0 23 23" fill="none" xmlns="http://www.w3.org/2000/svg">
<path d="M0.195047 17.4195C0.200046 17.4245 0.210045 17.4294 0.215045 17.4344C0.230043 17.4443 0.25004 17.4542 0.270038 17.4642C0.275038 17.4691 0.280037 17.4691 0.285036 17.4691C0.310034 17.4791 0.335031 17.489 0.355028 17.494H0.360028C0.365027 17.494 0.370027 17.494 0.375026 17.4989C0.380026 17.4989 0.380026 17.4989 0.385025 17.5039C0.390024 17.5039 0.390024 17.5039 0.395024 17.5089C1.14494 17.7472 1.90485 17.9508 2.65976 18.1742C4.21958 18.6311 5.77941 19.0879 7.34422 19.5447C9.14402 20.071 10.9438 20.5974 12.7436 21.1287C14.2334 21.5656 15.7183 22.0026 17.2081 22.4346C17.833 22.6183 18.4529 22.7971 19.0779 22.9808C19.2579 23.0354 19.4178 22.9709 19.5278 22.8517C19.5378 22.8418 19.5428 22.8318 19.5528 22.8219C19.5628 22.812 19.5678 22.802 19.5728 22.7921C19.6078 22.7425 19.6428 22.6928 19.6628 22.6282C19.7778 22.236 19.8978 21.8437 20.0128 21.4514C20.5177 19.7533 21.0277 18.0551 21.5326 16.3569C21.8526 15.2943 22.1675 14.2267 22.4875 13.1641C22.5025 13.1095 22.5075 13.0598 22.4975 13.0052C22.4925 12.9307 22.4725 12.8612 22.4275 12.7966C22.4225 12.7917 22.4225 12.7867 22.4175 12.7817C22.4125 12.7669 22.4025 12.7569 22.3925 12.747C22.0575 12.2306 21.6676 11.744 21.3126 11.2474C20.5627 10.2047 19.8078 9.16193 19.0579 8.11422C18.183 6.90265 17.3131 5.69108 16.4382 4.47454C15.7183 3.48641 14.9983 2.48836 14.2834 1.4903C13.9835 1.0732 13.6835 0.656103 13.3835 0.234039C13.3335 0.164523 13.2685 0.109903 13.1986 0.0751444C13.0136 -0.0340957 12.7736 -0.0390612 12.6236 0.159557C12.6186 0.169488 12.6086 0.179419 12.6036 0.18935C12.4286 0.392934 12.2787 0.621345 12.1137 0.834859C11.7737 1.28672 11.4288 1.74354 11.0888 2.19539C10.0489 3.57083 9.01403 4.94626 7.97415 6.32169C6.77429 7.9156 5.56943 9.50455 4.36957 11.0985C3.37468 12.4193 2.3748 13.7401 1.37991 15.0609C0.964958 15.6121 0.550006 16.1632 0.135054 16.7094C6.92219e-05 16.8832 -0.049925 17.0967 0.0700612 17.2904C0.0900589 17.3202 0.115056 17.35 0.145053 17.3798L0.150052 17.3847C0.16505 17.3947 0.180049 17.4096 0.195047 17.4195ZM11.7687 2.86573C11.5287 3.6751 11.2938 4.48447 11.0538 5.29881C10.6788 6.565 10.3089 7.83615 9.93393 9.10234C9.62396 10.1501 9.319 11.1978 9.00903 12.2455C8.90405 12.603 8.79906 12.9555 8.69407 13.3131C8.4291 13.4173 8.15913 13.5216 7.89416 13.6259C6.34434 14.2317 4.79952 14.8374 3.2497 15.4432C2.78975 15.622 2.3248 15.8057 1.86485 15.9845C2.02984 15.766 2.19482 15.5475 2.3598 15.329C3.39968 13.9536 4.43456 12.5782 5.47444 11.2027C6.6743 9.60882 7.87916 8.01988 9.07903 6.42596C9.97892 5.23922 10.8738 4.05247 11.7687 2.86573ZM18.9429 21.665C18.7179 21.4663 18.4929 21.2677 18.268 21.0741C16.4632 19.4901 14.6584 17.9061 12.8486 16.3221C11.9987 15.5773 11.1538 14.8325 10.3039 14.0926C10.4339 14.0877 10.5639 14.0827 10.6938 14.0728C13.0136 13.9635 15.3333 13.8543 17.653 13.7401C18.8879 13.6805 20.1278 13.6209 21.3626 13.5613C21.3076 13.745 21.2526 13.9288 21.1976 14.1125C20.6927 15.8107 20.1827 17.5089 19.6778 19.2071C19.4328 20.0313 19.1879 20.8506 18.9429 21.665Z" fill="white"/>
</svg>
