<svg width="3081" height="1356" viewBox="0 0 3081 1356" fill="none" xmlns="http://www.w3.org/2000/svg">
<path d="M54.4733 585.983L667.766 435.726C677.079 433.249 685.964 429.143 693.909 423.704C726.238 402.313 812.331 311.006 826.742 321.786L1242.92 658.594C1271.19 679.791 1303.61 695.18 1337.93 703.509C1345.45 705.308 1352.75 707.913 1359.89 711.124L1626.13 831.976C1664.3 849.337 1704.51 853.409 1741.13 838.575C1756.9 832.204 1773.53 828.229 1790.47 827.146L2373.65 795.737C2393.64 793.743 2414.06 796.62 2432.73 804.432L3011.17 1043.31" stroke="#F30EF6" stroke-opacity="0.2" stroke-miterlimit="10"/>
<path d="M54.3438 581.624L662.618 431.536C671.985 428.857 680.816 424.953 688.962 419.568C721.95 398.138 807.557 308.646 822.317 319.736C822.465 319.992 856.258 347.208 856.405 347.464L989.987 457.418C990.135 457.673 1022.27 483.798 1022.48 483.852C1023.38 484.526 1129.81 569.908 1130.83 569.317C1130.83 569.317 1136.53 573.872 1136.59 573.67L1239.22 653.061C1266.94 673.893 1300.65 687.683 1334.36 695.85C1341.67 697.595 1349.54 699.703 1356.48 702.86L1363.07 705.706L1380.12 713.086C1380.58 712.992 1446.61 742.576 1447.01 742.684C1447.21 742.738 1471.09 753.678 1471.3 753.732L1474.97 755.364L1622.16 824.209C1659.77 841.206 1700.36 847.107 1736.62 832.825C1737.84 832.288 1739.27 831.805 1740.44 831.471C1755.02 826.296 1770.37 823.059 1785.89 822.459C1786.29 822.567 1861.95 818.624 1862.81 818.639C1863.93 818.505 2028.16 807.595 2029.23 807.663C2030.09 807.678 2171.81 800.897 2171.74 801.959C2171.82 803.278 2364.24 794.514 2364.32 795.833C2381.32 794.549 2398.2 796.91 2414.22 802.499C2416.99 803.458 2419.5 804.564 2422.22 805.724C2422.26 806.384 2518.3 846.605 2519.06 847.023C2519.61 847.387 2601.08 880.675 2601.73 880.636C2601.94 880.69 2629.81 892.051 2630.07 891.904L2631.02 892.376L3002.22 1042" stroke="#F30EF6" stroke-opacity="0.2" stroke-miterlimit="10"/>
<path d="M54.362 577.521L657.563 427.803C666.931 425.124 675.761 421.22 683.907 415.835C717.609 394.164 802.676 306.689 817.987 318.143C818.538 318.507 851.726 345.561 852.021 346.073L984.821 457.33C985.116 457.842 1016.7 483.603 1017.26 483.967C1018.85 485.26 1124.4 569.108 1126.19 568.074C1126.19 568.074 1131.74 572.372 1132 572.225L1235.04 648.482C1262.21 668.95 1297.21 681.141 1330.32 689.146C1337.63 690.89 1345.86 692.447 1352.6 695.55C1352.6 695.55 1359.19 698.397 1359.25 698.195C1359.5 698.047 1376.15 705.319 1376.35 705.373C1377.32 704.984 1442.59 734.149 1443.6 734.42C1444.01 734.528 1467.48 745.359 1467.89 745.467C1467.89 745.467 1471.56 747.1 1471.51 747.301L1617.61 817.799C1654.41 834.58 1695.63 842.164 1731.27 828.58C1732.49 828.044 1733.87 827.763 1735.09 827.226C1749.82 822.307 1765.06 819.474 1780.58 818.874C1781.33 819.292 1856.07 815.536 1857.59 815.511C1859.98 815.501 2021.71 802.623 2023.69 802.504C2025.67 802.386 2165.35 796.786 2165.61 799.019C2165.82 801.455 2354.46 794.704 2354.62 797.341C2371.25 796.608 2387.88 799.117 2403.59 805.056C2406.36 806.014 2408.87 807.121 2411.59 808.281C2411.81 809.855 2506.39 849.9 2507.75 850.48C2508.91 851.006 2589.42 883.822 2590.79 883.542C2591.25 883.448 2618.78 894.5 2619.18 894.608L2620.14 895.08L2992.8 1041.64" stroke="#F30EF6" stroke-opacity="0.2" stroke-miterlimit="10"/>
<path d="M54.4342 573.216L652.415 423.613C661.782 420.934 670.667 416.828 678.759 411.645C713.322 389.988 797.754 304.073 813.563 316.093C814.262 316.712 846.898 343.403 847.543 344.224L979.615 456.584C980.058 457.352 1011.24 483.004 1012 483.422C1014.5 485.39 1118.95 567.648 1121.77 566.024C1122.02 565.876 1127.37 570.12 1127.57 570.175L1231.02 643.297C1257.64 663.402 1293.94 673.994 1326.23 681.782C1333.35 683.472 1342.09 684.734 1348.63 687.783C1348.88 687.635 1355.27 690.428 1355.27 690.428C1355.53 690.28 1372.03 697.296 1372.49 697.202C1373.91 696.72 1438.49 725.265 1440.1 725.698C1440.71 725.86 1463.98 736.638 1464.33 736.947C1464.33 736.947 1468 738.58 1467.95 738.781L1613.21 810.785C1649.27 827.148 1691.06 836.616 1726.08 823.731C1727.31 823.194 1728.68 822.914 1729.85 822.579C1744.47 818.063 1759.66 815.431 1775.32 815.087C1776.48 815.613 1850.05 812.193 1852.49 811.98C1855.98 811.837 2015.17 797.193 2018.21 797.143C2021.05 797.039 2159.13 792.527 2159.33 795.823C2159.62 799.577 2344.53 794.638 2344.77 798.594C2361.09 798.21 2377.41 801.069 2392.81 807.357C2395.32 808.463 2398.04 809.623 2400.55 810.729C2400.82 812.963 2493.93 852.831 2496.04 853.829C2497.75 854.719 2577.36 886.862 2579.19 886.487C2579.85 886.448 2607.03 897.189 2607.64 897.352L2608.59 897.824L2982.93 1041.37" stroke="#F30EF6" stroke-opacity="0.2" stroke-miterlimit="10"/>
<path d="M54.5065 568.911L647.415 419.678C656.782 416.999 665.667 412.894 673.961 407.765C709.237 385.866 793.129 301.969 809.488 314.352C810.591 315.08 842.621 341.608 843.414 342.685L974.704 456.349C975.295 457.373 1006.13 482.715 1007.03 483.389C1010.23 485.976 1113.8 566.7 1117.58 564.687C1117.84 564.539 1123.19 568.783 1123.45 568.636L1227.3 638.624C1253.42 658.163 1291.01 667.156 1322.65 674.984C1329.56 676.62 1338.67 677.331 1345.21 680.379C1345.46 680.232 1351.65 682.97 1351.9 682.822C1352.42 682.527 1368.51 689.435 1369.17 689.395C1371.31 688.671 1434.99 716.543 1436.95 717.286C1437.76 717.502 1460.68 727.97 1461.38 728.589C1461.58 728.643 1465.05 730.222 1465 730.423L1609.37 804.135C1644.67 820.079 1687.24 831.486 1721.44 819.245C1722.67 818.709 1724.04 818.428 1725.21 818.093C1739.98 813.833 1755.06 811.605 1770.52 811.207C1772.03 812.043 1844.74 808.607 1847.78 808.557C1852.34 808.482 2008.97 792.073 2013.13 791.89C2016.83 791.801 2153.18 788.12 2153.51 792.533C2153.94 797.404 2335.06 794.478 2335.38 799.752C2351.34 799.92 2367.34 803.128 2382.54 809.362C2385.05 810.468 2387.57 811.574 2390.23 812.936C2390.68 816.085 2482.33 855.776 2485.19 857.192C2487.51 858.244 2566.11 890.117 2568.65 889.501C2569.57 889.314 2596.34 899.948 2597.21 899.962L2598.16 900.434L2973.97 1040.91" stroke="#F30EF6" stroke-opacity="0.2" stroke-miterlimit="10"/>
<path d="M54.3774 564.552L642.267 415.488C651.634 412.809 660.519 408.704 668.813 403.575C704.748 381.637 788.153 299.555 805.064 312.302C806.314 313.286 838.05 339.302 838.936 340.837L969.242 455.751C969.981 457.03 1000.26 482.009 1001.51 482.992C1005.61 486.253 1108.15 565.187 1112.9 562.784C1113.16 562.637 1118.56 566.679 1118.62 566.477L1222.93 633.13C1248.5 652.305 1287.59 659.752 1318.42 667.364C1325.13 668.947 1334.75 669.362 1341.14 672.155C1341.39 672.007 1347.63 674.544 1347.89 674.396C1348.4 674.101 1364.55 680.807 1365.06 680.511C1367.66 679.694 1430.64 706.946 1433.21 707.851C1434.21 708.121 1456.94 718.535 1457.64 719.154C1457.84 719.208 1461.26 720.988 1461.26 720.988L1604.74 796.407C1639.23 812.135 1682.43 825.224 1716.22 813.737C1717.39 813.402 1718.76 813.121 1719.93 812.786C1734.59 808.93 1749.67 806.701 1765.23 806.761C1767.14 807.705 1838.68 804.604 1842.58 804.569C1848.26 804.361 2002.33 786.186 2007.6 785.87C2012.42 785.647 2146.93 783.203 2147.39 788.732C2147.69 794.867 2325.24 794.009 2325.64 800.601C2341.28 801.118 2357.18 804.73 2371.87 811.259C2374.38 812.365 2376.84 813.673 2379.3 814.981C2379.8 818.789 2470.12 858.559 2473.59 860.138C2476.46 861.554 2554.16 892.752 2557.42 891.895C2558.53 891.762 2584.96 902.086 2586.02 902.155C2586.02 902.155 2586.98 902.627 2587.03 902.425L2964.31 1039.84" stroke="#F30EF6" stroke-opacity="0.2" stroke-miterlimit="10"/>
<path d="M54.4496 560.247L637.119 411.298C646.486 408.619 655.371 404.513 663.866 399.439C700.717 377.313 783.232 296.939 800.64 310.252C802.24 311.545 833.424 337.198 834.458 338.989L964.037 455.005C964.923 456.539 994.803 481.41 996.255 482.448C1001.05 486.328 1102.71 563.727 1108.48 560.734C1108.74 560.586 1113.99 564.373 1114.25 564.225L1218.97 627.744C1243.99 646.555 1284.37 652.403 1314.59 659.853C1321.31 661.435 1331.29 661.299 1337.42 664.24C1337.68 664.092 1343.92 666.629 1344.17 666.481C1344.94 666.038 1360.69 672.636 1361.4 672.395C1364.51 671.282 1426.73 698.116 1429.7 699.129C1430.86 699.655 1453.24 709.759 1454.14 710.432C1454.34 710.487 1457.76 712.267 1457.76 712.267L1600.35 789.393C1634.09 804.703 1677.87 819.676 1711.08 808.686C1712.25 808.351 1713.63 808.07 1714.8 807.735C1729.4 804.08 1744.58 802.31 1760.08 802.571C1762.54 803.879 1833.02 800.71 1837.58 800.635C1844.52 800.549 1995.89 780.353 2002.03 780.052C2007.71 779.843 2140.62 778.486 2141.02 785.079C2141.46 792.33 2315.22 793.485 2315.69 801.396C2330.98 802.465 2346.57 806.425 2360.99 813.102C2363.51 814.209 2365.97 815.517 2368.38 817.026C2369.06 821.749 2457.97 861.141 2462.14 863.339C2465.55 865.119 2542.36 895.644 2546.27 894.747C2547.65 894.466 2573.67 904.682 2575.13 904.859L2576.14 905.129L2954.89 1039.48" stroke="#F30EF6" stroke-opacity="0.2" stroke-miterlimit="10"/>
<path d="M54.4676 556.144L632.064 407.565C641.485 404.685 650.572 400.633 658.812 395.706C696.321 373.541 778.35 294.982 796.309 308.659C798.111 310.007 828.892 335.551 830.073 337.597L958.87 454.918C959.85 456.91 989.435 481.269 991.034 482.563C996.733 487.117 1097.3 562.927 1103.84 559.491C1104.1 559.343 1109.35 563.13 1109.66 562.78L1214.99 623.219C1239.46 641.666 1281.14 645.915 1310.75 653.202C1317.26 654.731 1327.76 654.299 1333.94 657.038C1334.2 656.89 1340.29 659.171 1340.75 659.078C1341.52 658.635 1357.12 664.977 1358.09 664.588C1361.65 663.382 1423.18 689.596 1426.75 690.771C1428.11 691.351 1450.09 701.347 1451.13 702.276C1451.34 702.33 1454.55 704.056 1454.75 704.11L1596.45 782.944C1629.44 797.836 1673.79 814.694 1706.39 804.402C1707.56 804.067 1708.94 803.786 1710.11 803.451C1724.8 800.254 1739.73 798.631 1755.43 798.946C1758.29 800.362 1827.6 797.528 1833.02 797.467C1841.08 797.249 1989.9 775.288 1997.1 775.054C2003.64 774.861 2134.76 774.537 2135.29 782.247C2135.81 790.817 2305.84 793.783 2306.6 803.067C2321.57 804.484 2336.85 808.795 2350.97 815.821C2353.43 817.129 2355.69 818.383 2358.15 819.691C2358.87 825.073 2446.26 864.49 2451.24 866.904C2455.26 868.846 2531.11 898.899 2535.53 897.707C2537.11 897.48 2562.83 907.185 2564.5 907.415L2565.51 907.686L2945.73 1038.97" stroke="#F30EF6" stroke-opacity="0.2" stroke-miterlimit="10"/>
<path d="M54.3383 551.785L626.916 403.375C636.337 400.494 645.424 396.443 653.664 391.516C691.887 369.109 773.375 292.568 791.886 306.609C793.835 308.212 824.266 333.447 825.595 335.749L953.61 454.373C954.738 456.621 983.771 480.616 985.72 482.22C992.119 487.393 1091.8 561.669 1099.36 557.642C1099.82 557.548 1104.93 561.079 1105.24 560.73L1211.03 617.833C1235 635.715 1277.92 638.566 1306.93 645.691C1313.24 647.165 1324.3 646.237 1330.28 648.921C1330.59 648.572 1336.63 651.055 1336.94 650.705C1337.96 650.115 1353.41 656.201 1354.38 655.812C1358.46 654.31 1419.29 679.905 1423.21 681.39C1424.57 681.97 1446.54 691.966 1447.79 692.949C1448 693.003 1451.21 694.729 1451.36 694.985L1592.02 775.27C1624.2 789.946 1669.19 808.486 1701.17 798.893C1702.34 798.558 1703.66 798.479 1704.83 798.144C1719.47 795.149 1734.48 793.983 1749.93 794.446C1753.14 796.172 1821.54 793.525 1827.62 793.425C1836.74 793.275 1983.06 769.347 1991.37 768.98C1998.83 768.599 2128.31 769.565 2128.97 778.391C2129.62 788.078 2295.87 793.058 2296.71 803.66C2311.52 805.683 2326.34 810.087 2340.15 817.462C2342.61 818.77 2344.87 820.024 2347.27 821.534C2348.24 827.629 2434.11 867.071 2439.84 869.903C2444.41 872.209 2519.15 901.534 2524.44 900.357C2526.27 899.983 2551.8 909.633 2553.47 909.864L2554.48 910.134L2936.36 1038.41" stroke="#F30EF6" stroke-opacity="0.2" stroke-miterlimit="10"/>
<path d="M54.4105 547.48L621.767 399.185C631.189 396.304 640.275 392.253 648.717 387.38C687.801 364.988 768.656 290.006 787.663 304.613C790.016 306.324 819.842 331.397 821.319 333.954L948.606 453.681C949.881 456.185 978.511 480.072 980.662 481.729C987.961 487.577 1086.55 560.263 1095.09 555.848C1095.6 555.552 1100.71 559.083 1100.96 558.935L1207.16 612.905C1230.58 630.422 1274.79 631.674 1303.2 638.637C1309.3 640.057 1320.93 638.632 1326.71 641.262C1327.22 640.967 1333.11 643.194 1333.37 643.046C1334.39 642.456 1349.7 648.286 1350.87 647.951C1355.4 646.356 1415.53 671.331 1420.06 672.978C1421.62 673.612 1443.19 683.5 1444.64 684.537C1444.84 684.591 1448.06 686.317 1448.21 686.573L1587.98 768.566C1619.41 782.824 1665.17 803.302 1696.53 794.408C1697.7 794.073 1699.02 793.994 1700.19 793.659C1714.93 791.121 1729.89 790.157 1745.28 790.822C1748.9 792.656 1816.37 790.196 1823.11 790.056C1833.55 789.827 1977.32 764.133 1986.49 763.781C1995.01 763.469 2122.56 765.213 2123.35 775.156C2124.08 786.161 2286.6 792.953 2287.46 805.075C2301.96 807.447 2316.42 812.402 2329.97 819.925C2332.23 821.179 2334.64 822.689 2336.84 824.144C2337.79 831.101 2422.4 870.42 2428.73 873.414C2433.91 875.883 2507.7 904.736 2513.65 903.519C2515.68 903.198 2540.86 912.539 2542.73 912.824L2543.74 913.094L2927.09 1038.3" stroke="#F30EF6" stroke-opacity="0.2" stroke-miterlimit="10"/>
<path d="M54.4828 543.176L616.767 395.251C626.188 392.37 635.275 388.318 643.717 383.445C683.514 360.812 763.828 287.848 783.239 302.562C785.739 304.529 815.216 329.292 816.841 332.106L943.144 453.082C944.567 455.842 972.847 479.419 975.146 481.332C983.144 487.8 1080.85 558.951 1090.41 553.945C1090.92 553.65 1095.82 557.127 1096.34 556.831L1202.94 607.666C1225.61 624.766 1271.31 624.472 1298.91 631.219C1305.02 632.639 1316.96 630.865 1322.54 633.441C1323.05 633.146 1328.74 635.319 1329.25 635.023C1330.53 634.285 1345.43 640.007 1346.85 639.525C1352.1 637.688 1411.27 662.191 1416.21 663.946C1417.97 664.635 1439.14 674.414 1440.79 675.506C1440.94 675.761 1444.21 677.286 1444.35 677.541L1583.24 761.241C1614.12 775.136 1660.25 797.444 1690.99 789.248C1692.16 788.913 1693.48 788.834 1694.6 788.701C1709.28 786.365 1724.13 785.805 1739.73 786.523C1743.75 788.466 1810.05 786.341 1817.86 786.27C1829.36 786.109 1970.62 758.448 1980.86 758.165C1990.24 757.867 2116.2 760.698 2116.93 771.704C2117.79 783.826 2276.52 792.631 2277.46 806.071C2291.6 808.995 2306 814.151 2319.1 821.768C2321.36 823.022 2323.56 824.478 2325.92 826.189C2327.1 833.859 2410.05 872.948 2417.13 876.36C2422.86 879.192 2495.75 907.371 2502.41 905.913C2504.5 905.391 2529.47 914.677 2531.6 914.814L2532.61 915.085L2917.38 1037.43" stroke="#F30EF6" stroke-opacity="0.2" stroke-miterlimit="10"/>
<path d="M54.5551 538.87L611.821 391.114C621.242 388.234 630.329 384.182 638.972 379.363C679.429 356.691 759.256 285.542 779.218 300.62C782.122 302.695 811.048 327.094 812.766 330.365L938.287 452.646C939.858 455.661 967.588 478.874 970.235 481.097C979.134 488.238 1075.75 557.801 1086.13 552.15C1086.64 551.855 1091.6 555.13 1092.11 554.835L1199.18 602.334C1221.3 619.07 1268.5 617.231 1295.29 623.762C1301.19 625.128 1313.7 622.856 1319.07 625.378C1319.59 625.083 1325.33 627.054 1325.84 626.759C1327.12 626.021 1341.87 631.487 1343.3 631.005C1349.01 629.074 1407.48 652.958 1413.02 654.875C1414.98 655.617 1435.95 665.343 1437.55 666.636C1437.69 666.892 1440.96 668.416 1441.11 668.672L1579.11 754.079C1609.17 767.758 1655.94 791.748 1686.11 784.049C1687.29 783.715 1688.55 783.837 1689.92 783.556C1704.7 781.678 1719.55 781.117 1735.04 782.239C1739.41 784.491 1804.8 782.554 1813.31 782.241C1825.93 781.947 1964.64 752.521 1976 752.105C1986.24 751.821 2110.61 755.741 2111.27 767.809C2112.21 781.25 2267.16 792.068 2268.23 806.625C2282.06 809.898 2296.1 815.606 2308.94 823.37C2311.14 824.826 2313.35 826.281 2315.55 827.737C2316.73 836.268 2398.41 875.234 2406.24 879.064C2412.58 882.058 2484.51 909.765 2491.83 908.268C2494.12 907.8 2518.75 916.776 2521.28 917.021L2522.28 917.292L2908.53 1036.57" stroke="#F30EF6" stroke-opacity="0.2" stroke-miterlimit="10"/>
<path d="M54.3717 534.713L606.417 387.072C616.094 384.043 624.979 379.938 633.568 375.32C674.886 352.663 753.878 283.019 774.539 298.717C777.59 301.049 806.166 325.138 808.032 328.665L932.826 452.047C934.544 455.318 961.87 478.424 964.72 480.701C974.317 488.461 1070.1 556.288 1081.4 550.45C1081.91 550.154 1086.92 553.228 1087.43 552.932L1194.91 597.298C1216.53 613.468 1264.97 610.231 1291.15 616.6C1296.86 617.912 1309.67 615.291 1315.1 617.611C1315.61 617.316 1321.36 619.287 1321.87 618.992C1323.35 618.307 1337.95 623.518 1339.43 622.834C1345.65 620.608 1403.37 644.074 1409.32 646.099C1411.48 646.896 1432.04 656.513 1434.05 657.914C1434.39 658.224 1437.46 659.694 1437.61 659.95L1574.77 746.863C1604.08 760.123 1651.63 786.052 1680.98 778.998C1682.15 778.663 1683.42 778.786 1684.73 778.707C1699.46 777.03 1714.2 776.873 1729.69 777.995C1734.46 780.355 1798.73 778.551 1808.06 778.455C1821.74 778.229 1957.95 746.836 1970.17 746.434C1981.52 746.017 2103.85 751.118 2104.84 764.357C2105.86 779.116 2257.29 791.8 2258.24 807.622C2271.7 811.446 2285.48 817.301 2298.01 825.415C2300.22 826.871 2302.37 828.528 2304.57 829.984C2305.99 839.228 2386.15 878.219 2394.59 882.211C2401.47 885.569 2472.51 912.603 2480.29 911.012C2482.83 910.396 2507.11 919.062 2509.84 919.362L2510.85 919.632L2898.56 1035.84" stroke="#F30EF6" stroke-opacity="0.2" stroke-miterlimit="10"/>
<path d="M54.4442 530.408L601.416 383.138C611.094 380.109 619.978 376.003 628.568 371.386C670.599 348.487 749.05 280.861 770.262 296.923C773.663 299.564 801.688 323.289 803.702 327.072L927.713 451.758C929.579 455.285 956.556 478.081 959.553 480.614C970.051 489.048 1064.75 555.286 1077.07 548.857C1077.58 548.561 1082.59 551.635 1083.16 551.138L1191.04 592.369C1212.11 608.175 1261.89 603.138 1287.42 609.546C1293.12 610.858 1306.3 607.685 1311.48 610.154C1311.99 609.858 1317.58 611.574 1318.3 611.332C1319.83 610.446 1334.24 615.603 1335.92 614.973C1342.59 612.654 1399.67 635.298 1406.16 637.687C1408.53 638.538 1428.89 648.101 1430.89 649.502C1431.24 649.812 1434.31 651.282 1434.46 651.538L1570.73 740.159C1599.29 753.001 1647.61 780.868 1676.34 774.513C1677.51 774.178 1678.78 774.3 1680.1 774.221C1694.91 773.002 1709.6 773.047 1725.04 774.371C1730.16 777.041 1793.52 775.423 1803.5 775.288C1818.5 774.983 1951.96 741.77 1965.24 741.437C1977.45 741.035 2098.18 747.223 2099.11 761.525C2100.26 777.401 2247.91 792.098 2248.94 809.238C2262.04 813.613 2275.56 819.616 2287.78 828.08C2289.99 829.535 2291.94 831.139 2294.09 832.796C2295.49 842.901 2374.44 881.567 2383.58 886.18C2391.02 889.902 2461.15 916.261 2469.64 914.429C2472.39 913.867 2496.31 922.224 2499.24 922.577C2499.45 922.631 2500.25 922.848 2500.25 922.848L2889.64 1036.05" stroke="#F30EF6" stroke-opacity="0.2" stroke-miterlimit="10"/>
<path d="M54.516 526.104L596.268 378.947C605.945 375.919 615.032 371.867 623.621 367.25C666.513 344.365 744.276 278.501 766.04 294.927C769.642 297.622 797.263 321.239 799.425 325.277L922.655 451.268C924.669 455.05 951.04 477.684 954.441 480.325C965.692 489.177 1059.45 554.082 1072.73 547.264C1073.45 547.023 1078.11 549.786 1078.88 549.343L1187.17 587.441C1207.68 602.883 1258.77 596.246 1283.69 602.492C1289.19 603.75 1302.88 600.282 1308.11 602.549C1308.67 602.052 1314.22 603.969 1314.98 603.526C1316.72 602.694 1330.77 607.541 1332.71 606.763C1339.9 604.148 1396.22 626.374 1403.12 628.872C1405.69 629.776 1425.64 639.231 1427.85 640.687C1428.2 640.997 1431.26 642.467 1431.36 642.924L1566.54 733.198C1594.29 745.824 1644.68 780.514 1671.36 769.717C1672.47 769.584 1673.74 769.707 1675.06 769.628C1689.82 768.61 1704.6 769.112 1719.98 770.638C1725.51 773.416 1787.75 771.932 1798.59 771.811C1814.66 771.575 1945.56 736.596 1960.01 735.928C1973.09 735.541 2092.08 742.561 2093.14 757.98C2094.37 775.174 2238.29 791.683 2239.54 810.397C2252.33 815.121 2265.5 821.676 2277.46 830.287C2279.67 831.743 2281.56 833.548 2283.71 835.205C2285.36 846.023 2362.58 884.661 2372.53 889.489C2380.57 893.373 2449.75 919.261 2458.9 917.389C2461.9 916.68 2485.42 924.928 2488.56 925.336C2488.76 925.39 2489.57 925.606 2489.57 925.606L2880.42 1035.74" stroke="#F30EF6" stroke-opacity="0.2" stroke-miterlimit="10"/>
<path d="M54.3868 521.745L591.12 374.757C600.797 371.729 609.884 367.677 618.473 363.06C662.079 339.934 739.301 276.087 761.414 292.822C765.366 295.827 792.436 319.08 794.745 323.375L917.046 450.413C919.207 454.452 945.229 476.775 948.777 479.672C960.929 489.198 1053.6 552.514 1067.71 545.052C1068.47 544.609 1073.08 547.574 1073.85 547.131L1182.6 581.892C1202.57 596.971 1254.94 588.734 1279.26 594.818C1284.56 596.022 1298.81 592.057 1303.84 594.27C1304.61 593.827 1310 595.488 1310.71 595.247C1312.51 594.213 1326.41 598.804 1328.5 598.282C1336.14 595.574 1391.56 617.127 1399.27 619.84C1402.04 620.799 1421.59 630.146 1423.94 631.857C1424.29 632.167 1427.16 633.583 1427.45 634.094L1561.74 726.076C1588.74 738.284 1640.06 775.168 1665.77 764.76C1666.83 764.828 1668.15 764.749 1669.47 764.67C1684.32 764.11 1698.85 764.76 1714.23 766.286C1720.1 769.374 1781.43 768.077 1792.93 767.916C1810.12 767.547 1938.46 730.803 1953.97 730.203C1968.17 729.683 2085.32 737.938 2086.51 754.474C2087.67 772.731 2228.01 791.307 2229.34 811.34C2241.97 816.669 2254.88 823.371 2266.33 832.278C2268.28 833.881 2270.43 835.538 2272.33 837.343C2274.01 848.821 2349.92 887.537 2360.67 892.582C2369.27 896.83 2437.49 922.246 2447.41 919.931C2450.61 919.276 2473.99 927.269 2477.17 927.474C2477.38 927.528 2478.18 927.745 2478.18 927.745L2870.51 1034.81" stroke="#F30EF6" stroke-opacity="0.2" stroke-miterlimit="10"/>
<path d="M54.4592 517.44L586.12 370.823C595.797 367.794 604.883 363.743 613.674 359.179C657.94 336.014 734.729 273.781 757.339 291.082C761.493 294.141 788.16 317.286 790.617 321.836L912.135 450.179C914.444 454.473 939.915 476.432 943.813 479.639C956.663 489.785 1048.44 551.566 1063.58 543.513C1064.34 543.07 1069.01 545.833 1069.78 545.39L1179.14 577.072C1198.6 591.585 1252.22 581.951 1275.93 587.872C1281.03 589.022 1295.85 584.56 1300.62 586.921C1301.39 586.478 1306.58 588.085 1307.35 587.642C1309.34 586.662 1323.1 590.998 1325.04 590.22C1333.39 587.27 1387.86 608.351 1396.17 611.226C1399.14 612.239 1418.55 621.33 1421.05 623.297C1421.4 623.607 1424.26 625.023 1424.56 625.535L1558.01 719.022C1584.21 731.014 1636.24 770.037 1661.24 759.871C1662.3 759.939 1663.62 759.86 1664.88 759.983C1679.68 759.624 1694.31 760.732 1709.63 762.459C1716.11 765.709 1776.27 764.747 1788.43 764.547C1806.68 764.247 1932.52 725.536 1949.1 725.004C1964.15 724.498 2079.71 733.842 2080.84 751.44C2082.08 771.015 2218.63 791.605 2220.1 812.754C2232.42 818.433 2244.96 825.686 2256.21 834.539C2258.16 836.142 2260.06 837.947 2262.21 839.604C2264.08 851.997 2338.57 890.335 2349.82 895.945C2359.02 900.356 2426.29 925.299 2436.87 922.945C2440.33 922.142 2463.3 930.027 2466.89 930.34C2467.09 930.394 2467.9 930.611 2467.9 930.611L2861.7 1034.61" stroke="#F30EF6" stroke-opacity="0.2" stroke-miterlimit="10"/>
<path d="M54.4773 513.337L581.119 366.888C590.796 363.86 599.937 359.606 608.674 355.245C653.8 332.094 729.901 271.622 753.063 289.287C757.364 292.602 783.736 315.236 786.286 320.243L907.023 449.89C909.48 454.44 934.546 476.291 938.646 479.552C952.398 490.372 1043.29 550.618 1059.19 542.122C1059.96 541.679 1064.68 544.241 1065.24 543.744L1175.01 572.291C1193.93 586.44 1249.04 575.261 1271.74 580.912C1276.84 582.062 1291.97 577.251 1296.59 579.355C1297.36 578.912 1302.61 580.318 1303.37 579.875C1305.42 578.693 1318.98 582.975 1321.12 582.251C1329.93 579.208 1383.75 599.467 1392.41 602.652C1395.59 603.719 1414.59 612.702 1417.29 614.723C1417.64 615.033 1420.5 616.449 1420.8 616.961L1553.36 712.155C1578.8 723.729 1631.51 765.094 1656.05 755.021C1657.11 755.09 1658.38 755.213 1659.7 755.133C1674.59 755.232 1692.02 749.092 1704.48 758.269C1710.59 762.931 1770.41 760.799 1783.43 760.613C1802.99 760.233 1926.28 719.757 1943.77 719.038C1959.69 718.546 2073.46 728.924 2074.72 747.638C2076.1 768.331 2208.86 790.933 2210.41 813.402C2222.37 819.632 2234.65 827.032 2245.6 836.234C2247.54 837.838 2249.44 839.643 2251.33 841.448C2253.24 854.499 2326.42 892.917 2338.28 898.689C2348.03 903.463 2414.4 927.733 2425.43 925.285C2429.09 924.536 2451.77 931.909 2455.51 932.479C2455.71 932.533 2456.52 932.749 2456.52 932.749L2851.78 1033.69" stroke="#F30EF6" stroke-opacity="0.2" stroke-miterlimit="10"/>
<path d="M54.3479 508.978L575.769 362.644C585.501 359.414 594.587 355.362 603.324 351.001C649.164 327.608 724.523 269.1 748.437 287.183C753.088 290.808 778.908 313.077 781.606 318.34L901.871 448.942C904.475 453.747 929.193 475.289 933.44 478.806C947.891 490.245 1037.9 548.957 1054.82 539.87C1055.59 539.427 1060.11 541.934 1060.93 541.29L1171.16 566.501C1189.52 580.286 1245.92 567.508 1268.02 572.997C1272.86 574.294 1288.61 568.785 1293.04 570.835C1293.8 570.392 1299.05 571.797 1299.82 571.354C1302.07 570.227 1315.27 574.199 1317.67 573.327C1326.94 570.19 1380.06 589.83 1389.33 593.177C1392.65 594.5 1411.3 603.173 1414.15 605.45C1414.5 605.76 1417.37 607.176 1417.66 607.688L1549.34 704.59C1574.02 715.745 1627.46 759.251 1651.23 749.621C1652.29 749.689 1653.55 749.812 1654.87 749.733C1669.71 750.034 1687.18 744.553 1699.64 753.729C1706.15 758.5 1765 756.756 1778.69 756.531C1799.31 756.22 1920.1 713.776 1938.45 713.072C1955.49 712.447 2067.47 723.858 2068.8 743.891C2070.26 765.902 2199.3 790.316 2200.87 814.305C2212.52 820.884 2224.44 828.836 2235.13 838.185C2237.07 839.789 2238.92 841.795 2240.81 843.601C2242.91 857.567 2314.41 895.754 2327.23 901.998C2337.53 907.137 2403 930.733 2414.74 928.043C2418.66 927.147 2440.93 934.412 2444.93 934.834C2445.13 934.888 2445.94 935.104 2445.94 935.104L2842.88 1033.03" stroke="#F30EF6" stroke-opacity="0.2" stroke-miterlimit="10"/>
<path d="M54.4203 504.673L570.769 358.71C580.5 355.48 589.788 351.482 598.525 347.12C645.226 323.743 719.951 266.794 744.161 285.389C749.013 289.067 774.43 311.229 777.33 316.546L896.557 448.599C899.309 453.661 923.475 474.838 928.072 478.665C943.423 490.778 1032.4 547.699 1050.24 538.425C1051.21 538.036 1055.58 540.288 1056.4 539.643L1167.03 561.721C1184.84 575.142 1242.54 560.764 1264.09 565.889C1268.73 567.133 1284.79 561.273 1289.21 563.324C1290.03 562.679 1295.08 564.03 1296.05 563.641C1298.35 562.312 1311.56 566.284 1313.95 565.412C1323.74 561.98 1376.11 581.202 1385.78 584.657C1389.3 586.034 1407.75 594.653 1410.6 596.93C1411.15 597.294 1413.76 598.858 1414.11 599.168L1544.89 697.777C1568.97 708.771 1622.93 754.362 1645.98 744.973C1647.05 745.042 1648.31 745.164 1649.58 745.287C1664.51 746.045 1681.67 740.914 1694.13 750.091C1700.99 755.171 1758.72 753.56 1773.32 753.147C1795.06 752.703 1913.3 708.494 1932.71 707.859C1950.61 707.248 2060.8 719.693 2062.32 740.641C2063.91 763.769 2189.17 790.196 2190.82 815.503C2202.1 822.634 2213.77 830.733 2224.14 840.432C2226.04 842.237 2227.73 843.988 2229.57 845.995C2231.71 860.621 2301.95 898.685 2315.32 905.293C2326.42 910.648 2390.74 933.718 2403.14 930.989C2407.26 930.146 2429.18 937.101 2433.38 937.577C2433.58 937.631 2434.39 937.848 2434.39 937.848L2832.8 1032.71" stroke="#F30EF6" stroke-opacity="0.2" stroke-miterlimit="10"/>
<path d="M54.4924 500.368L565.621 354.52C575.352 351.289 584.64 347.292 593.377 342.93C640.737 319.513 714.975 264.38 739.736 283.338C744.939 287.327 769.804 309.124 772.851 314.698L891.149 447.798C894.049 453.116 917.812 474.186 922.61 478.066C938.862 490.853 1026.75 546.185 1045.41 536.266C1046.43 535.676 1050.8 537.928 1051.62 537.283L1162.67 556.226C1179.98 569.082 1238.92 553.307 1259.86 558.269C1264.3 559.459 1280.92 553.103 1285.35 555.153C1286.17 554.508 1291.21 555.86 1292.23 555.269C1294.74 553.994 1307.6 557.655 1310.25 556.636C1320.49 553.111 1372.16 571.712 1382.44 575.33C1386.16 576.761 1404.21 585.272 1407.46 587.657C1408.01 588.021 1410.62 589.585 1410.97 589.895L1540.71 689.956C1564.05 700.531 1618.92 748.317 1641.01 739.317C1642.08 739.385 1643.29 739.71 1644.61 739.631C1659.48 740.59 1676.68 736.118 1689.2 745.093C1696.46 750.282 1753.28 748.858 1768.68 748.662C1791.69 748.34 1907.23 702.11 1927.76 701.341C1946.51 700.745 2055.12 714.278 2056.57 736.289C2058.24 760.735 2179.76 788.974 2181.7 815.653C2192.67 823.133 2204.17 831.838 2214.09 841.631C2215.99 843.436 2217.63 845.388 2219.52 847.193C2221.84 862.734 2290.62 900.622 2304.79 907.446C2316.45 913.165 2379.86 935.561 2392.93 932.792C2397.3 931.802 2418.82 938.649 2423.28 938.977C2423.48 939.032 2424.28 939.248 2424.28 939.248L2824.16 1031.04" stroke="#F30EF6" stroke-opacity="0.2" stroke-miterlimit="10"/>
<path d="M54.5647 496.063L560.674 350.383C570.406 347.153 579.694 343.156 588.633 338.848C636.908 315.244 710.404 262.074 735.77 281.195C741.174 285.237 765.636 306.926 768.831 312.755L886.347 447.16C889.34 452.935 912.808 473.493 917.808 477.428C934.758 490.834 1021.76 544.632 1041.44 534.122C1042.46 533.532 1046.63 535.73 1047.66 535.139L1159.11 550.949C1175.87 563.44 1236.15 545.864 1256.44 550.866C1260.88 552.056 1277.81 545.35 1282.09 547.144C1283.11 546.554 1288 547.649 1288.97 547.26C1291.48 545.986 1304.24 549.19 1306.84 548.372C1317.59 544.551 1368.51 562.735 1379.14 566.663C1383.06 568.147 1400.91 576.604 1404.16 578.989C1404.71 579.353 1407.32 580.917 1407.62 581.429L1536.47 683.197C1559.05 693.355 1614.6 743.482 1636.18 734.777C1637.18 735.048 1638.45 735.17 1639.71 735.293C1654.69 736.71 1671.58 732.587 1684.29 741.617C1691.9 747.115 1747.61 745.824 1763.87 745.643C1788 745.188 1900.97 697.192 1922.57 696.492C1942.24 695.709 2049 710.477 2050.59 733.604C2052.33 759.369 2170.08 789.621 2172.14 817.418C2182.95 825.503 2194 834.301 2203.61 844.443C2205.3 846.194 2207.14 848.201 2208.78 850.153C2211.14 866.354 2278.4 904.266 2293.32 911.509C2305.59 917.389 2368.05 939.313 2381.83 936.303C2386.4 935.367 2407.57 941.904 2412.43 942.341C2412.63 942.395 2413.44 942.611 2413.44 942.611L2814.79 1031.34" stroke="#F30EF6" stroke-opacity="0.2" stroke-miterlimit="10"/>
<path d="M54.3812 491.906L555.418 346.597C565.149 343.367 574.492 339.167 583.376 335.062C632.311 311.417 705.32 260.063 731.238 279.548C736.991 283.9 760.902 305.226 764.245 311.31L880.978 447.019C884.321 453.104 907.036 473.244 912.386 477.489C930.237 491.569 1016.15 543.778 1036.8 532.879C1037.82 532.288 1042.05 534.285 1043.07 533.694L1154.98 546.168C1170.99 558.241 1232.77 539.12 1252.45 543.96C1256.69 545.095 1274.19 537.893 1278.21 539.835C1279.23 539.244 1283.92 540.286 1285.15 539.749C1287.91 538.326 1300.27 541.422 1303.12 540.457C1314.33 536.543 1364.61 553.905 1375.78 558.197C1379.71 559.681 1397.35 568.084 1400.75 570.725C1401.3 571.089 1403.91 572.653 1404.21 573.164L1532.17 676.64C1553.94 686.582 1610.27 738.647 1631.14 730.184C1632.14 730.454 1633.41 730.577 1634.67 730.699C1649.59 732.318 1666.52 728.855 1679.24 737.884C1687.25 743.49 1741.99 742.589 1758.96 742.166C1784.15 741.78 1894.63 691.816 1917.29 691.185C1938.02 690.471 2042.99 706.272 2044.71 730.517C2046.59 757.398 2160.55 789.663 2162.7 818.778C2173.19 827.213 2183.88 836.562 2193.23 846.852C2194.87 848.805 2196.51 850.757 2198.35 852.764C2200.96 869.678 2266.69 907.615 2282.42 915.074C2295.24 921.318 2356.79 942.569 2371.03 939.465C2375.86 938.381 2396.88 944.663 2401.69 945.301C2401.89 945.355 2402.7 945.571 2402.7 945.571L2805.52 1031.24" stroke="#F30EF6" stroke-opacity="0.2" stroke-miterlimit="10"/>
<path d="M54.4535 487.601L550.472 342.461C560.203 339.23 569.545 335.031 578.43 330.925C628.225 307.296 700.601 257.501 727.015 277.551C732.916 282.16 756.532 302.973 759.968 309.516L875.974 446.327C879.465 452.668 901.776 472.7 907.327 476.998C925.877 491.698 1010.9 542.372 1032.58 530.883C1033.6 530.292 1037.88 532.087 1038.9 531.496L1151.22 540.836C1166.68 552.545 1229.95 531.878 1248.82 536.503C1252.86 537.584 1270.92 529.884 1274.74 531.772C1275.77 531.181 1280.52 532.021 1281.54 531.431C1284.3 530.008 1296.71 532.902 1299.57 531.937C1311.49 527.781 1360.81 544.671 1372.39 549.071C1376.52 550.61 1393.76 558.905 1397.36 561.6C1397.91 561.964 1400.52 563.527 1400.81 564.039L1527.89 669.222C1548.91 678.746 1605.9 733.153 1626.06 724.931C1627.06 725.201 1628.27 725.525 1629.54 725.648C1644.55 727.725 1661.23 724.409 1673.94 733.438C1682.3 739.354 1735.98 738.384 1753.76 738.177C1780.07 737.658 1887.99 685.929 1911.77 685.165C1933.36 684.465 2036.79 701.152 2038.39 726.661C2040.35 754.861 2150.78 788.992 2152.75 819.573C2162.89 828.559 2173.32 838.056 2182.41 848.493C2184.05 850.446 2185.69 852.398 2187.28 854.553C2189.86 872.327 2254.39 909.94 2270.62 917.965C2284.04 924.372 2344.64 945.15 2359.59 941.805C2364.63 940.775 2385.3 946.747 2390.36 947.238C2390.56 947.292 2391.36 947.508 2391.57 947.562L2796 1030.42" stroke="#F30EF6" stroke-opacity="0.2" stroke-miterlimit="10"/>
<path d="M54.5258 483.296L545.269 338.472C555.055 335.04 564.545 331.097 573.429 326.991C623.938 303.12 695.773 255.343 722.537 275.703C728.64 280.365 751.852 301.071 755.436 307.869L870.66 445.984C874.298 452.581 896.26 472.303 901.959 476.857C921.41 492.231 1005.35 541.316 1027.84 529.182C1029.07 528.645 1033.14 530.386 1034.22 529.593L1147.15 535.853C1162.11 546.997 1226.63 524.933 1244.69 529.341C1248.72 530.422 1267.1 522.373 1270.77 524.005C1271.85 523.212 1276.54 524.254 1277.57 523.663C1280.58 522.093 1292.59 524.879 1295.7 523.766C1308.08 519.517 1356.7 535.788 1368.89 540.35C1373.22 541.942 1390.26 550.183 1394.06 552.932C1394.61 553.296 1397.02 554.806 1397.51 555.371L1523.7 662.262C1543.97 671.368 1601.63 728.116 1621.07 720.135C1622.08 720.406 1623.29 720.73 1624.55 720.853C1639.51 723.131 1656.23 720.474 1668.94 729.504C1677.71 735.528 1730.41 734.947 1748.86 734.7C1776.42 734.304 1881.79 680.809 1906.48 679.858C1928.99 678.971 2030.58 696.894 2032.37 723.317C2034.46 752.634 2141.11 788.778 2143.16 820.678C2152.98 830.013 2163.05 840.061 2171.89 850.646C2173.53 852.599 2175.11 854.753 2176.7 856.908C2179.53 875.396 2242.53 913.034 2259.37 921.22C2273.34 927.991 2332.84 948.041 2348.65 944.711C2353.94 943.534 2374.21 949.397 2379.47 949.942C2379.67 949.996 2380.48 950.212 2380.68 950.266L2786.59 1030.06" stroke="#F30EF6" stroke-opacity="0.2" stroke-miterlimit="10"/>
<path d="M54.3961 478.937L540.121 334.282C549.906 330.85 559.396 326.906 568.281 322.8C619.651 298.944 690.596 252.874 718.113 273.652C724.565 278.624 747.226 298.966 750.958 306.02L865.198 445.385C868.984 452.237 890.34 471.797 896.443 476.46C916.593 492.453 999.645 540.004 1023.11 527.481C1024.34 526.944 1028.26 528.429 1029.54 527.691L1142.93 530.614C1157.34 541.395 1223.15 517.731 1240.61 521.977C1244.44 523.004 1263.38 514.457 1266.85 516.036C1267.93 515.243 1272.47 516.029 1273.7 515.492C1276.72 513.922 1288.58 516.452 1291.89 515.394C1304.78 510.849 1352.65 526.702 1365.24 531.372C1369.77 533.019 1386.4 541.151 1390.41 543.954C1390.96 544.318 1393.37 545.828 1393.87 546.393L1519.21 654.79C1538.67 663.679 1597.32 722.42 1615.99 714.882C1617 715.152 1618.21 715.477 1619.42 715.801C1634.47 718.537 1650.88 716.23 1663.85 725.111C1673.16 731.499 1724.8 730.85 1743.91 730.564C1772.59 730.034 1875.41 674.774 1900.96 673.837C1924.53 673.019 2024.33 691.975 2026.25 719.516C2028.22 750.097 2131.34 788.107 2133.47 821.325C2142.93 831.211 2152.74 841.407 2161.27 852.341C2162.91 854.294 2164.29 856.394 2165.88 858.549C2168.69 877.898 2230.23 915.359 2248.02 924.018C2262.54 931.152 2321.14 950.529 2337.61 947.159C2343.11 946.036 2363.02 951.589 2368.49 952.188C2368.69 952.242 2369.5 952.458 2369.7 952.512L2777.07 1029.24" stroke="#F30EF6" stroke-opacity="0.2" stroke-miterlimit="10"/>
<path d="M54.4686 474.632L535.175 330.146C545.162 326.768 554.45 322.77 563.591 318.517C615.62 294.621 686.132 250.165 714.146 271.509C720.801 276.535 742.856 296.714 746.937 304.078L860.45 444.546C864.383 451.654 885.39 470.904 891.641 475.822C912.691 492.489 994.71 538.249 1019.14 525.337C1020.42 524.599 1024.35 526.083 1025.63 525.345L1139.43 525.135C1153.29 535.551 1220.39 510.288 1237.24 514.372C1240.87 515.345 1260.32 506.503 1263.59 508.027C1264.87 507.289 1269.21 508.021 1270.49 507.282C1273.77 505.564 1285.23 507.987 1288.79 506.78C1302.14 502.142 1349.37 517.173 1362.5 522.207C1367.24 523.908 1383.47 531.932 1387.62 534.991C1388.38 535.409 1390.58 536.865 1391.08 537.431L1515.33 647.48C1534.04 655.952 1593.36 717.034 1611.31 709.738C1612.27 710.21 1613.48 710.534 1614.74 710.657C1629.74 713.594 1646.18 711.946 1659.16 720.828C1668.88 727.324 1719.35 727.009 1739.31 726.738C1769.06 726.277 1869.38 669.05 1896.04 667.979C1920.48 667.175 2018.48 687.166 2020.54 715.823C2022.64 747.521 2121.92 787.746 2124.19 822.081C2133.34 832.316 2142.98 843.117 2151.06 854.145C2152.64 856.3 2154.03 858.4 2155.61 860.554C2158.67 880.617 2218.74 917.901 2237.08 926.924C2252.21 934.22 2309.85 953.125 2326.84 949.46C2332.58 948.189 2352.1 953.635 2357.82 954.085C2358.02 954.14 2358.82 954.356 2359.03 954.41L2767.87 1028.07" stroke="#F30EF6" stroke-opacity="0.2" stroke-miterlimit="10"/>
<path d="M54.4869 470.529L529.919 326.359C539.906 322.981 549.194 318.984 558.334 314.73C611.225 290.849 681.049 248.154 709.614 269.862C716.618 275.198 738.122 295.014 742.351 302.633L855.082 444.404C859.163 451.768 879.821 470.709 886.219 475.882C907.968 493.169 989.1 537.395 1014.5 524.094C1015.78 523.356 1019.71 524.84 1020.99 524.102L1135.19 520.758C1148.5 530.81 1216.9 503.948 1233.14 507.869C1236.57 508.788 1256.39 499.395 1259.86 500.973C1261.14 500.235 1265.54 500.765 1266.76 500.229C1270.03 498.511 1281.55 500.731 1284.91 499.471C1298.78 494.537 1345.24 509.15 1358.99 514.346C1363.92 516.101 1380.01 523.87 1384.11 527.131C1384.86 527.549 1387.06 529.004 1387.51 529.771L1510.88 641.529C1528.83 649.582 1588.87 712.804 1606.11 705.749C1607.07 706.221 1608.28 706.546 1609.49 706.87C1624.58 710.265 1640.71 708.967 1653.69 717.848C1663.75 724.654 1713.31 724.527 1733.99 724.014C1765.05 723.474 1862.61 664.427 1890.34 663.425C1915.64 662.636 2012.06 683.714 2014.04 713.434C2016.22 746.45 2111.78 788.487 2114.27 824.396C2123.05 835.183 2132.39 846.333 2140.21 857.509C2141.59 859.609 2143.12 861.965 2144.71 864.12C2147.81 884.841 2206.56 922.205 2225.71 931.444C2241.39 939.104 2298.07 957.537 2315.77 953.63C2321.72 952.414 2340.89 957.549 2347.01 958.108C2347.21 958.162 2348.02 958.379 2348.22 958.433L2758.53 1029.03" stroke="#F30EF6" stroke-opacity="0.2" stroke-miterlimit="10"/>
<path d="M54.5591 466.224L524.972 322.223C534.959 318.845 544.301 314.646 553.388 310.594C607.193 286.525 676.275 245.794 705.19 267.811C712.341 273.403 733.496 292.909 737.873 300.784L849.821 443.86C854.051 451.479 874.103 470.257 880.905 475.539C903.554 493.5 983.599 536.136 1010.03 522.245C1011.3 521.507 1015.29 522.79 1016.56 522.051L1131.18 515.573C1143.93 525.262 1213.82 496.854 1229.26 500.559C1232.69 501.478 1252.82 491.736 1256.14 493.058C1257.42 492.32 1261.62 492.796 1263.1 492.112C1266.63 490.246 1277.79 492.157 1281.36 490.95C1295.68 485.923 1341.45 499.916 1355.6 505.221C1360.73 507.03 1376.41 514.69 1380.91 518.059C1381.61 518.679 1383.87 519.933 1384.32 520.7L1506.79 634.165C1524.14 642.056 1584.7 707.364 1601.23 700.55C1602.19 701.022 1603.4 701.347 1604.61 701.671C1619.59 705.47 1635.82 704.628 1648.85 713.308C1659.32 720.222 1707.76 720.228 1729.24 719.932C1761.37 719.46 1856.43 658.446 1885.23 657.513C1911.64 656.59 2006.26 678.702 2008.33 709.741C2010.64 743.874 2102.42 787.924 2104.98 825.151C2113.66 836.341 2122.49 847.787 2129.99 859.312C2131.38 861.412 2132.71 863.714 2134.24 866.071C2137.32 887.653 2194.81 924.894 2214.51 934.497C2230.79 942.32 2286.53 960.28 2304.94 956.133C2311.14 954.768 2329.96 959.594 2336.28 960.207C2336.48 960.261 2337.29 960.477 2337.49 960.531L2749.48 1028.11" stroke="#F30EF6" stroke-opacity="0.2" stroke-miterlimit="10"/>
<path d="M54.4295 461.865L519.824 318.032C529.811 314.655 539.355 310.509 548.441 306.458C602.906 282.35 671.556 243.232 700.968 265.815C708.522 271.515 729.072 290.859 733.596 298.99L844.817 443.167C849.194 451.043 868.897 469.511 875.846 475.049C899.195 493.629 978.353 534.731 1005.6 520.195C1007.08 519.51 1010.66 520.685 1012.19 519.799L1127.27 509.985C1139.53 519.108 1210.71 489.101 1225.49 492.846C1228.72 493.711 1249.41 483.471 1252.48 484.942C1253.81 484.001 1258.01 484.478 1259.49 483.793C1263.02 481.928 1274.03 483.582 1277.8 482.43C1292.84 477.161 1337.65 490.683 1352.4 496.149C1357.74 498.013 1373.22 505.619 1377.72 508.988C1378.42 509.608 1380.68 510.861 1381.12 511.629L1502.77 626.599C1519.36 634.073 1580.85 701.574 1596.61 695.204C1597.57 695.676 1598.78 696 1599.93 696.526C1614.96 700.984 1630.93 700.291 1644.16 709.024C1654.98 716.248 1702.5 716.441 1724.65 716.105C1757.89 715.5 1850.4 652.721 1880.31 651.655C1907.58 650.746 2000.42 673.892 2002.67 705.846C2005.06 741.297 2093.11 787.159 2095.75 825.705C2104.07 837.446 2112.58 849.241 2119.89 860.712C2121.27 862.812 2122.55 865.316 2124.13 867.471C2127.46 889.766 2183.28 926.777 2203.73 936.797C2220.56 944.984 2275.4 962.271 2294.47 958.084C2300.87 956.773 2319.34 961.289 2325.87 961.956C2326.07 962.011 2326.67 962.173 2327.08 962.281L2740.54 1026.8" stroke="#F30EF6" stroke-opacity="0.2" stroke-miterlimit="10"/>
<path d="M54.5021 457.561L514.622 314.044C524.663 310.465 534.153 306.521 543.239 302.469C598.565 278.376 666.527 241.02 696.49 263.967C704.192 269.922 724.446 288.755 729.064 297.343L839.302 442.771C843.826 450.902 862.978 469.006 870.277 474.854C894.526 494.108 972.596 533.621 1000.81 518.696C1002.29 518.011 1005.93 518.985 1007.26 518.044L1122.74 505.096C1134.45 513.855 1206.92 482.249 1221.1 485.832C1224.13 486.642 1245.33 476.108 1248.25 477.322C1249.58 476.382 1253.78 476.858 1255.06 476.12C1258.84 474.107 1269.45 475.653 1273.48 474.353C1288.97 468.991 1333.09 481.893 1348.24 487.467C1353.73 489.586 1368.86 496.883 1373.51 500.507C1374.21 501.127 1376.47 502.381 1376.91 503.148L1497.66 619.826C1513.45 627.083 1575.66 696.725 1590.71 690.596C1591.67 691.068 1592.82 691.594 1594.23 691.972C1609.26 696.43 1623.8 699.461 1638.3 705.076C1650.83 709.947 1695.87 712.936 1719.13 712.466C1753.44 711.93 1843.45 647.184 1874.42 646.186C1902.56 645.292 1993.8 669.525 1995.98 702.542C1998.51 739.11 2082.77 786.985 2085.5 826.849C2093.5 838.94 2101.71 851.085 2108.71 862.905C2110.04 865.207 2111.36 867.509 2112.69 869.811C2116 892.968 2170.56 929.856 2191.76 940.294C2209.15 948.845 2263.08 965.458 2282.81 961.231C2289.27 959.719 2307.74 964.235 2314.26 964.902C2314.47 964.956 2315.07 965.118 2315.53 965.025L2730.46 1026.48" stroke="#F30EF6" stroke-opacity="0.2" stroke-miterlimit="10"/>
<path d="M54.5743 453.256L509.474 309.854C519.515 306.274 529.005 302.331 538.293 298.333C594.278 274.2 661.551 238.605 692.321 261.769C700.427 267.833 720.076 286.502 724.842 295.347L834.297 442.078C838.969 450.465 857.717 468.461 865.218 474.363C890.166 494.237 967.35 532.215 996.591 516.699C998.072 516.015 1001.76 516.786 1003.09 515.846L1118.98 499.764C1130.14 508.159 1203.91 474.954 1217.27 478.32C1220.3 479.131 1241.87 468.045 1244.58 469.205C1245.92 468.265 1249.97 468.486 1251.45 467.801C1255.23 465.788 1265.9 467.133 1269.98 465.631C1285.98 459.974 1329.4 472.256 1345.11 478.194C1350.79 480.367 1365.52 487.556 1370.37 491.234C1371.07 491.854 1373.33 493.108 1373.77 493.875L1493.63 612.261C1508.67 619.1 1571.55 691.083 1585.89 685.195C1586.84 685.667 1588 686.193 1589.41 686.571C1604.58 691.285 1618.76 694.868 1633.46 700.536C1646.39 705.516 1690.52 708.691 1714.39 708.384C1750.02 707.769 1837.27 641.203 1869.1 640.219C1898.35 639.193 1987.55 664.607 1989.87 698.74C1992.47 736.627 2073.01 786.313 2075.81 827.496C2083.45 840.138 2091.35 852.632 2098.09 864.6C2099.42 866.902 2100.49 869.352 2102.02 871.708C2105.57 895.578 2158.61 932.491 2180.42 943.092C2198.41 951.805 2251.39 967.946 2271.63 963.424C2278.29 961.965 2296.41 966.171 2303.19 966.691C2303.39 966.745 2304 966.907 2304.45 966.814L2720.85 1025.2" stroke="#F30EF6" stroke-opacity="0.2" stroke-miterlimit="10"/>
<path d="M54.391 449.099L504.473 305.92C514.515 302.34 524.004 298.396 533.293 294.399C590.139 270.28 656.778 236.245 687.843 259.92C696.097 266.24 715.396 284.6 720.512 293.754L829.239 441.588C834.059 450.231 852.458 467.917 860.106 474.074C885.955 494.622 962.051 531.011 992.261 515.107C993.796 514.221 997.427 515.194 998.815 514.052L1115.16 494.634C1125.77 502.665 1200.83 467.86 1213.6 471.064C1216.42 471.821 1238.55 460.238 1241.01 461.546C1242.55 460.66 1246.4 460.827 1247.93 459.941C1251.92 457.981 1262.24 459.016 1266.31 457.515C1282.78 451.764 1325.49 463.426 1341.6 469.473C1347.49 471.7 1362.02 478.834 1367.07 482.567C1367.77 483.186 1369.83 484.386 1370.47 485.208L1489.24 605.246C1503.52 611.668 1567.13 685.791 1580.7 680.346C1581.6 681.019 1582.76 681.545 1584.17 681.924C1599.23 687.041 1613.56 690.879 1628.2 696.749C1641.49 702.039 1684.7 705.402 1709.23 705.055C1745.92 704.508 1830.87 636.029 1863.62 634.859C1893.73 633.846 1981.34 660.349 1983.79 695.598C1986.47 734.804 2063.22 786.503 2066.11 829.005C2073.44 841.996 2081.17 855.095 2087.46 867.157C2088.79 869.459 2090.32 871.815 2091.13 874.412C2099.04 898.153 2146.24 935.879 2169.06 946.751C2187.6 955.827 2239.68 971.295 2260.58 966.733C2267.5 965.127 2285.21 969.225 2292.4 969.853C2292.6 969.907 2293.2 970.069 2293.66 969.975L2711.73 1025.35" stroke="#F30EF6" stroke-opacity="0.2" stroke-miterlimit="10"/>
<path d="M54.4628 444.794L499.271 301.931C509.312 298.351 518.802 294.408 528.09 290.41C585.797 266.306 651.748 234.033 683.365 258.072C691.82 264.445 710.716 282.697 715.979 292.107L823.925 441.245C828.892 450.143 846.739 467.466 854.737 473.933C881.285 495.1 956.549 529.753 987.527 513.406C989.062 512.52 992.545 513.237 994.08 512.351L1111.04 489.853C1121.15 497.319 1197.45 461.116 1209.61 464.158C1212.23 464.861 1234.88 452.983 1237.39 454.089C1238.93 453.203 1242.77 453.369 1244.31 452.483C1248.35 450.322 1258.46 451.303 1262.8 449.654C1279.77 443.607 1321.74 454.852 1338.45 461.061C1344.54 463.342 1358.66 470.368 1363.92 474.155C1364.62 474.774 1366.68 475.974 1367.27 476.997L1485.2 598.542C1498.67 604.747 1563.01 681.01 1576.12 675.658C1577.02 676.332 1578.17 676.858 1579.59 677.236C1594.8 682.609 1609.01 686.851 1623.66 692.721C1637.29 698.321 1679.39 701.816 1704.83 701.283C1742.64 700.603 1825.03 630.358 1858.85 629.256C1889.82 628.258 1975.69 655.593 1978.22 692.161C1981.04 732.483 2054.01 786.196 2057.17 830.07C2064.14 843.612 2071.62 856.859 2077.59 869.27C2078.66 871.72 2080.25 873.874 2081.22 876.728C2089.11 901.329 2135.1 938.731 2158.41 950.168C2177.56 959.407 2228.68 974.402 2250.24 969.801C2257.36 968.249 2274.78 971.836 2282.11 972.719C2282.31 972.773 2282.92 972.935 2283.38 972.842L2702.92 1025.15" stroke="#F30EF6" stroke-opacity="0.2" stroke-miterlimit="10"/>
<path d="M54.5352 440.489L494.324 297.795C504.366 294.215 514.111 290.124 523.346 286.328C581.766 261.983 647.176 231.727 679.344 256.129C688.149 262.813 706.494 280.701 711.904 290.367L819.068 440.809C824.184 449.963 841.627 467.177 849.827 473.698C877.275 495.539 951.451 528.604 983.452 511.665C984.987 510.779 988.525 511.295 990.06 510.409L1107.43 484.777C1116.78 491.824 1194.78 454.131 1206.13 456.956C1208.55 457.605 1231.56 445.176 1234.08 446.282C1235.61 445.396 1239.51 445.361 1241.05 444.475C1245.29 442.368 1255.26 443.093 1259.59 441.443C1277.02 435.303 1318.29 445.928 1335.41 452.245C1341.7 454.58 1355.62 461.553 1360.82 465.541C1361.72 466.215 1363.52 467.562 1364.17 468.384L1481.21 591.635C1493.93 597.422 1559.19 675.88 1571.33 670.917C1572.23 671.591 1573.39 672.117 1574.75 672.697C1589.85 678.473 1604.01 682.917 1618.6 688.988C1632.64 694.696 1673.82 698.379 1699.87 698.008C1738.74 697.396 1818.58 625.386 1853.51 624.151C1885.4 622.966 1969.63 651.59 1972.14 689.019C1975.04 730.659 2044.28 786.184 2047.53 831.377C2054.13 845.47 2061.3 859.066 2067.01 871.625C2068.09 874.075 2069.62 876.431 2070.44 879.028C2078.17 904.235 2123.04 941.77 2147.16 953.423C2166.86 963.026 2217.08 977.348 2239.35 972.505C2246.73 970.806 2263.75 974.284 2271.33 975.02C2271.53 975.074 2272.14 975.236 2272.6 975.142L2693.61 1024.39" stroke="#F30EF6" stroke-opacity="0.2" stroke-miterlimit="10"/>
<path d="M54.4058 436.13L489.122 293.806C499.164 290.227 508.909 286.136 518.143 282.34C577.425 258.009 642.201 229.313 674.866 254.281C683.819 261.22 701.814 278.798 707.372 288.72L813.607 440.21C818.816 449.822 835.964 466.525 844.311 473.302C872.459 495.762 945.748 527.292 978.718 509.965C980.455 509.133 983.791 509.594 985.38 508.506L1103.15 479.741C1111.96 486.424 1191.25 447.131 1202 449.794C1204.42 450.443 1227.74 437.665 1230.05 438.717C1231.64 437.629 1235.28 437.741 1237.07 436.707C1241.37 434.399 1251.19 434.868 1255.73 433.273C1273.87 426.892 1314.24 436.842 1331.91 443.523C1338.4 445.913 1351.92 452.777 1357.32 456.819C1358.22 457.493 1360.02 458.84 1360.67 459.662L1476.82 584.621C1488.79 589.99 1554.72 670.789 1566.14 666.068C1567.04 666.741 1568.2 667.267 1569.56 667.848C1584.76 674.081 1598.86 678.727 1613.45 684.798C1627.84 690.816 1667.91 694.632 1694.87 694.073C1735.06 693.383 1812.15 619.553 1848.19 618.185C1881.14 617.068 1963.58 646.726 1966.23 685.272C1969.06 727.975 2026.79 786.903 2038.04 832.078C2041.94 847.392 2051.19 860.467 2056.65 873.173C2057.73 875.623 2059.2 878.181 2060.02 880.778C2067.74 906.846 2111.34 944.258 2136.02 956.275C2156.27 966.242 2205.59 979.89 2228.52 975.008C2236.1 973.362 2252.76 976.531 2260.55 977.321C2260.76 977.375 2261.36 977.537 2261.82 977.443L2684.3 1023.62" stroke="#F30EF6" stroke-opacity="0.2" stroke-miterlimit="10"/>
<path d="M54.4782 431.825L483.974 289.616C494.069 285.835 503.761 281.945 513.197 278.204C573.138 253.833 637.428 226.952 670.644 252.285C680 259.332 697.444 276.546 703.096 286.926L808.548 439.719C813.905 449.587 830.502 465.926 839.199 473.013C868.247 496.147 940.449 526.088 974.442 508.17C976.179 507.338 979.569 507.598 981.158 506.51L1099.39 474.408C1107.65 480.728 1188.23 439.836 1198.37 442.337C1200.59 442.932 1224.48 429.656 1226.59 430.654C1228.18 429.566 1231.88 429.477 1233.61 428.645C1237.91 426.336 1247.58 426.55 1252.32 425.009C1270.92 418.534 1310.59 427.865 1328.66 434.654C1335.36 437.097 1348.47 443.853 1354.28 448.004C1355.18 448.678 1356.98 450.025 1357.62 450.846L1472.89 577.513C1484.05 582.666 1550.75 665.403 1561.41 661.124C1562.31 661.798 1563.42 662.526 1564.78 663.106C1579.92 669.542 1593.86 674.792 1608.66 680.918C1623.6 687.3 1662.6 691.047 1690.17 690.65C1731.42 690.028 1806 614.232 1843.11 612.932C1876.92 611.83 1957.57 642.521 1960.35 682.184C1963.26 726.206 2017.72 786.851 2028.54 833.64C2032.13 849.304 2041.02 862.929 2046.22 875.783C2047.3 878.233 2048.57 880.737 2049.33 883.536C2057.04 910.465 2099.23 947.499 2124.66 959.934C2145.51 970.063 2193.88 983.239 2217.32 978.061C2225.16 976.268 2241.42 979.328 2249.41 980.172C2249.61 980.226 2250.22 980.389 2250.67 980.295L2674.63 1023.41" stroke="#F30EF6" stroke-opacity="0.2" stroke-miterlimit="10"/>
<path d="M54.4965 427.722L478.974 285.682C489.069 281.9 498.761 278.011 508.197 274.269C568.999 249.913 632.398 224.74 666.166 250.436C675.669 257.739 692.764 274.644 698.564 285.279L803.288 439.175C808.793 449.298 824.986 465.529 833.885 472.67C863.632 496.424 934.947 524.83 969.91 506.523C971.7 505.489 974.889 505.695 976.679 504.661L1095.32 469.426C1103.08 475.18 1184.9 432.89 1194.44 435.229C1196.46 435.77 1220.85 422.199 1222.82 422.941C1224.4 421.853 1228.1 421.764 1229.9 420.73C1234.45 418.274 1243.72 418.379 1248.51 416.636C1267.57 410.067 1306.53 418.779 1325.21 425.73C1331.91 428.173 1345.02 434.93 1350.83 439.08C1351.73 439.754 1353.53 441.101 1354.18 441.923L1468.55 570.297C1478.96 575.032 1546.33 660.11 1556.48 656.127C1557.38 656.801 1558.69 657.583 1559.84 658.109C1575.08 665.002 1588.97 670.454 1603.71 676.782C1619.05 683.271 1656.88 687.354 1685.31 686.972C1727.68 686.217 1799.71 608.654 1837.88 607.423C1872.61 606.134 1951.62 638.115 1954.33 678.84C1957.37 723.978 2008.51 786.544 2018.94 834.745C2022.42 850.812 2030.75 864.935 2035.7 877.936C2036.72 880.588 2037.99 883.092 2038.76 885.891C2046.45 913.681 2087.37 950.592 2113.61 963.243C2135.01 973.736 2182.48 986.238 2206.58 981.021C2214.62 979.282 2230.73 982.086 2238.98 982.783C2239.18 982.837 2239.79 982.999 2240.24 982.905L2665.81 1023.21" stroke="#F30EF6" stroke-opacity="0.2" stroke-miterlimit="10"/>
<path d="M54.5686 423.417L473.825 281.492C483.921 277.71 493.814 273.875 503.048 270.079C564.711 245.738 627.477 222.124 661.741 248.386C671.649 255.797 688.138 272.539 694.085 283.43L798.028 438.63C803.68 449.009 819.524 464.93 828.57 472.327C859.218 496.755 929.446 523.572 965.23 504.621C967.02 503.587 970.209 503.793 972.053 502.557L1091.1 464.187C1098.31 469.577 1181.48 425.487 1190.16 427.811C1191.97 428.298 1216.93 414.23 1218.64 415.12C1220.43 414.086 1223.78 413.686 1225.57 412.653C1230.12 410.196 1239.45 410.1 1244.24 408.357C1263.81 401.493 1302.02 409.787 1321.11 416.846C1328.01 419.344 1340.71 425.991 1346.67 430.398C1347.57 431.072 1349.37 432.419 1350.01 433.241L1463.35 563.066C1473.21 567.437 1541.05 654.803 1550.54 650.86C1551.39 651.735 1552.75 652.315 1553.85 653.043C1569.03 660.138 1583.02 666.048 1597.55 672.321C1613.25 679.121 1650.16 683.39 1679.3 682.767C1722.94 682.134 1792.27 602.551 1831.35 601.133C1867.14 599.912 1944.21 632.67 1947.2 674.768C1950.32 721.225 1998.19 785.509 2008.25 835.122C2011.62 851.593 2019.43 866.01 2024.07 879.361C2025.09 882.013 2026.11 884.664 2026.93 887.262C2034.6 915.913 2074.26 952.701 2101.05 965.716C2123.06 976.371 2169.52 988.603 2194.34 983.145C2202.63 981.258 2218.39 983.753 2226.79 984.705C2227.19 984.813 2227.59 984.921 2228.05 984.828L2655.09 1022.06" stroke="#F30EF6" stroke-opacity="0.2" stroke-miterlimit="10"/>
<path d="M54.4393 419.058L468.624 277.503C478.719 273.722 488.612 269.887 498.048 266.145C560.371 241.764 622.649 219.966 657.465 246.591C667.52 254.259 683.66 270.691 689.755 281.838L792.916 438.342C798.716 448.977 813.955 464.735 823.405 472.24C854.953 497.342 924.092 522.57 960.9 503.028C962.69 501.994 965.933 501.998 967.723 500.965L1087.29 459.057C1093.94 464.083 1178.41 418.393 1186.53 420.354C1188.35 420.84 1213.67 406.221 1215.18 407.057C1216.97 406.023 1220.32 405.624 1222.11 404.59C1226.92 401.986 1235.84 401.782 1240.89 399.891C1260.91 392.934 1298.43 400.608 1318.12 407.829C1325.22 410.381 1337.58 416.719 1343.68 421.381C1344.58 422.055 1346.38 423.402 1346.97 424.425L1459.42 555.959C1468.47 560.113 1537.29 649.472 1545.81 645.917C1546.66 646.792 1547.96 647.574 1549.12 648.1C1564.39 655.653 1578.12 661.71 1592.81 668.239C1608.85 675.349 1644.9 679.604 1674.65 679.143C1719.4 678.377 1786.18 597.028 1826.33 595.678C1862.98 594.472 1938.46 628.318 1941.44 671.277C1944.69 718.851 1989.23 785.054 1998.91 836.079C2002.17 852.954 2009.42 867.868 2013.8 881.367C2014.62 883.964 2015.84 886.67 2016.61 889.469C2024.07 918.927 2062.72 955.445 2090.26 968.878C2112.82 979.897 2158.38 991.455 2183.91 985.756C2192.4 983.923 2207.82 986.108 2216.47 986.912C2216.87 987.02 2217.27 987.128 2217.73 987.035L2646.24 1021.21" stroke="#F30EF6" stroke-opacity="0.2" stroke-miterlimit="10"/>
<path d="M54.5116 414.753L463.677 273.367C473.772 269.586 483.666 265.75 493.102 262.008C556.285 237.642 617.876 217.605 653.243 244.595C663.446 252.518 679.236 268.641 685.479 280.043L787.71 437.595C793.657 448.486 808.547 463.935 818.144 471.695C850.391 497.417 918.699 520.909 956.421 501.179C958.414 500.2 961.508 499.948 963.299 498.914L1083.22 454.075C1089.32 458.737 1175.28 411.501 1182.6 413.246C1184.21 413.678 1210.05 398.764 1211.61 399.398C1213.45 398.162 1216.8 397.763 1218.59 396.729C1223.4 394.125 1232.17 393.665 1237.42 391.829C1257.96 384.576 1294.78 391.63 1315.02 399.215C1322.32 401.821 1334.48 408.105 1340.78 412.821C1341.68 413.495 1343.48 414.842 1344.07 415.865L1455.63 549.106C1463.93 552.843 1533.42 644.543 1541.23 641.23C1542.08 642.105 1543.38 642.887 1544.48 643.615C1559.65 651.571 1573.53 657.884 1588.16 664.615C1604.6 671.832 1639.49 676.422 1670.3 676.029C1716.11 675.332 1780.59 592.07 1821.6 590.735C1859.16 589.342 1933 624.477 1935.91 668.499C1939.24 717.391 1980.71 785.366 1990.01 837.804C1992.97 855.027 1999.9 870.291 2003.98 884.139C2004.74 886.939 2005.76 889.59 2006.53 892.389C2013.97 922.708 2051.16 959.05 2079.45 972.901C2102.62 984.082 2147.02 995.114 2173.41 989.429C2182.16 987.448 2197.17 989.525 2206.02 990.383C2206.42 990.492 2206.83 990.6 2207.29 990.506L2637.27 1021.61" stroke="#F30EF6" stroke-opacity="0.2" stroke-miterlimit="10"/>
<path d="M54.5838 410.448L458.475 269.379C468.772 265.651 478.518 261.56 488.101 258.074C552.146 233.722 613.102 215.245 648.966 242.801C659.573 250.832 674.757 266.792 681.148 278.45L782.597 437.306C788.693 448.453 803.233 463.592 813.032 471.407C846.18 497.802 913.601 519.759 952.145 499.385C954.137 498.405 957.03 498.099 959.077 496.918L1079.25 448.689C1084.86 452.785 1172.06 404.152 1178.77 405.734C1180.18 406.113 1206.59 390.701 1207.95 391.281C1209.79 390.046 1212.94 389.592 1214.98 388.411C1220.05 385.659 1228.47 384.889 1233.92 383.107C1254.92 375.76 1291.04 382.195 1311.68 389.888C1319.18 392.548 1330.94 398.724 1337.39 403.696C1338.49 404.424 1339.89 405.663 1340.68 406.74L1451.35 541.688C1458.89 545.007 1529.11 638.847 1536.35 636.031C1537.2 636.906 1538.5 637.688 1539.6 638.416C1554.92 646.628 1568.43 653.492 1583.32 660.075C1600.11 667.602 1634.08 672.38 1665.61 671.746C1712.54 670.915 1774.46 585.888 1816.59 584.419C1855.21 583.095 1927.06 619.21 1930.1 664.348C1933.51 714.559 1971.66 784.454 1980.58 838.303C1983.43 855.93 1989.8 871.692 1993.67 885.486C1994.43 888.285 1995.45 890.936 1996.16 893.937C2003.39 925.063 2039.52 961.336 2068.61 975.403C2092.34 986.948 2135.83 997.306 2162.74 991.326C2171.69 989.4 2186.35 991.167 2195.4 992.079C2195.81 992.187 2196.21 992.295 2196.67 992.202L2628.12 1020.24" stroke="#F30EF6" stroke-opacity="0.2" stroke-miterlimit="10"/>
<path d="M54.4543 406.089L453.327 265.188C463.678 261.259 473.369 257.37 482.953 253.884C547.657 229.492 608.127 212.831 644.395 240.495C655.148 248.781 670.038 264.23 676.522 276.346L777.19 436.506C783.433 447.908 797.368 462.885 807.57 470.808C841.471 497.621 907.952 518.245 947.263 497.428C949.256 496.448 952.203 495.941 954.249 494.759L1075.18 443.706C1080.24 447.439 1168.73 397.206 1174.84 398.626C1176.25 399.005 1202.76 383.19 1204.12 383.77C1205.96 382.534 1209.17 381.879 1211.16 380.9C1216.22 378.148 1224.7 377.176 1230.15 375.394C1251.86 367.806 1287.02 373.768 1308.27 381.624C1315.92 384.539 1327.53 390.459 1333.98 395.432C1335.08 396.159 1336.48 397.399 1337.27 398.476L1447.1 534.93C1453.84 538.032 1524.78 634.012 1531.31 631.437C1532.36 632.367 1533.41 633.296 1534.56 633.822C1549.77 642.437 1563.43 649.557 1578.06 656.288C1595.21 664.126 1628.11 668.834 1660.44 668.416C1708.64 667.709 1767.86 580.66 1811.05 579.26C1850.54 577.95 1920.85 614.951 1923.97 661.408C1927.52 712.736 1962.33 784.55 1970.88 839.812C1973.62 857.842 1979.42 874.1 1983.04 888.042C1983.8 890.841 1984.77 893.694 1985.28 896.641C1992.49 928.628 2027.4 964.577 2057 979.21C2081.27 991.118 2123.87 1000.8 2151.43 994.783C2160.64 992.709 2174.9 994.368 2184.41 995.187C2184.81 995.295 2185.27 995.201 2185.67 995.309L2618.79 1020.34" stroke="#F30EF6" stroke-opacity="0.2" stroke-miterlimit="10"/>
<path d="M54.4726 401.987L448.326 261.254C458.677 257.325 468.571 253.49 477.953 249.95C543.517 225.573 603.299 210.673 640.118 238.7C651.276 247.095 665.56 262.382 672.192 274.753L772.131 436.016C778.522 447.674 792.107 462.341 802.458 470.519C837.259 498.006 902.652 517.042 942.987 495.634C945.033 494.452 947.98 493.945 949.825 492.709L1071.22 438.32C1075.72 441.689 1165.51 389.857 1171.01 391.115C1172.22 391.439 1199.3 375.127 1200.46 375.653C1202.5 374.472 1205.5 373.763 1207.55 372.581C1212.81 369.884 1220.94 368.602 1226.45 366.618C1248.62 358.937 1283.08 364.279 1304.73 372.243C1312.59 375.212 1323.79 381.024 1330.44 386.051C1331.54 386.778 1332.94 388.018 1333.73 389.095L1442.47 527.202C1448.46 529.887 1520.32 628.061 1525.94 625.673C1526.98 626.602 1528.03 627.532 1529.13 628.26C1544.49 637.131 1557.84 644.6 1572.67 651.385C1590.17 659.532 1622.16 664.428 1655.2 663.769C1704.51 662.928 1761.18 574.114 1805.43 572.783C1845.84 571.285 1914.3 609.522 1917.56 657.095C1921.18 709.741 1952.93 783.328 1960.9 839.948C1963.52 858.381 1968.82 874.935 1972.13 889.226C1972.84 892.227 1973.6 895.026 1974.36 897.825C1981.36 930.619 2015.21 966.499 2045.41 981.294C2070.29 993.365 2111.93 1002.58 2140.15 996.518C2149.56 994.498 2163.53 995.646 2173.18 996.72C2173.59 996.828 2174.05 996.735 2174.45 996.843L2609.04 1018.81" stroke="#F30EF6" stroke-opacity="0.2" stroke-miterlimit="10"/>
<path d="M54.545 397.681L443.178 257.064C453.529 253.135 463.423 249.299 473.006 245.813C539.432 221.451 598.324 208.258 635.896 236.704C647.201 245.354 661.136 260.331 667.916 272.959L767.073 435.525C773.612 447.439 786.847 461.796 797.346 470.23C832.846 498.337 897.353 515.838 938.71 493.839C940.757 492.658 943.704 492.15 945.603 490.713L1067.41 433.19C1071.36 436.194 1162.44 382.763 1167.33 383.859C1168.34 384.129 1195.93 367.522 1196.94 367.792C1198.99 366.611 1201.84 365.646 1204.09 364.518C1209.41 361.619 1217.33 360.284 1223.04 358.353C1245.72 350.377 1279.48 355.1 1301.69 363.428C1309.74 366.451 1320.54 372.155 1327.6 377.289C1328.7 378.017 1330.1 379.256 1330.89 380.333L1438.43 520.497C1443.61 522.966 1516.2 623.279 1521.1 621.133C1522.09 622.264 1523.19 622.992 1524.3 623.72C1539.54 632.994 1553.04 640.719 1567.82 647.706C1585.66 656.163 1616.54 661.192 1650.44 660.548C1700.82 659.775 1754.93 569.196 1800.15 567.475C1841.62 566.046 1908.29 605.317 1911.53 653.751C1915.29 707.514 1943.71 783.02 1951.3 841.052C1953.82 859.889 1958.55 876.94 1961.6 891.379C1962.11 894.326 1963.08 897.179 1963.58 900.126C1970.57 933.78 2002.95 969.484 2034.16 984.549C2059.59 996.984 2100.33 1005.52 2129.27 999.222C2138.93 997.055 2152.69 998.148 2162.35 999.222C2162.75 999.33 2163.21 999.237 2163.62 999.345L2599.68 1018.24" stroke="#F30EF6" stroke-opacity="0.2" stroke-miterlimit="10"/>
<path d="M54.6172 393.377L438.178 253.129C448.529 249.2 458.422 245.365 468.006 241.879C535.293 217.531 593.55 205.898 631.619 234.909C643.274 243.87 656.658 258.483 663.639 271.164L761.813 434.98C768.499 447.15 781.13 461.345 792.031 469.888C828.432 498.668 891.851 514.58 934.178 492.192C936.426 491.065 939.024 490.247 941.07 489.066L1063.28 428.409C1066.74 430.848 1159.31 375.872 1163.4 376.751C1164.21 376.967 1192.36 359.863 1193.11 360.281C1195.21 358.898 1198.01 358.134 1200.06 356.953C1205.58 354.108 1213.36 352.516 1219.12 350.384C1242.26 342.314 1275.32 346.418 1297.93 354.853C1306.19 357.931 1316.78 363.581 1323.79 368.917C1324.89 369.644 1326.29 370.884 1327.03 372.163L1433.98 513.685C1438.41 515.735 1511.67 618.391 1516.06 616.539C1517.05 617.671 1518.1 618.6 1519.2 619.328C1534.54 629.06 1547.99 636.987 1562.51 644.121C1580.7 652.888 1610.71 657.902 1645.23 657.42C1696.92 656.569 1748.27 564.17 1794.56 562.518C1836.89 561.103 1901.77 601.407 1905.35 651.013C1908.98 706.04 1934.34 783.318 1941.49 842.964C1943.9 862.205 1948.32 879.605 1950.86 894.339C1951.37 897.286 1952.08 900.287 1952.79 903.288C1959.56 937.749 1990.88 973.384 2022.64 988.813C2048.67 1001.41 2088.46 1009.48 2117.85 1003.08C2127.72 1000.97 2141.13 1001.75 2151.05 1002.68C2151.45 1002.79 2151.91 1002.69 2152.31 1002.8L2589.84 1018.64" stroke="#F30EF6" stroke-opacity="0.2" stroke-miterlimit="10"/>
<path d="M54.4879 389.018L432.976 249.141C443.327 245.212 453.22 241.377 463.005 237.945C530.952 213.557 588.723 203.74 627.141 233.061C638.998 242.075 651.978 256.58 659.107 269.517L756.553 434.436C763.387 446.861 775.668 460.746 786.717 469.545C823.817 498.945 886.35 513.322 929.7 490.344C931.948 489.216 934.546 488.399 936.647 487.016L1059.32 423.023C1062.02 425.044 1156.09 368.522 1159.32 369.387C1160.13 369.604 1188.64 351.948 1189.19 352.312C1191.3 350.929 1194.15 349.964 1196.2 348.782C1201.77 345.735 1209.35 344.09 1215.31 342.012C1238.96 333.647 1271.27 337.332 1294.48 345.93C1302.94 349.061 1313.13 354.603 1320.34 359.993C1321.44 360.721 1322.84 361.96 1323.58 363.239L1429.7 506.267C1433.37 507.899 1507.36 612.695 1510.98 611.287C1511.97 612.418 1513.02 613.347 1514.12 614.075C1529.41 624.009 1542.69 632.541 1557.47 639.528C1576.07 648.403 1605.11 653.806 1640.33 653.082C1693.09 652.3 1741.94 557.933 1789.29 556.35C1832.48 554.95 1895.78 596.342 1899.28 647.01C1903.05 703.154 1925.23 782.608 1932.06 843.464C1934.36 863.108 1938.22 881.005 1940.5 895.887C1941.01 898.834 1941.72 901.835 1942.17 904.983C1948.72 940.251 1979.04 975.616 2011.55 991.463C2038.13 1004.42 2077.02 1011.82 2107.07 1005.38C2117.19 1003.12 2130.2 1003.8 2140.32 1004.78C2140.72 1004.89 2141.18 1004.79 2141.58 1004.9L2580.59 1017.67" stroke="#F30EF6" stroke-opacity="0.2" stroke-miterlimit="10"/>
<path d="M54.5599 384.713L427.827 244.951C438.178 241.022 448.072 237.186 457.857 233.754C526.664 209.381 583.747 201.326 622.717 231.011C634.721 240.281 647.352 254.476 654.628 267.669L751.293 433.891C758.274 446.572 770.004 460.094 781.403 469.202C819.403 499.276 880.902 511.862 924.966 488.643C927.214 487.515 929.866 486.496 931.966 485.113L1055.04 417.986C1057.2 419.643 1152.56 361.523 1155.18 362.225C1155.79 362.387 1184.82 344.436 1185.42 344.599C1187.52 343.216 1190.17 342.196 1192.48 340.867C1198.25 337.874 1205.48 335.919 1211.7 333.694C1235.81 325.234 1267.42 328.3 1291.04 337.006C1299.7 340.192 1309.48 345.625 1316.89 351.069C1317.94 351.999 1319.39 353.037 1320.13 354.316L1425.36 499.051C1428.43 500.521 1502.94 607.402 1505.84 606.235C1506.84 607.367 1507.89 608.296 1508.93 609.226C1524.31 619.617 1537.54 628.351 1552.27 635.539C1571.21 644.724 1599.19 650.059 1635.22 649.551C1689.1 648.635 1735.6 552.557 1783.86 550.787C1827.97 549.2 1889.67 591.68 1893.06 643.612C1896.91 701.075 1915.81 782.246 1922.26 844.514C1924.26 864.508 1927.8 882.754 1929.77 897.986C1930.23 901.134 1930.74 904.081 1931.45 907.082C1937.98 943.211 1966.83 978.399 2000.1 994.664C2027.23 1007.99 2065.22 1014.71 2095.98 1008.03C2106.31 1005.83 2118.97 1006.19 2129.54 1007.08C2129.94 1007.19 2130.4 1007.09 2130.8 1007.2L2571.48 1016.96" stroke="#F30EF6" stroke-opacity="0.2" stroke-miterlimit="10"/>
<path d="M54.5784 380.61L422.827 241.016C433.232 236.886 443.327 233.104 452.857 229.82C522.525 205.461 578.974 198.966 618.441 229.216C630.848 238.595 642.928 252.426 650.298 266.076L746.181 433.602C753.256 446.741 764.636 459.953 776.237 469.115C814.936 499.808 875.549 510.86 920.636 487.05C922.884 485.923 925.59 484.702 927.69 483.319L1051.18 413.058C1052.78 414.351 1149.43 354.631 1151.45 355.171C1151.86 355.28 1181.45 336.832 1181.8 337.141C1183.9 335.758 1186.61 334.537 1188.85 333.41C1194.68 330.215 1201.76 328.004 1207.93 325.981C1232.75 317.28 1263.41 319.874 1287.63 328.742C1296.49 331.982 1306.08 337.361 1313.69 342.859C1314.73 343.789 1316.13 345.028 1316.92 346.106L1421.27 492.548C1423.58 493.6 1499.01 602.675 1501.01 601.696C1502 602.827 1502.99 603.958 1504.3 604.74C1519.62 615.333 1532.75 624.47 1547.67 631.713C1566.97 641.207 1594.03 646.73 1630.72 646.183C1685.66 645.335 1729.66 547.29 1778.99 545.588C1824.15 544.07 1883.87 587.529 1887.59 640.632C1891.57 699.212 1907.35 782.357 1913.22 845.983C1915.05 866.582 1918.08 885.124 1919.86 900.301C1920.31 903.45 1920.76 906.598 1921.27 909.545C1927.59 946.481 1955.38 981.601 1989.45 998.082C2017.19 1011.57 2054.22 1017.82 2085.65 1011.1C2096.23 1008.75 2108.54 1008.8 2119.26 1009.95C2119.66 1010.05 2120.12 1009.96 2120.52 1010.07L2562.67 1016.76" stroke="#F30EF6" stroke-opacity="0.2" stroke-miterlimit="10"/>
<path d="M54.4487 376.251L417.679 236.826C428.084 232.695 438.179 228.914 447.91 225.684C518.238 201.286 574.2 196.605 614.218 227.22C626.774 236.854 638.302 250.321 646.022 264.281L741.177 432.91C748.399 446.305 759.43 459.206 771.179 468.624C810.779 499.991 870.303 509.455 916.413 485.054C918.715 483.725 921.165 482.652 923.522 481.121L1047.41 407.725C1048.52 408.453 1146.42 347.336 1147.83 347.714C1148.03 347.768 1177.93 328.971 1178.34 329.079C1180.64 327.75 1183.14 326.475 1185.45 325.146C1191.48 322.005 1198.41 319.538 1204.63 317.313C1229.91 308.519 1259.92 310.291 1284.49 319.469C1293.55 322.763 1302.74 328.034 1310.49 333.788C1311.74 334.772 1312.74 335.903 1313.73 337.034L1416.98 485.13C1418.54 485.764 1494.65 597.181 1496.13 596.497C1497.07 597.83 1498.12 598.759 1499.37 599.743C1514.79 610.793 1527.85 620.132 1542.52 627.523C1562.17 637.327 1588.12 642.982 1625.72 642.248C1681.98 641.322 1723.22 541.457 1773.61 539.824C1819.64 538.32 1877.76 582.867 1881.47 636.831C1885.53 696.729 1897.98 781.794 1903.53 846.63C1905.26 867.633 1907.72 886.672 1909.24 901.996C1909.49 905.091 1910.15 908.294 1910.6 911.442C1916.71 949.185 1943.48 984.034 1978.1 1000.88C2006.4 1014.73 2042.47 1020.51 2074.67 1013.35C2085.45 1011.05 2097.41 1010.79 2108.33 1011.99C2108.73 1012.1 2109.19 1012 2109.6 1012.11L2553.21 1015.74" stroke="#F30EF6" stroke-opacity="0.2" stroke-miterlimit="10"/>
<path d="M54.5212 371.946L412.477 232.838C422.882 228.707 432.977 224.926 442.708 221.696C513.897 197.312 568.969 194.339 609.74 225.371C622.645 235.316 633.622 248.419 641.49 262.635L735.661 432.513C743.031 446.164 753.457 458.903 765.609 468.429C805.908 500.416 864.546 508.345 911.625 483.555C914.129 482.28 916.432 480.951 918.788 479.42L1043.4 402.541C1043.95 402.905 1143.14 340.188 1143.95 340.404C1144.15 340.458 1174.42 321.11 1174.62 321.164C1176.98 319.633 1179.28 318.304 1181.78 317.029C1187.87 313.687 1194.6 311.166 1201.02 308.995C1226.81 299.905 1256.07 301.259 1281.24 310.6C1290.51 313.947 1299.55 318.963 1307.25 324.919C1308.5 325.902 1309.49 327.034 1310.49 328.165L1412.85 477.968C1413.6 478.386 1490.48 591.741 1491.2 591.5C1492.14 592.833 1493.18 593.763 1494.43 594.746C1509.75 606.2 1522.76 615.741 1537.58 623.387C1557.57 633.501 1582.66 639.142 1621.07 638.624C1678.44 637.564 1717.13 535.934 1768.44 534.114C1815.38 532.422 1871.66 578.205 1875.5 633.286C1879.69 694.3 1889.02 781.339 1893.94 847.736C1895.55 869.141 1897.31 888.421 1898.72 904.15C1898.91 907.446 1899.37 910.594 1899.82 913.743C1905.71 952.293 1931.42 987.074 1966.6 1004.28C1995.49 1018.3 2030.62 1023.6 2063.27 1016.35C2074.1 1013.85 2085.86 1013.54 2097.04 1014.59C2097.44 1014.69 2097.9 1014.6 2098.3 1014.71L2543.33 1015.47" stroke="#F30EF6" stroke-opacity="0.2" stroke-miterlimit="10"/>
<path d="M54.5934 367.641L407.53 228.702C494.903 193.952 558.9 187.533 605.572 223.173C618.678 233.172 629.252 246.167 637.267 260.638L730.656 431.821C738.175 445.727 748.251 458.157 760.55 467.939C801.75 500.599 859.301 506.939 907.201 481.504C909.705 480.229 912.061 478.699 914.364 477.37L1170.85 313.451C1173.2 311.92 1175.51 310.591 1178.01 309.316C1184.3 306.028 1190.68 303.197 1197.35 300.878C1223.6 291.695 1252.16 292.429 1277.94 301.932C1287.41 305.334 1296.04 310.241 1303.95 316.251C1305.2 317.234 1306.19 318.366 1307.13 319.699L1486.21 586.704C1487.15 588.037 1488.14 589.169 1489.39 590.152C1525.81 618.072 1548.41 636.234 1615.96 635.093C1674.4 634.102 1710.59 530.504 1762.95 528.752C1810.96 527.13 1865.45 573.946 1869.22 630.09C1874.83 712.456 1883.56 841.278 1888.14 906.504C1891.06 949.665 1916.5 988.696 1955.49 1007.79C1984.94 1022.17 2019.16 1026.8 2052.47 1019.51C2063.51 1017.06 2075.12 1016.5 2086.3 1017.55C2086.7 1017.65 2087.16 1017.56 2087.56 1017.67L2534.06 1015.36" stroke="#F30EF6" stroke-opacity="0.2" stroke-miterlimit="10"/>
</svg>
