<svg width="13" height="13" viewBox="0 0 13 13" fill="none" xmlns="http://www.w3.org/2000/svg">
<path d="M6.78806 0.409126C3.41608 0.409126 0.684937 3.0945 0.684937 6.40646C0.684937 9.05675 2.43348 11.3042 4.85795 12.0966C5.1631 12.1531 5.27499 11.9674 5.27499 11.8082C5.27499 11.6658 5.26991 11.2885 5.26737 10.7885C3.56968 11.1501 3.21163 9.98391 3.21163 9.98391C2.93394 9.29172 2.53266 9.10659 2.53266 9.10659C1.97982 8.73481 2.57538 8.74243 2.57538 8.74243C3.18823 8.78414 3.51017 9.36038 3.51017 9.36038C4.05437 10.2774 4.93881 10.0124 5.28771 9.85931C5.34264 9.47125 5.49979 9.20729 5.67424 9.05725C4.31884 8.90722 2.89427 8.39151 2.89427 6.09368C2.89427 5.43912 3.13076 4.90408 3.52238 4.48449C3.45372 4.33293 3.24774 3.72312 3.57578 2.89717C3.57578 2.89717 4.08692 2.73645 5.25414 3.51206C5.74239 3.37881 6.26116 3.31269 6.77992 3.30964C7.29869 3.31269 7.81746 3.37881 8.30571 3.51206C9.4653 2.73645 9.97644 2.89717 9.97644 2.89717C10.3045 3.72312 10.0985 4.33293 10.0375 4.48449C10.4265 4.90408 10.663 5.43912 10.663 6.09368C10.663 8.39761 9.23643 8.90468 7.87849 9.05217C8.0921 9.23221 8.29045 9.59992 8.29045 10.1619C8.29045 10.9645 8.28282 11.6094 8.28282 11.8042C8.28282 11.9613 8.38962 12.149 8.70241 12.089C11.1442 11.3017 12.8912 9.05268 12.8912 6.40646C12.8912 3.0945 10.1585 0.409126 6.78806 0.409126V0.409126Z" fill="white"/>
</svg>
