<svg width="13" height="10" viewBox="0 0 13 10" fill="none" xmlns="http://www.w3.org/2000/svg">
<path d="M11.2323 1.13569L12.2062 0.203946V0H8.83224L6.42761 5.98513L3.69188 0H0.154104V0.203946L1.29183 1.57359C1.4027 1.6748 1.46068 1.8228 1.44593 1.97182V7.35427C1.48102 7.54804 1.41796 7.74741 1.28166 7.88829L0 9.44153V9.64294H3.6339V9.43899L2.35225 7.88829C2.2134 7.7469 2.14779 7.55109 2.17576 7.35427V2.6986L5.36566 9.64548H5.73643L8.47928 2.6986V8.23261C8.47928 8.37857 8.47927 8.40858 8.38366 8.5042L7.39699 9.45883V9.66328H12.1839V9.45934L11.2328 8.5281C11.1494 8.46503 11.1062 8.35925 11.124 8.25651V1.40728C11.1062 1.30403 11.1489 1.19825 11.2323 1.13569Z" fill="white"/>
</svg>
