<svg width="140" height="58" viewBox="0 0 140 58" fill="none" xmlns="http://www.w3.org/2000/svg">
<path d="M46.021 38.079C46.021 38.079 46.021 38.0652 46.021 38.0575C45.6988 36.2674 45.3772 34.4772 45.056 32.6871L43.5205 24.1559L43.1683 22.198C43.1416 22.0765 43.0746 21.9681 42.9786 21.8911C42.9471 21.8603 42.9116 21.834 42.8732 21.8129L40.6859 20.6483L35.4607 17.8649L29.1171 14.4892L23.6541 11.5739C22.7659 11.1013 21.8868 10.6088 20.9911 10.1561C20.976 10.1454 20.958 10.1392 20.9429 10.13L20.9248 10.127C20.7852 10.0553 20.6248 10.0373 20.4732 10.0763H20.4506C20.4208 10.0848 20.3916 10.0955 20.3633 10.1085L20.3227 10.127C20.3001 10.1384 20.2784 10.1518 20.258 10.1668C20.2429 10.1768 20.2288 10.1881 20.2158 10.2006C20.2012 10.2105 20.1876 10.2218 20.1752 10.2344L20.1646 10.2482C20.1496 10.2635 20.136 10.2819 20.1225 10.2988L20.0848 10.3525L20.0743 10.3663C20.0743 10.3755 20.0668 10.3863 20.0623 10.3955C20.0221 10.4669 19.9967 10.5459 19.9876 10.6277C19.9786 10.7095 19.986 10.7924 20.0096 10.8711C20.1782 11.5023 20.3463 12.1324 20.5139 12.7615C20.9203 14.2836 21.3263 15.8057 21.7317 17.3279L23.1995 22.8286C23.623 24.4152 24.0455 26.0007 24.467 27.5853C24.6657 28.331 24.8403 29.0874 25.0691 29.8255C24.8253 31.5297 24.5809 33.2344 24.336 34.9396C23.9627 37.5378 23.5899 40.1361 23.2175 42.7343C22.9967 44.28 22.7749 45.8261 22.5521 47.3728L22.5431 47.4403C22.5424 47.449 22.5424 47.4577 22.5431 47.4664C22.5145 47.5718 22.5145 47.6832 22.5431 47.7886C22.5475 47.8016 22.5525 47.8144 22.5582 47.827C22.5659 47.8505 22.5749 47.8735 22.5853 47.896V47.9083C22.6077 47.9548 22.636 47.9982 22.6696 48.0372V48.0372C22.6801 48.0494 22.6876 48.0633 22.6997 48.0755C22.7117 48.0878 22.7177 48.0893 22.7268 48.097C22.7466 48.1165 22.7683 48.134 22.7915 48.1492C22.8203 48.1701 22.8511 48.1881 22.8833 48.2029C22.9979 48.2678 23.1322 48.2864 23.2597 48.2551C23.3518 48.2462 23.4401 48.2129 23.5156 48.1584L25.5388 47.3037L30.8423 45.0666L37.2567 42.3599L42.8265 40.0108C43.7298 39.6302 44.633 39.2497 45.5362 38.8692L45.5724 38.8538L45.5934 38.8446C45.6397 38.8314 45.6843 38.8124 45.7259 38.7879C45.8039 38.7428 45.8713 38.6808 45.9233 38.6063C45.9753 38.5318 46.0107 38.4466 46.027 38.3567C46.0461 38.2649 46.0441 38.1698 46.021 38.079V38.079ZM44.365 36.118L43.1096 34.7217L38.744 29.8669L38.1268 29.181C39.4756 27.4236 40.8249 25.6678 42.1747 23.9135C42.4136 25.2484 42.6534 26.5833 42.8943 27.9182C43.385 30.6525 43.8763 33.3858 44.3681 36.118H44.365ZM27.7156 15.2119L34.0592 18.5876L39.5238 21.5029L41.0607 22.3223L35.0558 24.963L34.5334 25.1916L33.4601 23.9994L30.1739 20.3475L26.2147 15.9454L23.5743 13.0055L27.7156 15.2119ZM24.6431 41.7354C25.1007 38.5408 25.5589 35.3462 26.0175 32.1516L26.293 30.2275L28.962 29.0552L33.6287 27.0083L34.2053 26.7536L36.4633 29.2562L35.4412 30.5865L32.0556 34.9841L27.9715 40.2931L24.4414 44.8886L24.1328 45.2906L24.6431 41.7354Z" fill="white"/>
<path d="M61.0399 27.8431C60.7507 27.3337 60.3492 26.8998 59.8672 26.5757C59.2199 26.1576 58.4656 25.9441 57.6995 25.962C56.8214 25.954 55.9606 26.2102 55.2246 26.6985C54.4579 27.2173 53.8419 27.9364 53.4408 28.7806C52.9902 29.6818 52.7654 30.7452 52.7664 31.9706C52.7674 33.1961 52.9962 34.2702 53.4528 35.1929C53.8681 36.0587 54.5059 36.7937 55.2984 37.3195C56.0554 37.8207 56.9399 38.0848 57.8425 38.0791C58.5548 38.0858 59.253 37.8758 59.8477 37.476C60.4141 37.0837 60.8703 36.5474 61.1709 35.9202L61.4298 37.7614H63.2829V21.4309H61.0399V27.8431ZM59.5225 35.6332C59.0712 35.9038 58.5538 36.038 58.0305 36.0201C57.5073 36.0021 56.9998 35.8328 56.5674 35.532C56.073 35.1784 55.6839 34.6925 55.4429 34.128C55.1506 33.4487 55.0082 32.7122 55.0259 31.9706C55.0075 31.2409 55.15 30.5162 55.4429 29.8501C55.6868 29.2936 56.0758 28.816 56.5674 28.4692C57.0367 28.148 57.5904 27.9795 58.1556 27.9858C58.6482 27.9835 59.133 28.1109 59.5631 28.3556C60.011 28.6131 60.3803 28.9917 60.6305 29.4496C60.9173 29.9901 61.0586 30.5984 61.0399 31.2127V32.7777C61.0586 33.3889 60.9106 33.9933 60.6124 34.5239C60.3493 34.9835 59.9738 35.3657 59.5225 35.6332V35.6332ZM89.8107 37.0142C89.1694 36.56 88.2862 36.3329 87.1612 36.3329H83.0335C82.3059 36.3329 81.8001 36.2194 81.516 35.9923C81.3826 35.8952 81.274 35.767 81.1994 35.6182C81.1247 35.4695 81.0862 35.3047 81.087 35.1376C81.0783 34.872 81.1573 34.611 81.3113 34.3965C81.4566 34.1995 81.6503 34.0449 81.8728 33.9485C81.9731 33.9052 82.0769 33.8708 82.1829 33.8457C82.8993 34.1606 83.6729 34.3175 84.453 34.306C85.261 34.3158 86.0605 34.1379 86.7909 33.7858C87.4735 33.4604 88.0602 32.9577 88.492 32.3282C88.9085 31.6734 89.1301 30.9097 89.1301 30.1294C89.1301 29.349 88.9085 28.5854 88.492 27.9306C88.4287 27.837 88.361 27.748 88.2917 27.6621C88.3168 27.1383 88.4965 26.7476 88.8307 26.4898C89.195 26.2116 89.7249 26.0724 90.4203 26.0724L90.5603 23.8614C89.9589 23.8495 89.3649 23.9976 88.8367 24.291C88.3443 24.5699 87.9385 24.984 87.6655 25.4863C87.4546 25.8757 87.3216 26.3039 87.2741 26.746C87.1186 26.6451 86.9573 26.5538 86.7909 26.4729C86.0594 26.1232 85.2594 25.948 84.4515 25.9604C83.6279 25.9489 82.8124 26.1267 82.0655 26.4806C81.3789 26.8016 80.7897 27.3051 80.3599 27.9383C79.9461 28.594 79.7261 29.3573 79.7261 30.137C79.7261 30.9168 79.9461 31.68 80.3599 32.3358C80.5592 32.6319 80.7955 32.9001 81.0629 33.1337C80.9094 33.1721 80.7585 33.2208 80.6113 33.2795C80.1973 33.4417 79.8334 33.7141 79.5575 34.0682C79.2898 34.4218 79.1491 34.8583 79.1586 35.3049C79.1594 35.7938 79.3349 36.2656 79.6524 36.6321C79.9057 36.9333 80.212 37.1837 80.5556 37.3702C80.0806 37.4665 79.631 37.6647 79.2369 37.9517C78.6197 38.411 78.3111 39.0703 78.3111 39.9295C78.3186 40.6238 78.5751 41.2913 79.0322 41.8061C79.5079 42.38 80.1858 42.8403 81.0659 43.187C81.9461 43.5338 82.9953 43.7052 84.2137 43.7011C85.5655 43.7011 86.7322 43.474 87.7137 43.0198C88.6952 42.5656 89.4514 41.9805 89.9823 41.2644C90.487 40.6203 90.7657 39.8225 90.7741 38.9982C90.7741 38.1297 90.453 37.4684 89.8107 37.0142V37.0142ZM82.6059 28.2912C83.0465 27.8206 83.6622 27.5854 84.453 27.5854C85.2439 27.5854 85.8591 27.8206 86.2986 28.2912C86.7251 28.7607 86.9384 29.378 86.9384 30.1432C86.9616 30.8174 86.7329 31.4754 86.2986 31.9845C85.8701 32.4693 85.2544 32.7118 84.4515 32.7118C83.6487 32.7118 83.033 32.4668 82.6044 31.9768C82.1571 31.4742 81.9195 30.8137 81.9421 30.1355C81.9431 29.3785 82.1644 28.7638 82.6059 28.2912V28.2912ZM88.0163 40.4727C87.597 40.9324 87.0741 41.2811 86.4928 41.4885C85.7608 41.7613 84.9854 41.8934 84.2061 41.8782C83.0109 41.8782 82.0926 41.6849 81.4513 41.2982C80.81 40.9115 80.4894 40.4195 80.4894 39.8221C80.4811 39.557 80.5372 39.2938 80.6527 39.0561C80.7683 38.8184 80.9397 38.6135 81.1517 38.4596C81.5943 38.1251 82.2216 37.9578 83.0335 37.9578H87.1612C87.6294 37.9578 87.9801 38.0714 88.215 38.2985C88.3262 38.4045 88.4144 38.5332 88.4738 38.6762C88.5332 38.8192 88.5624 38.9733 88.5597 39.1286C88.5501 39.6302 88.3562 40.1099 88.0163 40.4727V40.4727ZM123.543 31.027V37.766H121.3V31.027C121.3 30.0307 121.068 29.2757 120.603 28.7622C120.138 28.2487 119.515 27.993 118.733 27.995C117.795 27.995 117.07 28.3694 116.558 29.1182C116.046 29.867 115.79 30.9411 115.79 32.3404V37.7645H113.575V31.027C113.575 30.0307 113.342 29.2757 112.876 28.7622C112.41 28.2487 111.783 27.993 110.994 27.995C110.408 27.9826 109.834 28.1652 109.359 28.5152C108.863 28.9034 108.488 29.4308 108.282 30.0327C108.008 30.8124 107.878 31.6369 107.899 32.4647V37.7691H105.677V26.2704H107.612L107.857 28.4339C108.168 27.6877 108.684 27.0486 109.341 26.5926C110.003 26.1599 110.776 25.9391 111.562 25.9589C112.465 25.9589 113.233 26.166 113.867 26.5803C114.507 27.0085 115.008 27.6226 115.303 28.3433C115.342 28.4354 115.379 28.5305 115.414 28.6257C115.573 28.2192 115.786 27.8367 116.046 27.4887C116.418 26.9895 116.906 26.5929 117.466 26.3348C118.048 26.078 118.677 25.9499 119.312 25.9589C120.215 25.9589 120.983 26.166 121.616 26.5803C122.256 27.0094 122.756 27.6232 123.052 28.3433C123.396 29.1936 123.562 30.1076 123.54 31.027H123.543ZM102.064 30.0358C101.934 29.2987 101.665 28.5943 101.273 27.9613C100.895 27.3571 100.379 26.8565 99.7672 26.5036C99.0742 26.1241 98.2955 25.9368 97.5092 25.9604C96.5751 25.9424 95.6557 26.198 94.86 26.6968C94.0642 27.1956 93.4257 27.9167 93.0201 28.7745C92.5655 29.6777 92.3387 30.7631 92.3397 32.0305C92.3195 33.1234 92.557 34.2053 93.0322 35.1852C93.4532 36.0515 94.0954 36.7861 94.8913 37.3119C95.6741 37.8235 96.5868 38.0902 97.5167 38.0791C98.2892 38.0925 99.0554 37.9354 99.7627 37.6187C100.401 37.3302 100.958 36.8846 101.386 36.3222C101.815 35.7499 102.093 35.0755 102.195 34.3628H99.9163C99.8159 34.9847 99.552 35.4506 99.1244 35.7606C98.6341 36.0704 98.0676 36.2321 97.4907 36.227C96.9138 36.2218 96.3502 36.05 95.8653 35.7314C95.4194 35.3832 95.08 34.9127 94.8868 34.375C94.6608 33.7516 94.5496 33.091 94.5586 32.4264H102.144C102.238 31.63 102.211 30.8238 102.064 30.0358V30.0358ZM94.8958 29.6353C95.1011 29.1011 95.4483 28.6357 95.8984 28.2912C96.3789 27.9426 96.9589 27.7657 97.5483 27.7879C98.0019 27.7697 98.4511 27.8842 98.8429 28.1178C99.1783 28.3312 99.4517 28.6321 99.6348 28.9893C99.8257 29.3614 99.9544 29.7633 100.016 30.1785C100.064 30.487 100.088 30.799 100.088 31.1114H94.5722C94.6011 30.6044 94.7114 30.1058 94.8988 29.6353H94.8958ZM76.4474 30.0358C76.3171 29.299 76.0488 28.5946 75.6571 27.9613C75.2773 27.3566 74.7579 26.8561 74.1442 26.5036C73.4535 26.1251 72.6775 25.9378 71.8937 25.9604C70.9595 25.9425 70.0399 26.1981 69.2439 26.6969C68.4479 27.1957 67.8091 27.9167 67.4031 28.7745C66.9505 29.6777 66.7237 30.7631 66.7227 32.0305C66.6999 33.123 66.9354 34.205 67.4092 35.1852C67.8294 36.0515 68.4711 36.7862 69.2668 37.3119C70.0501 37.8237 70.9633 38.0904 71.8937 38.0791C72.6657 38.0923 73.4313 37.9353 74.1382 37.6187C74.7766 37.3304 75.3348 36.8848 75.7625 36.3222C76.1905 35.7494 76.4686 35.0752 76.5709 34.3628H74.2993C74.2677 34.6383 74.1814 34.9044 74.0455 35.1447C73.9096 35.3851 73.727 35.5946 73.5089 35.7606C73.0186 36.0704 72.4521 36.2321 71.8752 36.227C71.2983 36.2218 70.7347 36.05 70.2498 35.7314C69.8035 35.3833 69.4636 34.9128 69.2698 34.375C69.0435 33.7517 68.9328 33.0909 68.9431 32.4264H76.5272C76.6223 31.6302 76.5964 30.8239 76.4504 30.0358H76.4474ZM69.2788 29.6353C69.4852 29.1017 69.8321 28.6365 70.2814 28.2912C70.7611 27.9433 71.34 27.7664 71.9283 27.7879C72.3824 27.7697 72.832 27.8842 73.2244 28.1178C73.5598 28.3308 73.8327 28.6318 74.0148 28.9893C74.2055 29.3616 74.3347 29.7633 74.3971 30.1785C74.4436 30.4872 74.4678 30.799 74.4694 31.1114H68.9552C68.9848 30.6046 69.0951 30.106 69.2818 29.6353H69.2788Z" fill="white"/>
</svg>
